<mxfile host="app.diagrams.net" modified="2022-07-29T06:16:54.406Z" agent="5.0 (Macintosh; Intel Mac OS X 10_15_7) AppleWebKit/537.36 (KHTML, like Gecko) Chrome/103.0.0.0 Safari/537.36" etag="7UkLU-E5gcPV9eoHouA2" version="20.1.4" type="github">
  <diagram id="C5RBs43oDa-KdzZeNtuy" name="Page-1">
    <mxGraphModel dx="361" dy="180" grid="1" gridSize="10" guides="1" tooltips="1" connect="1" arrows="1" fold="1" page="1" pageScale="1" pageWidth="10000" pageHeight="10000" math="0" shadow="0">
      <root>
        <mxCell id="WIyWlLk6GJQsqaUBKTNV-0" />
        <mxCell id="WIyWlLk6GJQsqaUBKTNV-1" parent="WIyWlLk6GJQsqaUBKTNV-0" />
        <mxCell id="EBtre2J8UbIUJJt7l9Dx-0" value="" style="shape=image;verticalLabelPosition=bottom;labelBackgroundColor=default;verticalAlign=top;aspect=fixed;imageAspect=0;image=data:image/svg+xml,PHN2ZyB4bWxuczp4bGluaz0iaHR0cDovL3d3dy53My5vcmcvMTk5OS94bGluayIgeG1sbnM9Imh0dHA6Ly93d3cudzMub3JnLzIwMDAvc3ZnIiB2ZXJzaW9uPSIxLjEiIGhlaWdodD0iMjIxOCIgd2lkdGg9IjU3MDgiIGlkPSJTdmdqc1N2ZzEwMDYiIHZpZXdCb3g9IjAgMCA1NzA4IDIyMTgiPjxkZWZzIGlkPSJTdmdqc0RlZnMxMDA3Ij48bWFya2VyIHN0cm9rZS1kYXNoYXJyYXk9IjAsMCIgbWFya2VyVW5pdHM9InVzZXJTcGFjZU9uVXNlIiBvcmllbnQ9ImF1dG8iIHZpZXdCb3g9IjAgMCAxNiAxMiIgcmVmWT0iNiIgcmVmWD0iMTYiIG1hcmtlckhlaWdodD0iMTIiIG1hcmtlcldpZHRoPSIxNiIgaWQ9IlN2Z2pzTWFya2VyMTEzNiI+PHBhdGggc3Ryb2tlLXdpZHRoPSIyIiBzdHJva2U9IiMzMjMyMzIiIGZpbGw9IiMzMjMyMzIiIGQ9Ik0wLDIgTDE0LDYgTDAsMTEgTDAsMiIgaWQ9IlN2Z2pzUGF0aDExMzciLz48L21hcmtlcj48bWFya2VyIHN0cm9rZS1kYXNoYXJyYXk9IjAsMCIgbWFya2VyVW5pdHM9InVzZXJTcGFjZU9uVXNlIiBvcmllbnQ9ImF1dG8iIHZpZXdCb3g9IjAgMCAxNiAxMiIgcmVmWT0iNiIgcmVmWD0iMTYiIG1hcmtlckhlaWdodD0iMTIiIG1hcmtlcldpZHRoPSIxNiIgaWQ9IlN2Z2pzTWFya2VyMTE0NiI+PHBhdGggc3Ryb2tlLXdpZHRoPSIyIiBzdHJva2U9IiMzMjMyMzIiIGZpbGw9IiMzMjMyMzIiIGQ9Ik0wLDIgTDE0LDYgTDAsMTEgTDAsMiIgaWQ9IlN2Z2pzUGF0aDExNDciLz48L21hcmtlcj48bWFya2VyIHN0cm9rZS1kYXNoYXJyYXk9IjAsMCIgbWFya2VyVW5pdHM9InVzZXJTcGFjZU9uVXNlIiBvcmllbnQ9ImF1dG8iIHZpZXdCb3g9IjAgMCAxNiAxMiIgcmVmWT0iNiIgcmVmWD0iMTYiIG1hcmtlckhlaWdodD0iMTIiIG1hcmtlcldpZHRoPSIxNiIgaWQ9IlN2Z2pzTWFya2VyMTE1NyI+PHBhdGggc3Ryb2tlLXdpZHRoPSIyIiBzdHJva2U9IiMzMjMyMzIiIGZpbGw9IiMzMjMyMzIiIGQ9Ik0wLDIgTDE0LDYgTDAsMTEgTDAsMiIgaWQ9IlN2Z2pzUGF0aDExNTgiLz48L21hcmtlcj48bWFya2VyIHN0cm9rZS1kYXNoYXJyYXk9IjAsMCIgbWFya2VyVW5pdHM9InVzZXJTcGFjZU9uVXNlIiBvcmllbnQ9ImF1dG8iIHZpZXdCb3g9IjAgMCAxNiAxMiIgcmVmWT0iNiIgcmVmWD0iMTYiIG1hcmtlckhlaWdodD0iMTIiIG1hcmtlcldpZHRoPSIxNiIgaWQ9IlN2Z2pzTWFya2VyMTE2NyI+PHBhdGggc3Ryb2tlLXdpZHRoPSIyIiBzdHJva2U9IiMzMjMyMzIiIGZpbGw9IiMzMjMyMzIiIGQ9Ik0wLDIgTDE0LDYgTDAsMTEgTDAsMiIgaWQ9IlN2Z2pzUGF0aDExNjgiLz48L21hcmtlcj48bWFya2VyIHN0cm9rZS1kYXNoYXJyYXk9IjAsMCIgbWFya2VyVW5pdHM9InVzZXJTcGFjZU9uVXNlIiBvcmllbnQ9ImF1dG8iIHZpZXdCb3g9IjAgMCAxNiAxMiIgcmVmWT0iNiIgcmVmWD0iMTYiIG1hcmtlckhlaWdodD0iMTIiIG1hcmtlcldpZHRoPSIxNiIgaWQ9IlN2Z2pzTWFya2VyMTE4MSI+PHBhdGggc3Ryb2tlLXdpZHRoPSIyIiBzdHJva2U9IiMzMjMyMzIiIGZpbGw9IiMzMjMyMzIiIGQ9Ik0wLDIgTDE0LDYgTDAsMTEgTDAsMiIgaWQ9IlN2Z2pzUGF0aDExODIiLz48L21hcmtlcj48bWFya2VyIHN0cm9rZS1kYXNoYXJyYXk9IjAsMCIgbWFya2VyVW5pdHM9InVzZXJTcGFjZU9uVXNlIiBvcmllbnQ9ImF1dG8iIHZpZXdCb3g9IjAgMCAxNiAxMiIgcmVmWT0iNiIgcmVmWD0iMTYiIG1hcmtlckhlaWdodD0iMTIiIG1hcmtlcldpZHRoPSIxNiIgaWQ9IlN2Z2pzTWFya2VyMTE5MyI+PHBhdGggc3Ryb2tlLXdpZHRoPSIyIiBzdHJva2U9IiMzMjMyMzIiIGZpbGw9IiMzMjMyMzIiIGQ9Ik0wLDIgTDE0LDYgTDAsMTEgTDAsMiIgaWQ9IlN2Z2pzUGF0aDExOTQiLz48L21hcmtlcj48bWFya2VyIHN0cm9rZS1kYXNoYXJyYXk9IjAsMCIgbWFya2VyVW5pdHM9InVzZXJTcGFjZU9uVXNlIiBvcmllbnQ9ImF1dG8iIHZpZXdCb3g9IjAgMCAxNiAxMiIgcmVmWT0iNiIgcmVmWD0iMTYiIG1hcmtlckhlaWdodD0iMTIiIG1hcmtlcldpZHRoPSIxNiIgaWQ9IlN2Z2pzTWFya2VyMTIwMSI+PHBhdGggc3Ryb2tlLXdpZHRoPSIyIiBzdHJva2U9IiMzMjMyMzIiIGZpbGw9IiMzMjMyMzIiIGQ9Ik0wLDIgTDE0LDYgTDAsMTEgTDAsMiIgaWQ9IlN2Z2pzUGF0aDEyMDIiLz48L21hcmtlcj48bWFya2VyIHN0cm9rZS1kYXNoYXJyYXk9IjAsMCIgbWFya2VyVW5pdHM9InVzZXJTcGFjZU9uVXNlIiBvcmllbnQ9ImF1dG8iIHZpZXdCb3g9IjAgMCAxNiAxMiIgcmVmWT0iNiIgcmVmWD0iMTYiIG1hcmtlckhlaWdodD0iMTIiIG1hcmtlcldpZHRoPSIxNiIgaWQ9IlN2Z2pzTWFya2VyMTIxMSI+PHBhdGggc3Ryb2tlLXdpZHRoPSIyIiBzdHJva2U9IiMzMjMyMzIiIGZpbGw9IiMzMjMyMzIiIGQ9Ik0wLDIgTDE0LDYgTDAsMTEgTDAsMiIgaWQ9IlN2Z2pzUGF0aDEyMTIiLz48L21hcmtlcj48bWFya2VyIHN0cm9rZS1kYXNoYXJyYXk9IjAsMCIgbWFya2VyVW5pdHM9InVzZXJTcGFjZU9uVXNlIiBvcmllbnQ9ImF1dG8iIHZpZXdCb3g9IjAgMCAxNiAxMiIgcmVmWT0iNiIgcmVmWD0iMTYiIG1hcmtlckhlaWdodD0iMTIiIG1hcmtlcldpZHRoPSIxNiIgaWQ9IlN2Z2pzTWFya2VyMTIyMSI+PHBhdGggc3Ryb2tlLXdpZHRoPSIyIiBzdHJva2U9IiMzMjMyMzIiIGZpbGw9IiMzMjMyMzIiIGQ9Ik0wLDIgTDE0LDYgTDAsMTEgTDAsMiIgaWQ9IlN2Z2pzUGF0aDEyMjIiLz48L21hcmtlcj48bWFya2VyIHN0cm9rZS1kYXNoYXJyYXk9IjAsMCIgbWFya2VyVW5pdHM9InVzZXJTcGFjZU9uVXNlIiBvcmllbnQ9ImF1dG8iIHZpZXdCb3g9IjAgMCAxNiAxMiIgcmVmWT0iNiIgcmVmWD0iMTYiIG1hcmtlckhlaWdodD0iMTIiIG1hcmtlcldpZHRoPSIxNiIgaWQ9IlN2Z2pzTWFya2VyMTIzMyI+PHBhdGggc3Ryb2tlLXdpZHRoPSIyIiBzdHJva2U9IiMzMjMyMzIiIGZpbGw9IiMzMjMyMzIiIGQ9Ik0wLDIgTDE0LDYgTDAsMTEgTDAsMiIgaWQ9IlN2Z2pzUGF0aDEyMzQiLz48L21hcmtlcj48bWFya2VyIHN0cm9rZS1kYXNoYXJyYXk9IjAsMCIgbWFya2VyVW5pdHM9InVzZXJTcGFjZU9uVXNlIiBvcmllbnQ9ImF1dG8iIHZpZXdCb3g9IjAgMCAxNiAxMiIgcmVmWT0iNiIgcmVmWD0iMTYiIG1hcmtlckhlaWdodD0iMTIiIG1hcmtlcldpZHRoPSIxNiIgaWQ9IlN2Z2pzTWFya2VyMTI0MyI+PHBhdGggc3Ryb2tlLXdpZHRoPSIyIiBzdHJva2U9IiMzMjMyMzIiIGZpbGw9IiMzMjMyMzIiIGQ9Ik0wLDIgTDE0LDYgTDAsMTEgTDAsMiIgaWQ9IlN2Z2pzUGF0aDEyNDQiLz48L21hcmtlcj48bWFya2VyIHN0cm9rZS1kYXNoYXJyYXk9IjAsMCIgbWFya2VyVW5pdHM9InVzZXJTcGFjZU9uVXNlIiBvcmllbnQ9ImF1dG8iIHZpZXdCb3g9IjAgMCAxNiAxMiIgcmVmWT0iNiIgcmVmWD0iMTYiIG1hcmtlckhlaWdodD0iMTIiIG1hcmtlcldpZHRoPSIxNiIgaWQ9IlN2Z2pzTWFya2VyMTI1MSI+PHBhdGggc3Ryb2tlLXdpZHRoPSIyIiBzdHJva2U9IiMzMjMyMzIiIGZpbGw9IiMzMjMyMzIiIGQ9Ik0wLDIgTDE0LDYgTDAsMTEgTDAsMiIgaWQ9IlN2Z2pzUGF0aDEyNTIiLz48L21hcmtlcj48bWFya2VyIHN0cm9rZS1kYXNoYXJyYXk9IjAsMCIgbWFya2VyVW5pdHM9InVzZXJTcGFjZU9uVXNlIiBvcmllbnQ9ImF1dG8iIHZpZXdCb3g9IjAgMCAxNiAxMiIgcmVmWT0iNiIgcmVmWD0iMTYiIG1hcmtlckhlaWdodD0iMTIiIG1hcmtlcldpZHRoPSIxNiIgaWQ9IlN2Z2pzTWFya2VyMTI2NSI+PHBhdGggc3Ryb2tlLXdpZHRoPSIyIiBzdHJva2U9IiMzMjMyMzIiIGZpbGw9IiMzMjMyMzIiIGQ9Ik0wLDIgTDE0LDYgTDAsMTEgTDAsMiIgaWQ9IlN2Z2pzUGF0aDEyNjYiLz48L21hcmtlcj48bWFya2VyIHN0cm9rZS1kYXNoYXJyYXk9IjAsMCIgbWFya2VyVW5pdHM9InVzZXJTcGFjZU9uVXNlIiBvcmllbnQ9ImF1dG8iIHZpZXdCb3g9IjAgMCAxNiAxMiIgcmVmWT0iNiIgcmVmWD0iMTYiIG1hcmtlckhlaWdodD0iMTIiIG1hcmtlcldpZHRoPSIxNiIgaWQ9IlN2Z2pzTWFya2VyMTI4MSI+PHBhdGggc3Ryb2tlLXdpZHRoPSIyIiBzdHJva2U9IiMzMjMyMzIiIGZpbGw9IiMzMjMyMzIiIGQ9Ik0wLDIgTDE0LDYgTDAsMTEgTDAsMiIgaWQ9IlN2Z2pzUGF0aDEyODIiLz48L21hcmtlcj48bWFya2VyIHN0cm9rZS1kYXNoYXJyYXk9IjAsMCIgbWFya2VyVW5pdHM9InVzZXJTcGFjZU9uVXNlIiBvcmllbnQ9ImF1dG8iIHZpZXdCb3g9IjAgMCAxNiAxMiIgcmVmWT0iNiIgcmVmWD0iMTYiIG1hcmtlckhlaWdodD0iMTIiIG1hcmtlcldpZHRoPSIxNiIgaWQ9IlN2Z2pzTWFya2VyMTMwNSI+PHBhdGggc3Ryb2tlLXdpZHRoPSIyIiBzdHJva2U9IiMzMjMyMzIiIGZpbGw9IiMzMjMyMzIiIGQ9Ik0wLDIgTDE0LDYgTDAsMTEgTDAsMiIgaWQ9IlN2Z2pzUGF0aDEzMDYiLz48L21hcmtlcj48bWFya2VyIHN0cm9rZS1kYXNoYXJyYXk9IjAsMCIgbWFya2VyVW5pdHM9InVzZXJTcGFjZU9uVXNlIiBvcmllbnQ9ImF1dG8iIHZpZXdCb3g9IjAgMCAxNiAxMiIgcmVmWT0iNiIgcmVmWD0iMTYiIG1hcmtlckhlaWdodD0iMTIiIG1hcmtlcldpZHRoPSIxNiIgaWQ9IlN2Z2pzTWFya2VyMTMxMyI+PHBhdGggc3Ryb2tlLXdpZHRoPSIyIiBzdHJva2U9IiMzMjMyMzIiIGZpbGw9IiMzMjMyMzIiIGQ9Ik0wLDIgTDE0LDYgTDAsMTEgTDAsMiIgaWQ9IlN2Z2pzUGF0aDEzMTQiLz48L21hcmtlcj48bWFya2VyIHN0cm9rZS1kYXNoYXJyYXk9IjAsMCIgbWFya2VyVW5pdHM9InVzZXJTcGFjZU9uVXNlIiBvcmllbnQ9ImF1dG8iIHZpZXdCb3g9IjAgMCAxNiAxMiIgcmVmWT0iNiIgcmVmWD0iMTYiIG1hcmtlckhlaWdodD0iMTIiIG1hcmtlcldpZHRoPSIxNiIgaWQ9IlN2Z2pzTWFya2VyMTMyNyI+PHBhdGggc3Ryb2tlLXdpZHRoPSIyIiBzdHJva2U9IiMzMjMyMzIiIGZpbGw9IiMzMjMyMzIiIGQ9Ik0wLDIgTDE0LDYgTDAsMTEgTDAsMiIgaWQ9IlN2Z2pzUGF0aDEzMjgiLz48L21hcmtlcj48bWFya2VyIHN0cm9rZS1kYXNoYXJyYXk9IjAsMCIgbWFya2VyVW5pdHM9InVzZXJTcGFjZU9uVXNlIiBvcmllbnQ9ImF1dG8iIHZpZXdCb3g9IjAgMCAxNiAxMiIgcmVmWT0iNiIgcmVmWD0iMTYiIG1hcmtlckhlaWdodD0iMTIiIG1hcmtlcldpZHRoPSIxNiIgaWQ9IlN2Z2pzTWFya2VyMTM0MSI+PHBhdGggc3Ryb2tlLXdpZHRoPSIyIiBzdHJva2U9IiMzMjMyMzIiIGZpbGw9IiMzMjMyMzIiIGQ9Ik0wLDIgTDE0LDYgTDAsMTEgTDAsMiIgaWQ9IlN2Z2pzUGF0aDEzNDIiLz48L21hcmtlcj48bWFya2VyIHN0cm9rZS1kYXNoYXJyYXk9IjAsMCIgbWFya2VyVW5pdHM9InVzZXJTcGFjZU9uVXNlIiBvcmllbnQ9ImF1dG8iIHZpZXdCb3g9IjAgMCAxNiAxMiIgcmVmWT0iNiIgcmVmWD0iMTYiIG1hcmtlckhlaWdodD0iMTIiIG1hcmtlcldpZHRoPSIxNiIgaWQ9IlN2Z2pzTWFya2VyMTM1MSI+PHBhdGggc3Ryb2tlLXdpZHRoPSIyIiBzdHJva2U9IiMzMjMyMzIiIGZpbGw9IiMzMjMyMzIiIGQ9Ik0wLDIgTDE0LDYgTDAsMTEgTDAsMiIgaWQ9IlN2Z2pzUGF0aDEzNTIiLz48L21hcmtlcj48bWFya2VyIHN0cm9rZS1kYXNoYXJyYXk9IjAsMCIgbWFya2VyVW5pdHM9InVzZXJTcGFjZU9uVXNlIiBvcmllbnQ9ImF1dG8iIHZpZXdCb3g9IjAgMCAxNiAxMiIgcmVmWT0iNiIgcmVmWD0iMTYiIG1hcmtlckhlaWdodD0iMTIiIG1hcmtlcldpZHRoPSIxNiIgaWQ9IlN2Z2pzTWFya2VyMTM2NSI+PHBhdGggc3Ryb2tlLXdpZHRoPSIyIiBzdHJva2U9IiMzMjMyMzIiIGZpbGw9IiMzMjMyMzIiIGQ9Ik0wLDIgTDE0LDYgTDAsMTEgTDAsMiIgaWQ9IlN2Z2pzUGF0aDEzNjYiLz48L21hcmtlcj48bWFya2VyIHN0cm9rZS1kYXNoYXJyYXk9IjAsMCIgbWFya2VyVW5pdHM9InVzZXJTcGFjZU9uVXNlIiBvcmllbnQ9ImF1dG8iIHZpZXdCb3g9IjAgMCAxNiAxMiIgcmVmWT0iNiIgcmVmWD0iMTYiIG1hcmtlckhlaWdodD0iMTIiIG1hcmtlcldpZHRoPSIxNiIgaWQ9IlN2Z2pzTWFya2VyMTM3NSI+PHBhdGggc3Ryb2tlLXdpZHRoPSIyIiBzdHJva2U9IiMzMjMyMzIiIGZpbGw9IiMzMjMyMzIiIGQ9Ik0wLDIgTDE0LDYgTDAsMTEgTDAsMiIgaWQ9IlN2Z2pzUGF0aDEzNzYiLz48L21hcmtlcj48bWFya2VyIHN0cm9rZS1kYXNoYXJyYXk9IjAsMCIgbWFya2VyVW5pdHM9InVzZXJTcGFjZU9uVXNlIiBvcmllbnQ9ImF1dG8iIHZpZXdCb3g9IjAgMCAxNiAxMiIgcmVmWT0iNiIgcmVmWD0iMTYiIG1hcmtlckhlaWdodD0iMTIiIG1hcmtlcldpZHRoPSIxNiIgaWQ9IlN2Z2pzTWFya2VyMTM4MyI+PHBhdGggc3Ryb2tlLXdpZHRoPSIyIiBzdHJva2U9IiMzMjMyMzIiIGZpbGw9IiMzMjMyMzIiIGQ9Ik0wLDIgTDE0LDYgTDAsMTEgTDAsMiIgaWQ9IlN2Z2pzUGF0aDEzODQiLz48L21hcmtlcj48bWFya2VyIHN0cm9rZS1kYXNoYXJyYXk9IjAsMCIgbWFya2VyVW5pdHM9InVzZXJTcGFjZU9uVXNlIiBvcmllbnQ9ImF1dG8iIHZpZXdCb3g9IjAgMCAxNiAxMiIgcmVmWT0iNiIgcmVmWD0iMTYiIG1hcmtlckhlaWdodD0iMTIiIG1hcmtlcldpZHRoPSIxNiIgaWQ9IlN2Z2pzTWFya2VyMTQwMSI+PHBhdGggc3Ryb2tlLXdpZHRoPSIyIiBzdHJva2U9IiMzMjMyMzIiIGZpbGw9IiMzMjMyMzIiIGQ9Ik0wLDIgTDE0LDYgTDAsMTEgTDAsMiIgaWQ9IlN2Z2pzUGF0aDE0MDIiLz48L21hcmtlcj48bWFya2VyIHN0cm9rZS1kYXNoYXJyYXk9IjAsMCIgbWFya2VyVW5pdHM9InVzZXJTcGFjZU9uVXNlIiBvcmllbnQ9ImF1dG8iIHZpZXdCb3g9IjAgMCAxNiAxMiIgcmVmWT0iNiIgcmVmWD0iMTYiIG1hcmtlckhlaWdodD0iMTIiIG1hcmtlcldpZHRoPSIxNiIgaWQ9IlN2Z2pzTWFya2VyMTQyNSI+PHBhdGggc3Ryb2tlLXdpZHRoPSIyIiBzdHJva2U9IiMzMjMyMzIiIGZpbGw9IiMzMjMyMzIiIGQ9Ik0wLDIgTDE0LDYgTDAsMTEgTDAsMiIgaWQ9IlN2Z2pzUGF0aDE0MjYiLz48L21hcmtlcj48bWFya2VyIHN0cm9rZS1kYXNoYXJyYXk9IjAsMCIgbWFya2VyVW5pdHM9InVzZXJTcGFjZU9uVXNlIiBvcmllbnQ9ImF1dG8iIHZpZXdCb3g9IjAgMCAxNiAxMiIgcmVmWT0iNiIgcmVmWD0iMTYiIG1hcmtlckhlaWdodD0iMTIiIG1hcmtlcldpZHRoPSIxNiIgaWQ9IlN2Z2pzTWFya2VyMTQ1NiI+PHBhdGggc3Ryb2tlLXdpZHRoPSIyIiBzdHJva2U9IiMzMjMyMzIiIGZpbGw9IiMzMjMyMzIiIGQ9Ik0wLDIgTDE0LDYgTDAsMTEgTDAsMiIgaWQ9IlN2Z2pzUGF0aDE0NTciLz48L21hcmtlcj48bWFya2VyIHN0cm9rZS1kYXNoYXJyYXk9IjAsMCIgbWFya2VyVW5pdHM9InVzZXJTcGFjZU9uVXNlIiBvcmllbnQ9ImF1dG8iIHZpZXdCb3g9IjAgMCAxNiAxMiIgcmVmWT0iNiIgcmVmWD0iMTYiIG1hcmtlckhlaWdodD0iMTIiIG1hcmtlcldpZHRoPSIxNiIgaWQ9IlN2Z2pzTWFya2VyMTQ2NiI+PHBhdGggc3Ryb2tlLXdpZHRoPSIyIiBzdHJva2U9IiMzMjMyMzIiIGZpbGw9IiMzMjMyMzIiIGQ9Ik0wLDIgTDE0LDYgTDAsMTEgTDAsMiIgaWQ9IlN2Z2pzUGF0aDE0NjciLz48L21hcmtlcj48bWFya2VyIHN0cm9rZS1kYXNoYXJyYXk9IjAsMCIgbWFya2VyVW5pdHM9InVzZXJTcGFjZU9uVXNlIiBvcmllbnQ9ImF1dG8iIHZpZXdCb3g9IjAgMCAxNiAxMiIgcmVmWT0iNiIgcmVmWD0iMTYiIG1hcmtlckhlaWdodD0iMTIiIG1hcmtlcldpZHRoPSIxNiIgaWQ9IlN2Z2pzTWFya2VyMTQ3OCI+PHBhdGggc3Ryb2tlLXdpZHRoPSIyIiBzdHJva2U9IiMzMjMyMzIiIGZpbGw9IiMzMjMyMzIiIGQ9Ik0wLDIgTDE0LDYgTDAsMTEgTDAsMiIgaWQ9IlN2Z2pzUGF0aDE0NzkiLz48L21hcmtlcj48bWFya2VyIHN0cm9rZS1kYXNoYXJyYXk9IjAsMCIgbWFya2VyVW5pdHM9InVzZXJTcGFjZU9uVXNlIiBvcmllbnQ9ImF1dG8iIHZpZXdCb3g9IjAgMCAxNiAxMiIgcmVmWT0iNiIgcmVmWD0iMTYiIG1hcmtlckhlaWdodD0iMTIiIG1hcmtlcldpZHRoPSIxNiIgaWQ9IlN2Z2pzTWFya2VyMTQ4OCI+PHBhdGggc3Ryb2tlLXdpZHRoPSIyIiBzdHJva2U9IiMzMjMyMzIiIGZpbGw9IiMzMjMyMzIiIGQ9Ik0wLDIgTDE0LDYgTDAsMTEgTDAsMiIgaWQ9IlN2Z2pzUGF0aDE0ODkiLz48L21hcmtlcj48bWFya2VyIHN0cm9rZS1kYXNoYXJyYXk9IjAsMCIgbWFya2VyVW5pdHM9InVzZXJTcGFjZU9uVXNlIiBvcmllbnQ9ImF1dG8iIHZpZXdCb3g9IjAgMCAxNiAxMiIgcmVmWT0iNiIgcmVmWD0iMTYiIG1hcmtlckhlaWdodD0iMTIiIG1hcmtlcldpZHRoPSIxNiIgaWQ9IlN2Z2pzTWFya2VyMTUwMiI+PHBhdGggc3Ryb2tlLXdpZHRoPSIyIiBzdHJva2U9IiMzMjMyMzIiIGZpbGw9IiMzMjMyMzIiIGQ9Ik0wLDIgTDE0LDYgTDAsMTEgTDAsMiIgaWQ9IlN2Z2pzUGF0aDE1MDMiLz48L21hcmtlcj48bWFya2VyIHN0cm9rZS1kYXNoYXJyYXk9IjAsMCIgbWFya2VyVW5pdHM9InVzZXJTcGFjZU9uVXNlIiBvcmllbnQ9ImF1dG8iIHZpZXdCb3g9IjAgMCAxNiAxMiIgcmVmWT0iNiIgcmVmWD0iMTYiIG1hcmtlckhlaWdodD0iMTIiIG1hcmtlcldpZHRoPSIxNiIgaWQ9IlN2Z2pzTWFya2VyMTUxOCI+PHBhdGggc3Ryb2tlLXdpZHRoPSIyIiBzdHJva2U9IiMzMjMyMzIiIGZpbGw9IiMzMjMyMzIiIGQ9Ik0wLDIgTDE0LDYgTDAsMTEgTDAsMiIgaWQ9IlN2Z2pzUGF0aDE1MTkiLz48L21hcmtlcj48bWFya2VyIHN0cm9rZS1kYXNoYXJyYXk9IjAsMCIgbWFya2VyVW5pdHM9InVzZXJTcGFjZU9uVXNlIiBvcmllbnQ9ImF1dG8iIHZpZXdCb3g9IjAgMCAxNiAxMiIgcmVmWT0iNiIgcmVmWD0iMTYiIG1hcmtlckhlaWdodD0iMTIiIG1hcmtlcldpZHRoPSIxNiIgaWQ9IlN2Z2pzTWFya2VyMTU0MiI+PHBhdGggc3Ryb2tlLXdpZHRoPSIyIiBzdHJva2U9IiMzMjMyMzIiIGZpbGw9IiMzMjMyMzIiIGQ9Ik0wLDIgTDE0LDYgTDAsMTEgTDAsMiIgaWQ9IlN2Z2pzUGF0aDE1NDMiLz48L21hcmtlcj48bWFya2VyIHN0cm9rZS1kYXNoYXJyYXk9IjAsMCIgbWFya2VyVW5pdHM9InVzZXJTcGFjZU9uVXNlIiBvcmllbnQ9ImF1dG8iIHZpZXdCb3g9IjAgMCAxNiAxMiIgcmVmWT0iNiIgcmVmWD0iMTYiIG1hcmtlckhlaWdodD0iMTIiIG1hcmtlcldpZHRoPSIxNiIgaWQ9IlN2Z2pzTWFya2VyMTU1MCI+PHBhdGggc3Ryb2tlLXdpZHRoPSIyIiBzdHJva2U9IiMzMjMyMzIiIGZpbGw9IiMzMjMyMzIiIGQ9Ik0wLDIgTDE0LDYgTDAsMTEgTDAsMiIgaWQ9IlN2Z2pzUGF0aDE1NTEiLz48L21hcmtlcj48bWFya2VyIHN0cm9rZS1kYXNoYXJyYXk9IjAsMCIgbWFya2VyVW5pdHM9InVzZXJTcGFjZU9uVXNlIiBvcmllbnQ9ImF1dG8iIHZpZXdCb3g9IjAgMCAxNiAxMiIgcmVmWT0iNiIgcmVmWD0iMTYiIG1hcmtlckhlaWdodD0iMTIiIG1hcmtlcldpZHRoPSIxNiIgaWQ9IlN2Z2pzTWFya2VyMTU2OCI+PHBhdGggc3Ryb2tlLXdpZHRoPSIyIiBzdHJva2U9IiMzMjMyMzIiIGZpbGw9IiMzMjMyMzIiIGQ9Ik0wLDIgTDE0LDYgTDAsMTEgTDAsMiIgaWQ9IlN2Z2pzUGF0aDE1NjkiLz48L21hcmtlcj48bWFya2VyIHN0cm9rZS1kYXNoYXJyYXk9IjAsMCIgbWFya2VyVW5pdHM9InVzZXJTcGFjZU9uVXNlIiBvcmllbnQ9ImF1dG8iIHZpZXdCb3g9IjAgMCAxNiAxMiIgcmVmWT0iNiIgcmVmWD0iMTYiIG1hcmtlckhlaWdodD0iMTIiIG1hcmtlcldpZHRoPSIxNiIgaWQ9IlN2Z2pzTWFya2VyMTU4MiI+PHBhdGggc3Ryb2tlLXdpZHRoPSIyIiBzdHJva2U9IiMzMjMyMzIiIGZpbGw9IiMzMjMyMzIiIGQ9Ik0wLDIgTDE0LDYgTDAsMTEgTDAsMiIgaWQ9IlN2Z2pzUGF0aDE1ODMiLz48L21hcmtlcj48bWFya2VyIHN0cm9rZS1kYXNoYXJyYXk9IjAsMCIgbWFya2VyVW5pdHM9InVzZXJTcGFjZU9uVXNlIiBvcmllbnQ9ImF1dG8iIHZpZXdCb3g9IjAgMCAxNiAxMiIgcmVmWT0iNiIgcmVmWD0iMTYiIG1hcmtlckhlaWdodD0iMTIiIG1hcmtlcldpZHRoPSIxNiIgaWQ9IlN2Z2pzTWFya2VyMTU4NiI+PHBhdGggc3Ryb2tlLXdpZHRoPSIyIiBzdHJva2U9IiMzMjMyMzIiIGZpbGw9IiMzMjMyMzIiIGQ9Ik0wLDIgTDE0LDYgTDAsMTEgTDAsMiIgaWQ9IlN2Z2pzUGF0aDE1ODciLz48L21hcmtlcj48bWFya2VyIHN0cm9rZS1kYXNoYXJyYXk9IjAsMCIgbWFya2VyVW5pdHM9InVzZXJTcGFjZU9uVXNlIiBvcmllbnQ9ImF1dG8iIHZpZXdCb3g9IjAgMCAxNiAxMiIgcmVmWT0iNiIgcmVmWD0iMTYiIG1hcmtlckhlaWdodD0iMTIiIG1hcmtlcldpZHRoPSIxNiIgaWQ9IlN2Z2pzTWFya2VyMTYwMCI+PHBhdGggc3Ryb2tlLXdpZHRoPSIyIiBzdHJva2U9IiMzMjMyMzIiIGZpbGw9IiMzMjMyMzIiIGQ9Ik0wLDIgTDE0LDYgTDAsMTEgTDAsMiIgaWQ9IlN2Z2pzUGF0aDE2MDEiLz48L21hcmtlcj48bWFya2VyIHN0cm9rZS1kYXNoYXJyYXk9IjAsMCIgbWFya2VyVW5pdHM9InVzZXJTcGFjZU9uVXNlIiBvcmllbnQ9ImF1dG8iIHZpZXdCb3g9IjAgMCAxNiAxMiIgcmVmWT0iNiIgcmVmWD0iMTYiIG1hcmtlckhlaWdodD0iMTIiIG1hcmtlcldpZHRoPSIxNiIgaWQ9IlN2Z2pzTWFya2VyMTYxNCI+PHBhdGggc3Ryb2tlLXdpZHRoPSIyIiBzdHJva2U9IiMzMjMyMzIiIGZpbGw9IiMzMjMyMzIiIGQ9Ik0wLDIgTDE0LDYgTDAsMTEgTDAsMiIgaWQ9IlN2Z2pzUGF0aDE2MTUiLz48L21hcmtlcj48bWFya2VyIHN0cm9rZS1kYXNoYXJyYXk9IjAsMCIgbWFya2VyVW5pdHM9InVzZXJTcGFjZU9uVXNlIiBvcmllbnQ9ImF1dG8iIHZpZXdCb3g9IjAgMCAxNiAxMiIgcmVmWT0iNiIgcmVmWD0iMTYiIG1hcmtlckhlaWdodD0iMTIiIG1hcmtlcldpZHRoPSIxNiIgaWQ9IlN2Z2pzTWFya2VyMTYyNCI+PHBhdGggc3Ryb2tlLXdpZHRoPSIyIiBzdHJva2U9IiMzMjMyMzIiIGZpbGw9IiMzMjMyMzIiIGQ9Ik0wLDIgTDE0LDYgTDAsMTEgTDAsMiIgaWQ9IlN2Z2pzUGF0aDE2MjUiLz48L21hcmtlcj48bWFya2VyIHN0cm9rZS1kYXNoYXJyYXk9IjAsMCIgbWFya2VyVW5pdHM9InVzZXJTcGFjZU9uVXNlIiBvcmllbnQ9ImF1dG8iIHZpZXdCb3g9IjAgMCAxNiAxMiIgcmVmWT0iNiIgcmVmWD0iMTYiIG1hcmtlckhlaWdodD0iMTIiIG1hcmtlcldpZHRoPSIxNiIgaWQ9IlN2Z2pzTWFya2VyMTYzOCI+PHBhdGggc3Ryb2tlLXdpZHRoPSIyIiBzdHJva2U9IiMzMjMyMzIiIGZpbGw9IiMzMjMyMzIiIGQ9Ik0wLDIgTDE0LDYgTDAsMTEgTDAsMiIgaWQ9IlN2Z2pzUGF0aDE2MzkiLz48L21hcmtlcj48bWFya2VyIHN0cm9rZS1kYXNoYXJyYXk9IjAsMCIgbWFya2VyVW5pdHM9InVzZXJTcGFjZU9uVXNlIiBvcmllbnQ9ImF1dG8iIHZpZXdCb3g9IjAgMCAxNiAxMiIgcmVmWT0iNiIgcmVmWD0iMTYiIG1hcmtlckhlaWdodD0iMTIiIG1hcmtlcldpZHRoPSIxNiIgaWQ9IlN2Z2pzTWFya2VyMTY1NCI+PHBhdGggc3Ryb2tlLXdpZHRoPSIyIiBzdHJva2U9IiMzMjMyMzIiIGZpbGw9IiMzMjMyMzIiIGQ9Ik0wLDIgTDE0LDYgTDAsMTEgTDAsMiIgaWQ9IlN2Z2pzUGF0aDE2NTUiLz48L21hcmtlcj48bWFya2VyIHN0cm9rZS1kYXNoYXJyYXk9IjAsMCIgbWFya2VyVW5pdHM9InVzZXJTcGFjZU9uVXNlIiBvcmllbnQ9ImF1dG8iIHZpZXdCb3g9IjAgMCAxNiAxMiIgcmVmWT0iNiIgcmVmWD0iMTYiIG1hcmtlckhlaWdodD0iMTIiIG1hcmtlcldpZHRoPSIxNiIgaWQ9IlN2Z2pzTWFya2VyMTY3OCI+PHBhdGggc3Ryb2tlLXdpZHRoPSIyIiBzdHJva2U9IiMzMjMyMzIiIGZpbGw9IiMzMjMyMzIiIGQ9Ik0wLDIgTDE0LDYgTDAsMTEgTDAsMiIgaWQ9IlN2Z2pzUGF0aDE2NzkiLz48L21hcmtlcj48bWFya2VyIHN0cm9rZS1kYXNoYXJyYXk9IjAsMCIgbWFya2VyVW5pdHM9InVzZXJTcGFjZU9uVXNlIiBvcmllbnQ9ImF1dG8iIHZpZXdCb3g9IjAgMCAxNiAxMiIgcmVmWT0iNiIgcmVmWD0iMTYiIG1hcmtlckhlaWdodD0iMTIiIG1hcmtlcldpZHRoPSIxNiIgaWQ9IlN2Z2pzTWFya2VyMTY4NiI+PHBhdGggc3Ryb2tlLXdpZHRoPSIyIiBzdHJva2U9IiMzMjMyMzIiIGZpbGw9IiMzMjMyMzIiIGQ9Ik0wLDIgTDE0LDYgTDAsMTEgTDAsMiIgaWQ9IlN2Z2pzUGF0aDE2ODciLz48L21hcmtlcj48bWFya2VyIHN0cm9rZS1kYXNoYXJyYXk9IjAsMCIgbWFya2VyVW5pdHM9InVzZXJTcGFjZU9uVXNlIiBvcmllbnQ9ImF1dG8iIHZpZXdCb3g9IjAgMCAxNiAxMiIgcmVmWT0iNiIgcmVmWD0iMTYiIG1hcmtlckhlaWdodD0iMTIiIG1hcmtlcldpZHRoPSIxNiIgaWQ9IlN2Z2pzTWFya2VyMTcwNCI+PHBhdGggc3Ryb2tlLXdpZHRoPSIyIiBzdHJva2U9IiMzMjMyMzIiIGZpbGw9IiMzMjMyMzIiIGQ9Ik0wLDIgTDE0LDYgTDAsMTEgTDAsMiIgaWQ9IlN2Z2pzUGF0aDE3MDUiLz48L21hcmtlcj48bWFya2VyIHN0cm9rZS1kYXNoYXJyYXk9IjAsMCIgbWFya2VyVW5pdHM9InVzZXJTcGFjZU9uVXNlIiBvcmllbnQ9ImF1dG8iIHZpZXdCb3g9IjAgMCAxNiAxMiIgcmVmWT0iNiIgcmVmWD0iMTYiIG1hcmtlckhlaWdodD0iMTIiIG1hcmtlcldpZHRoPSIxNiIgaWQ9IlN2Z2pzTWFya2VyMTcyNCI+PHBhdGggc3Ryb2tlLXdpZHRoPSIyIiBzdHJva2U9IiMzMjMyMzIiIGZpbGw9IiMzMjMyMzIiIGQ9Ik0wLDIgTDE0LDYgTDAsMTEgTDAsMiIgaWQ9IlN2Z2pzUGF0aDE3MjUiLz48L21hcmtlcj48bWFya2VyIHN0cm9rZS1kYXNoYXJyYXk9IjAsMCIgbWFya2VyVW5pdHM9InVzZXJTcGFjZU9uVXNlIiBvcmllbnQ9ImF1dG8iIHZpZXdCb3g9IjAgMCAxNiAxMiIgcmVmWT0iNiIgcmVmWD0iMTYiIG1hcmtlckhlaWdodD0iMTIiIG1hcmtlcldpZHRoPSIxNiIgaWQ9IlN2Z2pzTWFya2VyMTczMiI+PHBhdGggc3Ryb2tlLXdpZHRoPSIyIiBzdHJva2U9IiMzMjMyMzIiIGZpbGw9IiMzMjMyMzIiIGQ9Ik0wLDIgTDE0LDYgTDAsMTEgTDAsMiIgaWQ9IlN2Z2pzUGF0aDE3MzMiLz48L21hcmtlcj48bWFya2VyIHN0cm9rZS1kYXNoYXJyYXk9IjAsMCIgbWFya2VyVW5pdHM9InVzZXJTcGFjZU9uVXNlIiBvcmllbnQ9ImF1dG8iIHZpZXdCb3g9IjAgMCAxNiAxMiIgcmVmWT0iNiIgcmVmWD0iMTYiIG1hcmtlckhlaWdodD0iMTIiIG1hcmtlcldpZHRoPSIxNiIgaWQ9IlN2Z2pzTWFya2VyMTc1OSI+PHBhdGggc3Ryb2tlLXdpZHRoPSIyIiBzdHJva2U9IiMzMjMyMzIiIGZpbGw9IiMzMjMyMzIiIGQ9Ik0wLDIgTDE0LDYgTDAsMTEgTDAsMiIgaWQ9IlN2Z2pzUGF0aDE3NjAiLz48L21hcmtlcj48bWFya2VyIHN0cm9rZS1kYXNoYXJyYXk9IjAsMCIgbWFya2VyVW5pdHM9InVzZXJTcGFjZU9uVXNlIiBvcmllbnQ9ImF1dG8iIHZpZXdCb3g9IjAgMCAxNiAxMiIgcmVmWT0iNiIgcmVmWD0iMTYiIG1hcmtlckhlaWdodD0iMTIiIG1hcmtlcldpZHRoPSIxNiIgaWQ9IlN2Z2pzTWFya2VyMTc4MSI+PHBhdGggc3Ryb2tlLXdpZHRoPSIyIiBzdHJva2U9IiMzMjMyMzIiIGZpbGw9IiMzMjMyMzIiIGQ9Ik0wLDIgTDE0LDYgTDAsMTEgTDAsMiIgaWQ9IlN2Z2pzUGF0aDE3ODIiLz48L21hcmtlcj48bWFya2VyIHN0cm9rZS1kYXNoYXJyYXk9IjAsMCIgbWFya2VyVW5pdHM9InVzZXJTcGFjZU9uVXNlIiBvcmllbnQ9ImF1dG8iIHZpZXdCb3g9IjAgMCAxNiAxMiIgcmVmWT0iNiIgcmVmWD0iMTYiIG1hcmtlckhlaWdodD0iMTIiIG1hcmtlcldpZHRoPSIxNiIgaWQ9IlN2Z2pzTWFya2VyMTc5NSI+PHBhdGggc3Ryb2tlLXdpZHRoPSIyIiBzdHJva2U9IiMzMjMyMzIiIGZpbGw9IiMzMjMyMzIiIGQ9Ik0wLDIgTDE0LDYgTDAsMTEgTDAsMiIgaWQ9IlN2Z2pzUGF0aDE3OTYiLz48L21hcmtlcj48bWFya2VyIHN0cm9rZS1kYXNoYXJyYXk9IjAsMCIgbWFya2VyVW5pdHM9InVzZXJTcGFjZU9uVXNlIiBvcmllbnQ9ImF1dG8iIHZpZXdCb3g9IjAgMCAxNiAxMiIgcmVmWT0iNiIgcmVmWD0iMTYiIG1hcmtlckhlaWdodD0iMTIiIG1hcmtlcldpZHRoPSIxNiIgaWQ9IlN2Z2pzTWFya2VyMTgwOSI+PHBhdGggc3Ryb2tlLXdpZHRoPSIyIiBzdHJva2U9IiMzMjMyMzIiIGZpbGw9IiMzMjMyMzIiIGQ9Ik0wLDIgTDE0LDYgTDAsMTEgTDAsMiIgaWQ9IlN2Z2pzUGF0aDE4MTAiLz48L21hcmtlcj48bWFya2VyIHN0cm9rZS1kYXNoYXJyYXk9IjAsMCIgbWFya2VyVW5pdHM9InVzZXJTcGFjZU9uVXNlIiBvcmllbnQ9ImF1dG8iIHZpZXdCb3g9IjAgMCAxNiAxMiIgcmVmWT0iNiIgcmVmWD0iMTYiIG1hcmtlckhlaWdodD0iMTIiIG1hcmtlcldpZHRoPSIxNiIgaWQ9IlN2Z2pzTWFya2VyMTgxOSI+PHBhdGggc3Ryb2tlLXdpZHRoPSIyIiBzdHJva2U9IiMzMjMyMzIiIGZpbGw9IiMzMjMyMzIiIGQ9Ik0wLDIgTDE0LDYgTDAsMTEgTDAsMiIgaWQ9IlN2Z2pzUGF0aDE4MjAiLz48L21hcmtlcj48bWFya2VyIHN0cm9rZS1kYXNoYXJyYXk9IjAsMCIgbWFya2VyVW5pdHM9InVzZXJTcGFjZU9uVXNlIiBvcmllbnQ9ImF1dG8iIHZpZXdCb3g9IjAgMCAxNiAxMiIgcmVmWT0iNiIgcmVmWD0iMTYiIG1hcmtlckhlaWdodD0iMTIiIG1hcmtlcldpZHRoPSIxNiIgaWQ9IlN2Z2pzTWFya2VyMTgzMSI+PHBhdGggc3Ryb2tlLXdpZHRoPSIyIiBzdHJva2U9IiMzMjMyMzIiIGZpbGw9IiMzMjMyMzIiIGQ9Ik0wLDIgTDE0LDYgTDAsMTEgTDAsMiIgaWQ9IlN2Z2pzUGF0aDE4MzIiLz48L21hcmtlcj48bWFya2VyIHN0cm9rZS1kYXNoYXJyYXk9IjAsMCIgbWFya2VyVW5pdHM9InVzZXJTcGFjZU9uVXNlIiBvcmllbnQ9ImF1dG8iIHZpZXdCb3g9IjAgMCAxNiAxMiIgcmVmWT0iNiIgcmVmWD0iMTYiIG1hcmtlckhlaWdodD0iMTIiIG1hcmtlcldpZHRoPSIxNiIgaWQ9IlN2Z2pzTWFya2VyMTg0NSI+PHBhdGggc3Ryb2tlLXdpZHRoPSIyIiBzdHJva2U9IiMzMjMyMzIiIGZpbGw9IiMzMjMyMzIiIGQ9Ik0wLDIgTDE0LDYgTDAsMTEgTDAsMiIgaWQ9IlN2Z2pzUGF0aDE4NDYiLz48L21hcmtlcj48bWFya2VyIHN0cm9rZS1kYXNoYXJyYXk9IjAsMCIgbWFya2VyVW5pdHM9InVzZXJTcGFjZU9uVXNlIiBvcmllbnQ9ImF1dG8iIHZpZXdCb3g9IjAgMCAxNiAxMiIgcmVmWT0iNiIgcmVmWD0iMTYiIG1hcmtlckhlaWdodD0iMTIiIG1hcmtlcldpZHRoPSIxNiIgaWQ9IlN2Z2pzTWFya2VyMTg1NSI+PHBhdGggc3Ryb2tlLXdpZHRoPSIyIiBzdHJva2U9IiMzMjMyMzIiIGZpbGw9IiMzMjMyMzIiIGQ9Ik0wLDIgTDE0LDYgTDAsMTEgTDAsMiIgaWQ9IlN2Z2pzUGF0aDE4NTYiLz48L21hcmtlcj48bWFya2VyIHN0cm9rZS1kYXNoYXJyYXk9IjAsMCIgbWFya2VyVW5pdHM9InVzZXJTcGFjZU9uVXNlIiBvcmllbnQ9ImF1dG8iIHZpZXdCb3g9IjAgMCAxNiAxMiIgcmVmWT0iNiIgcmVmWD0iMTYiIG1hcmtlckhlaWdodD0iMTIiIG1hcmtlcldpZHRoPSIxNiIgaWQ9IlN2Z2pzTWFya2VyMTg2NSI+PHBhdGggc3Ryb2tlLXdpZHRoPSIyIiBzdHJva2U9IiMzMjMyMzIiIGZpbGw9IiMzMjMyMzIiIGQ9Ik0wLDIgTDE0LDYgTDAsMTEgTDAsMiIgaWQ9IlN2Z2pzUGF0aDE4NjYiLz48L21hcmtlcj48bWFya2VyIHN0cm9rZS1kYXNoYXJyYXk9IjAsMCIgbWFya2VyVW5pdHM9InVzZXJTcGFjZU9uVXNlIiBvcmllbnQ9ImF1dG8iIHZpZXdCb3g9IjAgMCAxNiAxMiIgcmVmWT0iNiIgcmVmWD0iMTYiIG1hcmtlckhlaWdodD0iMTIiIG1hcmtlcldpZHRoPSIxNiIgaWQ9IlN2Z2pzTWFya2VyMTg5NSI+PHBhdGggc3Ryb2tlLXdpZHRoPSIyIiBzdHJva2U9IiMzMjMyMzIiIGZpbGw9IiMzMjMyMzIiIGQ9Ik0wLDIgTDE0LDYgTDAsMTEgTDAsMiIgaWQ9IlN2Z2pzUGF0aDE4OTYiLz48L21hcmtlcj48bWFya2VyIHN0cm9rZS1kYXNoYXJyYXk9IjAsMCIgbWFya2VyVW5pdHM9InVzZXJTcGFjZU9uVXNlIiBvcmllbnQ9ImF1dG8iIHZpZXdCb3g9IjAgMCAxNiAxMiIgcmVmWT0iNiIgcmVmWD0iMTYiIG1hcmtlckhlaWdodD0iMTIiIG1hcmtlcldpZHRoPSIxNiIgaWQ9IlN2Z2pzTWFya2VyMTkwMyI+PHBhdGggc3Ryb2tlLXdpZHRoPSIyIiBzdHJva2U9IiMzMjMyMzIiIGZpbGw9IiMzMjMyMzIiIGQ9Ik0wLDIgTDE0LDYgTDAsMTEgTDAsMiIgaWQ9IlN2Z2pzUGF0aDE5MDQiLz48L21hcmtlcj48bWFya2VyIHN0cm9rZS1kYXNoYXJyYXk9IjAsMCIgbWFya2VyVW5pdHM9InVzZXJTcGFjZU9uVXNlIiBvcmllbnQ9ImF1dG8iIHZpZXdCb3g9IjAgMCAxNiAxMiIgcmVmWT0iNiIgcmVmWD0iMTYiIG1hcmtlckhlaWdodD0iMTIiIG1hcmtlcldpZHRoPSIxNiIgaWQ9IlN2Z2pzTWFya2VyMTkxNyI+PHBhdGggc3Ryb2tlLXdpZHRoPSIyIiBzdHJva2U9IiMzMjMyMzIiIGZpbGw9IiMzMjMyMzIiIGQ9Ik0wLDIgTDE0LDYgTDAsMTEgTDAsMiIgaWQ9IlN2Z2pzUGF0aDE5MTgiLz48L21hcmtlcj48bWFya2VyIHN0cm9rZS1kYXNoYXJyYXk9IjAsMCIgbWFya2VyVW5pdHM9InVzZXJTcGFjZU9uVXNlIiBvcmllbnQ9ImF1dG8iIHZpZXdCb3g9IjAgMCAxNiAxMiIgcmVmWT0iNiIgcmVmWD0iMTYiIG1hcmtlckhlaWdodD0iMTIiIG1hcmtlcldpZHRoPSIxNiIgaWQ9IlN2Z2pzTWFya2VyMTkyMSI+PHBhdGggc3Ryb2tlLXdpZHRoPSIyIiBzdHJva2U9IiMzMjMyMzIiIGZpbGw9IiMzMjMyMzIiIGQ9Ik0wLDIgTDE0LDYgTDAsMTEgTDAsMiIgaWQ9IlN2Z2pzUGF0aDE5MjIiLz48L21hcmtlcj48bWFya2VyIHN0cm9rZS1kYXNoYXJyYXk9IjAsMCIgbWFya2VyVW5pdHM9InVzZXJTcGFjZU9uVXNlIiBvcmllbnQ9ImF1dG8iIHZpZXdCb3g9IjAgMCAxNiAxMiIgcmVmWT0iNiIgcmVmWD0iMTYiIG1hcmtlckhlaWdodD0iMTIiIG1hcmtlcldpZHRoPSIxNiIgaWQ9IlN2Z2pzTWFya2VyMTk0MSI+PHBhdGggc3Ryb2tlLXdpZHRoPSIyIiBzdHJva2U9IiMzMjMyMzIiIGZpbGw9IiMzMjMyMzIiIGQ9Ik0wLDIgTDE0LDYgTDAsMTEgTDAsMiIgaWQ9IlN2Z2pzUGF0aDE5NDIiLz48L21hcmtlcj48bWFya2VyIHN0cm9rZS1kYXNoYXJyYXk9IjAsMCIgbWFya2VyVW5pdHM9InVzZXJTcGFjZU9uVXNlIiBvcmllbnQ9ImF1dG8iIHZpZXdCb3g9IjAgMCAxNiAxMiIgcmVmWT0iNiIgcmVmWD0iMTYiIG1hcmtlckhlaWdodD0iMTIiIG1hcmtlcldpZHRoPSIxNiIgaWQ9IlN2Z2pzTWFya2VyMTk0OSI+PHBhdGggc3Ryb2tlLXdpZHRoPSIyIiBzdHJva2U9IiMzMjMyMzIiIGZpbGw9IiMzMjMyMzIiIGQ9Ik0wLDIgTDE0LDYgTDAsMTEgTDAsMiIgaWQ9IlN2Z2pzUGF0aDE5NTAiLz48L21hcmtlcj48bWFya2VyIHN0cm9rZS1kYXNoYXJyYXk9IjAsMCIgbWFya2VyVW5pdHM9InVzZXJTcGFjZU9uVXNlIiBvcmllbnQ9ImF1dG8iIHZpZXdCb3g9IjAgMCAxNiAxMiIgcmVmWT0iNiIgcmVmWD0iMTYiIG1hcmtlckhlaWdodD0iMTIiIG1hcmtlcldpZHRoPSIxNiIgaWQ9IlN2Z2pzTWFya2VyMTk2MyI+PHBhdGggc3Ryb2tlLXdpZHRoPSIyIiBzdHJva2U9IiMzMjMyMzIiIGZpbGw9IiMzMjMyMzIiIGQ9Ik0wLDIgTDE0LDYgTDAsMTEgTDAsMiIgaWQ9IlN2Z2pzUGF0aDE5NjQiLz48L21hcmtlcj48bWFya2VyIHN0cm9rZS1kYXNoYXJyYXk9IjAsMCIgbWFya2VyVW5pdHM9InVzZXJTcGFjZU9uVXNlIiBvcmllbnQ9ImF1dG8iIHZpZXdCb3g9IjAgMCAxNiAxMiIgcmVmWT0iNiIgcmVmWD0iMTYiIG1hcmtlckhlaWdodD0iMTIiIG1hcmtlcldpZHRoPSIxNiIgaWQ9IlN2Z2pzTWFya2VyMTk2NyI+PHBhdGggc3Ryb2tlLXdpZHRoPSIyIiBzdHJva2U9IiMzMjMyMzIiIGZpbGw9IiMzMjMyMzIiIGQ9Ik0wLDIgTDE0LDYgTDAsMTEgTDAsMiIgaWQ9IlN2Z2pzUGF0aDE5NjgiLz48L21hcmtlcj48bWFya2VyIHN0cm9rZS1kYXNoYXJyYXk9IjAsMCIgbWFya2VyVW5pdHM9InVzZXJTcGFjZU9uVXNlIiBvcmllbnQ9ImF1dG8iIHZpZXdCb3g9IjAgMCAxNiAxMiIgcmVmWT0iNiIgcmVmWD0iMTYiIG1hcmtlckhlaWdodD0iMTIiIG1hcmtlcldpZHRoPSIxNiIgaWQ9IlN2Z2pzTWFya2VyMTk4MyI+PHBhdGggc3Ryb2tlLXdpZHRoPSIyIiBzdHJva2U9IiMzMjMyMzIiIGZpbGw9IiMzMjMyMzIiIGQ9Ik0wLDIgTDE0LDYgTDAsMTEgTDAsMiIgaWQ9IlN2Z2pzUGF0aDE5ODQiLz48L21hcmtlcj48bWFya2VyIHN0cm9rZS1kYXNoYXJyYXk9IjAsMCIgbWFya2VyVW5pdHM9InVzZXJTcGFjZU9uVXNlIiBvcmllbnQ9ImF1dG8iIHZpZXdCb3g9IjAgMCAxNiAxMiIgcmVmWT0iNiIgcmVmWD0iMTYiIG1hcmtlckhlaWdodD0iMTIiIG1hcmtlcldpZHRoPSIxNiIgaWQ9IlN2Z2pzTWFya2VyMTk5MSI+PHBhdGggc3Ryb2tlLXdpZHRoPSIyIiBzdHJva2U9IiMzMjMyMzIiIGZpbGw9IiMzMjMyMzIiIGQ9Ik0wLDIgTDE0LDYgTDAsMTEgTDAsMiIgaWQ9IlN2Z2pzUGF0aDE5OTIiLz48L21hcmtlcj48bWFya2VyIHN0cm9rZS1kYXNoYXJyYXk9IjAsMCIgbWFya2VyVW5pdHM9InVzZXJTcGFjZU9uVXNlIiBvcmllbnQ9ImF1dG8iIHZpZXdCb3g9IjAgMCAxNiAxMiIgcmVmWT0iNiIgcmVmWD0iMTYiIG1hcmtlckhlaWdodD0iMTIiIG1hcmtlcldpZHRoPSIxNiIgaWQ9IlN2Z2pzTWFya2VyMjAwNyI+PHBhdGggc3Ryb2tlLXdpZHRoPSIyIiBzdHJva2U9IiMzMjMyMzIiIGZpbGw9IiMzMjMyMzIiIGQ9Ik0wLDIgTDE0LDYgTDAsMTEgTDAsMiIgaWQ9IlN2Z2pzUGF0aDIwMDgiLz48L21hcmtlcj48bWFya2VyIHN0cm9rZS1kYXNoYXJyYXk9IjAsMCIgbWFya2VyVW5pdHM9InVzZXJTcGFjZU9uVXNlIiBvcmllbnQ9ImF1dG8iIHZpZXdCb3g9IjAgMCAxNiAxMiIgcmVmWT0iNiIgcmVmWD0iMTYiIG1hcmtlckhlaWdodD0iMTIiIG1hcmtlcldpZHRoPSIxNiIgaWQ9IlN2Z2pzTWFya2VyMjAxNSI+PHBhdGggc3Ryb2tlLXdpZHRoPSIyIiBzdHJva2U9IiMzMjMyMzIiIGZpbGw9IiMzMjMyMzIiIGQ9Ik0wLDIgTDE0LDYgTDAsMTEgTDAsMiIgaWQ9IlN2Z2pzUGF0aDIwMTYiLz48L21hcmtlcj48L2RlZnM+PGcgdHJhbnNmb3JtPSJ0cmFuc2xhdGUoMzI1OSw2ODkpIiBpZD0iU3ZnanNHMTAwOCI+PHBhdGggZmlsbD0iI2U1ZTVlNSIgZmlsbC1vcGFjaXR5PSIxIiBzdHJva2Utd2lkdGg9IjIiIHN0cm9rZT0icmdiYSg1MCw1MCw1MCwxKSIgZD0iTSAwIDBMIDE0MjIgMEwgMTQyMiAzODlMIDAgMzg5WiIgaWQ9IlN2Z2pzUGF0aDEwMDkiLz48ZyBpZD0iU3ZnanNHMTAxMCI+PHRleHQgdHJhbnNmb3JtPSJyb3RhdGUoMCkiIHk9IjE4NC41NSIgb3BhY2l0eT0iMSIgZm9udC1zdHlsZT0iIiBzaXplPSIxM3B4IiBhbGlnbj0ibWlkZGxlIiBmb250LXdlaWdodD0iNDAwIiBmaWxsPSIjMzIzMjMyIiB3aWR0aD0iMTQwMnB4IiBmb250LXNpemU9IjEzcHgiIHRleHQtYW5jaG9yPSJtaWRkbGUiIGZvbnQtZmFtaWx5PSLlvq7ova/pm4Xpu5EiIGlkPSJTdmdqc1RleHQxMDExIi8+PC9nPjwvZz48ZyB0cmFuc2Zvcm09InRyYW5zbGF0ZSg3NDMsMzYpIiBpZD0iU3ZnanNHMTAxMiI+PHBhdGggZmlsbD0iI2ZmZmZmZiIgZmlsbC1vcGFjaXR5PSIxIiBzdHJva2Utd2lkdGg9IjIiIHN0cm9rZT0icmdiYSg1MCw1MCw1MCwxKSIgZD0iTSAwIDBMIDQwNCAwTCA0MDQgODBMIDAgODBaIiBpZD0iU3ZnanNQYXRoMTAxMyIvPjxnIGlkPSJTdmdqc0cxMDE0Ij48dGV4dCB0cmFuc2Zvcm09InJvdGF0ZSgwKSIgeT0iMzAuMDUiIG9wYWNpdHk9IjEiIGZvbnQtc3R5bGU9IiIgc2l6ZT0iMTNweCIgYWxpZ249Im1pZGRsZSIgZm9udC13ZWlnaHQ9IjQwMCIgZmlsbD0iIzMyMzIzMiIgd2lkdGg9IjM4NHB4IiBmb250LXNpemU9IjEzcHgiIHRleHQtYW5jaG9yPSJtaWRkbGUiIGZvbnQtZmFtaWx5PSLlvq7ova/pm4Xpu5EiIGlkPSJTdmdqc1RleHQxMDE1Ij48dHNwYW4geD0iMjAyIiBkeT0iMTYiIGlkPSJTdmdqc1RzcGFuMTAxNiI+PHRzcGFuIHN0eWxlPSJ0ZXh0LWRlY29yYXRpb246OyIgaWQ9IlN2Z2pzVHNwYW4xMDE3Ij5BY2NvdW50SG9sZF9vcmRlcjwvdHNwYW4+PC90c3Bhbj48L3RleHQ+PC9nPjwvZz48ZyB0cmFuc2Zvcm09InRyYW5zbGF0ZSg3NjcsMjc3KSIgaWQ9IlN2Z2pzRzEwMTgiPjxwYXRoIGZpbGw9IiNmZmZmZmYiIGZpbGwtb3BhY2l0eT0iMSIgc3Ryb2tlLXdpZHRoPSIyIiBzdHJva2U9InJnYmEoNTAsNTAsNTAsMSkiIGQ9Ik0gMCAwTCA0MDQgMEwgNDA0IDgwTCAwIDgwWiIgaWQ9IlN2Z2pzUGF0aDEwMTkiLz48ZyBpZD0iU3ZnanNHMTAyMCI+PHRleHQgdHJhbnNmb3JtPSJyb3RhdGUoMCkiIHk9IjMwLjA1IiBvcGFjaXR5PSIxIiBmb250LXN0eWxlPSIiIHNpemU9IjEzcHgiIGFsaWduPSJtaWRkbGUiIGZvbnQtd2VpZ2h0PSI0MDAiIGZpbGw9IiMzMjMyMzIiIHdpZHRoPSIzODRweCIgZm9udC1zaXplPSIxM3B4IiB0ZXh0LWFuY2hvcj0ibWlkZGxlIiBmb250LWZhbWlseT0i5b6u6L2v6ZuF6buRIiBpZD0iU3ZnanNUZXh0MTAyMSI+PHRzcGFuIHg9IjIwMiIgZHk9IjE2IiBpZD0iU3ZnanNUc3BhbjEwMjIiPjx0c3BhbiBzdHlsZT0idGV4dC1kZWNvcmF0aW9uOjsiIGlkPSJTdmdqc1RzcGFuMTAyMyI+QWNjb3VudEhvbGTvvJpwb3NpdGlvbjwvdHNwYW4+PC90c3Bhbj48L3RleHQ+PC9nPjwvZz48ZyB0cmFuc2Zvcm09InRyYW5zbGF0ZSg3NjcsNTUpIiBpZD0iU3ZnanNHMTAyNCI+PHBhdGggZmlsbD0iI2ZmZmZmZiIgZmlsbC1vcGFjaXR5PSIxIiBzdHJva2Utd2lkdGg9IjIiIHN0cm9rZT0icmdiYSg1MCw1MCw1MCwxKSIgZD0iTSAwIDBMIDQwNCAwTCA0MDQgODBMIDAgODBaIiBpZD0iU3ZnanNQYXRoMTAyNSIvPjxnIGlkPSJTdmdqc0cxMDI2Ij48dGV4dCB0cmFuc2Zvcm09InJvdGF0ZSgwKSIgeT0iMzAuMDUiIG9wYWNpdHk9IjEiIGZvbnQtc3R5bGU9IiIgc2l6ZT0iMTNweCIgYWxpZ249Im1pZGRsZSIgZm9udC13ZWlnaHQ9IjQwMCIgZmlsbD0iIzMyMzIzMiIgd2lkdGg9IjM4NHB4IiBmb250LXNpemU9IjEzcHgiIHRleHQtYW5jaG9yPSJtaWRkbGUiIGZvbnQtZmFtaWx5PSLlvq7ova/pm4Xpu5EiIGlkPSJTdmdqc1RleHQxMDI3Ij48dHNwYW4geD0iMjAyIiBkeT0iMTYiIGlkPSJTdmdqc1RzcGFuMTAyOCI+PHRzcGFuIHN0eWxlPSJ0ZXh0LWRlY29yYXRpb246OyIgaWQ9IlN2Z2pzVHNwYW4xMDI5Ij5BY2NvdW50SG9sZF9vcmRlcjwvdHNwYW4+PC90c3Bhbj48L3RleHQ+PC9nPjwvZz48ZyB0cmFuc2Zvcm09InRyYW5zbGF0ZSg3ODMsNzUpIiBpZD0iU3ZnanNHMTAzMCI+PHBhdGggZmlsbD0iI2ZmZmZmZiIgZmlsbC1vcGFjaXR5PSIxIiBzdHJva2Utd2lkdGg9IjIiIHN0cm9rZT0icmdiYSg1MCw1MCw1MCwxKSIgZD0iTSAwIDBMIDQwNCAwTCA0MDQgODBMIDAgODBaIiBpZD0iU3ZnanNQYXRoMTAzMSIvPjxnIGlkPSJTdmdqc0cxMDMyIj48dGV4dCB0cmFuc2Zvcm09InJvdGF0ZSgwKSIgeT0iMzAuMDUiIG9wYWNpdHk9IjEiIGZvbnQtc3R5bGU9IiIgc2l6ZT0iMTNweCIgYWxpZ249Im1pZGRsZSIgZm9udC13ZWlnaHQ9IjQwMCIgZmlsbD0iIzMyMzIzMiIgd2lkdGg9IjM4NHB4IiBmb250LXNpemU9IjEzcHgiIHRleHQtYW5jaG9yPSJtaWRkbGUiIGZvbnQtZmFtaWx5PSLlvq7ova/pm4Xpu5EiIGlkPSJTdmdqc1RleHQxMDMzIj48dHNwYW4geD0iMjAyIiBkeT0iMTYiIGlkPSJTdmdqc1RzcGFuMTAzNCI+PHRzcGFuIHN0eWxlPSJ0ZXh0LWRlY29yYXRpb246OyIgaWQ9IlN2Z2pzVHNwYW4xMDM1Ij5BY2NvdW50SG9sZF9vcmRlcjwvdHNwYW4+PC90c3Bhbj48L3RleHQ+PC9nPjwvZz48ZyB0cmFuc2Zvcm09InRyYW5zbGF0ZSg4MDMsOTUpIiBpZD0iU3ZnanNHMTAzNiI+PHBhdGggZmlsbD0iI2ZmZmZmZiIgZmlsbC1vcGFjaXR5PSIxIiBzdHJva2Utd2lkdGg9IjIiIHN0cm9rZT0icmdiYSg1MCw1MCw1MCwxKSIgZD0iTSAwIDBMIDQwNCAwTCA0MDQgODBMIDAgODBaIiBpZD0iU3ZnanNQYXRoMTAzNyIvPjxnIGlkPSJTdmdqc0cxMDM4Ij48dGV4dCB0cmFuc2Zvcm09InJvdGF0ZSgwKSIgeT0iMzAuMDUiIG9wYWNpdHk9IjEiIGZvbnQtc3R5bGU9IiIgc2l6ZT0iMTNweCIgYWxpZ249Im1pZGRsZSIgZm9udC13ZWlnaHQ9IjQwMCIgZmlsbD0iIzMyMzIzMiIgd2lkdGg9IjM4NHB4IiBmb250LXNpemU9IjEzcHgiIHRleHQtYW5jaG9yPSJtaWRkbGUiIGZvbnQtZmFtaWx5PSLlvq7ova/pm4Xpu5EiIGlkPSJTdmdqc1RleHQxMDM5Ij48dHNwYW4geD0iMjAyIiBkeT0iMTYiIGlkPSJTdmdqc1RzcGFuMTA0MCI+PHRzcGFuIHN0eWxlPSJ0ZXh0LWRlY29yYXRpb246OyIgaWQ9IlN2Z2pzVHNwYW4xMDQxIj5BY2NvdW50SG9sZO+8mm9yZGVyPC90c3Bhbj48L3RzcGFuPjwvdGV4dD48L2c+PC9nPjxnIHRyYW5zZm9ybT0idHJhbnNsYXRlKDE0NDAuNSwyNSkiIGlkPSJTdmdqc0cxMDQyIj48cGF0aCBmaWxsPSIjZmZmZmZmIiBmaWxsLW9wYWNpdHk9IjEiIHN0cm9rZS13aWR0aD0iMiIgc3Ryb2tlPSJyZ2JhKDUwLDUwLDUwLDEpIiBkPSJNIDAgMEwgNDc1IDBMIDQ3NSAxOTVMIDAgMTk1WiIgaWQ9IlN2Z2pzUGF0aDEwNDMiLz48ZyBpZD0iU3ZnanNHMTA0NCI+PHRleHQgdHJhbnNmb3JtPSJyb3RhdGUoMCkiIHk9Ijg3LjU1IiBvcGFjaXR5PSIxIiBmb250LXN0eWxlPSIiIHNpemU9IjEzcHgiIGFsaWduPSJtaWRkbGUiIGZvbnQtd2VpZ2h0PSI0MDAiIGZpbGw9IiMzMjMyMzIiIHdpZHRoPSI0NTVweCIgZm9udC1zaXplPSIxM3B4IiB0ZXh0LWFuY2hvcj0ibWlkZGxlIiBmb250LWZhbWlseT0i5b6u6L2v6ZuF6buRIiBpZD0iU3ZnanNUZXh0MTA0NSI+PHRzcGFuIHg9IjIzNy41IiBkeT0iMTYiIGlkPSJTdmdqc1RzcGFuMTA0NiI+PHRzcGFuIHN0eWxlPSJ0ZXh0LWRlY29yYXRpb246OyIgaWQ9IlN2Z2pzVHNwYW4xMDQ3Ij5BY2NvdW50SG9sZO+8mm9yZGVyPC90c3Bhbj48L3RzcGFuPjwvdGV4dD48L2c+PC9nPjxnIHRyYW5zZm9ybT0idHJhbnNsYXRlKDE0ODIuNSwxNDIpIiBpZD0iU3ZnanNHMTA0OCI+PHBhdGggZmlsbD0iI2ZmZmZmZiIgZmlsbC1vcGFjaXR5PSIxIiBzdHJva2Utd2lkdGg9IjIiIHN0cm9rZT0icmdiYSg1MCw1MCw1MCwxKSIgZD0iTSAwIDBMIDMwMyAwTCAzMDMgODBMIDAgODBaIiBpZD0iU3ZnanNQYXRoMTA0OSIvPjxnIGlkPSJTdmdqc0cxMDUwIj48dGV4dCB0cmFuc2Zvcm09InJvdGF0ZSgwKSIgeT0iMjIuMDUiIG9wYWNpdHk9IjEiIGZvbnQtc3R5bGU9IiIgc2l6ZT0iMTNweCIgYWxpZ249Im1pZGRsZSIgZm9udC13ZWlnaHQ9IjQwMCIgZmlsbD0iIzMyMzIzMiIgd2lkdGg9IjI4M3B4IiBmb250LXNpemU9IjEzcHgiIHRleHQtYW5jaG9yPSJtaWRkbGUiIGZvbnQtZmFtaWx5PSLlvq7ova/pm4Xpu5EiIGlkPSJTdmdqc1RleHQxMDUxIj48dHNwYW4geD0iMTUxLjUiIGR5PSIxNiIgaWQ9IlN2Z2pzVHNwYW4xMDUyIj48dHNwYW4gc3R5bGU9InRleHQtZGVjb3JhdGlvbjo7IiBpZD0iU3ZnanNUc3BhbjEwNTMiPmhvbGRJZD1vd25lcklkK3N5bWJvbCs8L3RzcGFuPjwvdHNwYW4+PHRzcGFuIHg9IjE1MS41IiBkeT0iMTYiIGlkPSJTdmdqc1RzcGFuMTA1NCI+PHRzcGFuIHN0eWxlPSJ0ZXh0LWRlY29yYXRpb246OyIgaWQ9IlN2Z2pzVHNwYW4xMDU1Ij4oYml6VHlwZTpwb3NpdGlvbi4vb3JkZXIpPC90c3Bhbj48L3RzcGFuPjwvdGV4dD48L2c+PC9nPjxnIHRyYW5zZm9ybT0idHJhbnNsYXRlKDE0NDAuNSwzMDkpIiBpZD0iU3ZnanNHMTA1NiI+PHBhdGggZmlsbD0iI2ZmZmZmZiIgZmlsbC1vcGFjaXR5PSIxIiBzdHJva2Utd2lkdGg9IjIiIHN0cm9rZT0icmdiYSg1MCw1MCw1MCwxKSIgZD0iTSAwIDBMIDQ3NSAwTCA0NzUgMTk1TCAwIDE5NVoiIGlkPSJTdmdqc1BhdGgxMDU3Ii8+PGcgaWQ9IlN2Z2pzRzEwNTgiPjx0ZXh0IHRyYW5zZm9ybT0icm90YXRlKDApIiB5PSI4Ny41NSIgb3BhY2l0eT0iMSIgZm9udC1zdHlsZT0iIiBzaXplPSIxM3B4IiBhbGlnbj0ibWlkZGxlIiBmb250LXdlaWdodD0iNDAwIiBmaWxsPSIjMzIzMjMyIiB3aWR0aD0iNDU1cHgiIGZvbnQtc2l6ZT0iMTNweCIgdGV4dC1hbmNob3I9Im1pZGRsZSIgZm9udC1mYW1pbHk9IuW+rui9r+mbhem7kSIgaWQ9IlN2Z2pzVGV4dDEwNTkiPjx0c3BhbiB4PSIyMzcuNSIgZHk9IjE2IiBpZD0iU3ZnanNUc3BhbjEwNjAiPjx0c3BhbiBzdHlsZT0idGV4dC1kZWNvcmF0aW9uOjsiIGlkPSJTdmdqc1RzcGFuMTA2MSI+QWNjb3VudEhvbGTvvJpvcmRlcjwvdHNwYW4+PC90c3Bhbj48L3RleHQ+PC9nPjwvZz48ZyB0cmFuc2Zvcm09InRyYW5zbGF0ZSgxNDgyLjUsNDI3KSIgaWQ9IlN2Z2pzRzEwNjIiPjxwYXRoIGZpbGw9IiNmZmZmZmYiIGZpbGwtb3BhY2l0eT0iMSIgc3Ryb2tlLXdpZHRoPSIyIiBzdHJva2U9InJnYmEoNTAsNTAsNTAsMSkiIGQ9Ik0gMCAwTCAzMDMgMEwgMzAzIDgwTCAwIDgwWiIgaWQ9IlN2Z2pzUGF0aDEwNjMiLz48ZyBpZD0iU3ZnanNHMTA2NCI+PHRleHQgdHJhbnNmb3JtPSJyb3RhdGUoMCkiIHk9IjMwLjA1IiBvcGFjaXR5PSIxIiBmb250LXN0eWxlPSIiIHNpemU9IjEzcHgiIGFsaWduPSJtaWRkbGUiIGZvbnQtd2VpZ2h0PSI0MDAiIGZpbGw9IiMzMjMyMzIiIHdpZHRoPSIyODNweCIgZm9udC1zaXplPSIxM3B4IiB0ZXh0LWFuY2hvcj0ibWlkZGxlIiBmb250LWZhbWlseT0i5b6u6L2v6ZuF6buRIiBpZD0iU3ZnanNUZXh0MTA2NSI+PHRzcGFuIHg9IjE1MS41IiBkeT0iMTYiIGlkPSJTdmdqc1RzcGFuMTA2NiI+PHRzcGFuIHN0eWxlPSJ0ZXh0LWRlY29yYXRpb246OyIgaWQ9IlN2Z2pzVHNwYW4xMDY3Ij5vd25lcklkK3N5bWJvbCsoYml6VHlwZTpwb3NpdGlvbi4vb3JkZXIpPC90c3Bhbj48L3RzcGFuPjwvdGV4dD48L2c+PC9nPjxnIHRyYW5zZm9ybT0idHJhbnNsYXRlKDE4MTAsNDMyKSIgaWQ9IlN2Z2pzRzEwNjgiPjxwYXRoIGZpbGw9IiNmZmZmZmYiIGZpbGwtb3BhY2l0eT0iMSIgc3Ryb2tlLXdpZHRoPSIyIiBzdHJva2U9InJnYmEoNTAsNTAsNTAsMSkiIGQ9Ik0gMCAwTCAxMDAgMEwgMTAwIDcwTCAwIDcwWiIgaWQ9IlN2Z2pzUGF0aDEwNjkiLz48ZyBpZD0iU3ZnanNHMTA3MCI+PHRleHQgdHJhbnNmb3JtPSJyb3RhdGUoMCkiIHk9IjI1LjA1IiBvcGFjaXR5PSIxIiBmb250LXN0eWxlPSIiIHNpemU9IjEzcHgiIGFsaWduPSJtaWRkbGUiIGZvbnQtd2VpZ2h0PSI0MDAiIGZpbGw9IiMzMjMyMzIiIHdpZHRoPSI4MHB4IiBmb250LXNpemU9IjEzcHgiIHRleHQtYW5jaG9yPSJtaWRkbGUiIGZvbnQtZmFtaWx5PSLlvq7ova/pm4Xpu5EiIGlkPSJTdmdqc1RleHQxMDcxIj48dHNwYW4geD0iNTAiIGR5PSIxNiIgaWQ9IlN2Z2pzVHNwYW4xMDcyIj48dHNwYW4gc3R5bGU9InRleHQtZGVjb3JhdGlvbjo7IiBpZD0iU3ZnanNUc3BhbjEwNzMiPm9yZGVySWQ8L3RzcGFuPjwvdHNwYW4+PC90ZXh0PjwvZz48L2c+PGcgdHJhbnNmb3JtPSJ0cmFuc2xhdGUoMjE4LjUsNTExKSIgaWQ9IlN2Z2pzRzEwNzQiPjxwYXRoIGZpbGw9IiNmZmZmYWEiIGZpbGwtb3BhY2l0eT0iMSIgc3Ryb2tlPSJub25lIiBkPSJNIDAgMEwgNTI1IDBMIDU0MSAxNkwgNTQxIDk4TCAwIDk4TCAwIDBaIiBpZD0iU3ZnanNQYXRoMTA3NSIvPjxwYXRoIGZpbGw9IiNjZGNkY2QiIGZpbGwtb3BhY2l0eT0iMSIgc3Ryb2tlPSJub25lIiBkPSJNIDUyNSAwTCA1MjUgMTZMIDU0MSAxNloiIGlkPSJTdmdqc1BhdGgxMDc2Ii8+PHBhdGggZmlsbD0ibm9uZSIgc3Ryb2tlPSJub25lIiBkPSJNIDAgMEwgNTI1IDBMIDU0MSAxNkwgNTQxIDk4TCAwIDk4TCAwIDBaIiBpZD0iU3ZnanNQYXRoMTA3NyIvPjxnIGlkPSJTdmdqc0cxMDc4Ij48dGV4dCB0cmFuc2Zvcm09InJvdGF0ZSgwKSIgeT0iMTUuMDUiIG9wYWNpdHk9IjEiIGZvbnQtc3R5bGU9IiIgc2l6ZT0iMTNweCIgYWxpZ249Im1pZGRsZSIgZm9udC13ZWlnaHQ9IjQwMCIgZmlsbD0iIzMyMzIzMiIgd2lkdGg9IjUyMXB4IiBmb250LXNpemU9IjEzcHgiIHRleHQtYW5jaG9yPSJtaWRkbGUiIGZvbnQtZmFtaWx5PSLlvq7ova/pm4Xpu5EiIGlkPSJTdmdqc1RleHQxMDc5Ij48dHNwYW4geD0iMjcwLjUiIGR5PSIxNiIgaWQ9IlN2Z2pzVHNwYW4xMDgwIj48dHNwYW4gc3R5bGU9InRleHQtZGVjb3JhdGlvbjo7IiBpZD0iU3ZnanNUc3BhbjEwODEiPuaUuemAoOWFs+azqOeCue+8mjEu5Lqk5piT77yaIOS4i+WNle+8jOaSpOWNle+8jOW5s+S7k++8iOaJi+WKqO+8iTwvdHNwYW4+PC90c3Bhbj48dHNwYW4geD0iMjcwLjUiIGR5PSIxNiIgaWQ9IlN2Z2pzVHNwYW4xMDgyIj48dHNwYW4gc3R5bGU9InRleHQtZGVjb3JhdGlvbjo7IiBpZD0iU3ZnanNUc3BhbjEwODMiPjIu5LuT5L2N77yaIOaIkOS7k++8jOi/veWKoOS7k+S9jeS/neivgemHkTwvdHNwYW4+PC90c3Bhbj48dHNwYW4geD0iMjcwLjUiIGR5PSIxNiIgaWQ9IlN2Z2pzVHNwYW4xMDg0Ij48dHNwYW4gc3R5bGU9InRleHQtZGVjb3JhdGlvbjo7IiBpZD0iU3ZnanNUc3BhbjEwODUiPjMuIHdlYi1mcm9udO+8mmFjY291bnQg5p+l6K+i5Lia5Yqh77yI5aeU5omY5L+d6K+B6YeR77yJPC90c3Bhbj48L3RzcGFuPjwvdGV4dD48L2c+PC9nPjxnIHRyYW5zZm9ybT0idHJhbnNsYXRlKDIwNywzNikiIGlkPSJTdmdqc0cxMDg2Ij48cGF0aCBmaWxsPSIjZmZmZmZmIiBmaWxsLW9wYWNpdHk9IjEiIHN0cm9rZS13aWR0aD0iMiIgc3Ryb2tlPSJyZ2JhKDUwLDUwLDUwLDEpIiBkPSJNIDAgMEwgNDA0IDBMIDQwNCA4MEwgMCA4MFoiIGlkPSJTdmdqc1BhdGgxMDg3Ii8+PGcgaWQ9IlN2Z2pzRzEwODgiPjx0ZXh0IHRyYW5zZm9ybT0icm90YXRlKDApIiB5PSIzMC4wNSIgb3BhY2l0eT0iMSIgZm9udC1zdHlsZT0iIiBzaXplPSIxM3B4IiBhbGlnbj0ibWlkZGxlIiBmb250LXdlaWdodD0iNDAwIiBmaWxsPSIjMzIzMjMyIiB3aWR0aD0iMzg0cHgiIGZvbnQtc2l6ZT0iMTNweCIgdGV4dC1hbmNob3I9Im1pZGRsZSIgZm9udC1mYW1pbHk9IuW+rui9r+mbhem7kSIgaWQ9IlN2Z2pzVGV4dDEwODkiPjx0c3BhbiB4PSIyMDIiIGR5PSIxNiIgaWQ9IlN2Z2pzVHNwYW4xMDkwIj48dHNwYW4gc3R5bGU9InRleHQtZGVjb3JhdGlvbjo7IiBpZD0iU3ZnanNUc3BhbjEwOTEiPkFjY291bnRIb2xk77yab3JkZXI8L3RzcGFuPjwvdHNwYW4+PC90ZXh0PjwvZz48L2c+PGcgdHJhbnNmb3JtPSJ0cmFuc2xhdGUoMjA3LDI3NykiIGlkPSJTdmdqc0cxMDkyIj48cGF0aCBmaWxsPSIjZmZmZmZmIiBmaWxsLW9wYWNpdHk9IjEiIHN0cm9rZS13aWR0aD0iMiIgc3Ryb2tlPSJyZ2JhKDUwLDUwLDUwLDEpIiBkPSJNIDAgMEwgNDA0IDBMIDQwNCA4MEwgMCA4MFoiIGlkPSJTdmdqc1BhdGgxMDkzIi8+PGcgaWQ9IlN2Z2pzRzEwOTQiPjx0ZXh0IHRyYW5zZm9ybT0icm90YXRlKDApIiB5PSIzMC4wNSIgb3BhY2l0eT0iMSIgZm9udC1zdHlsZT0iIiBzaXplPSIxM3B4IiBhbGlnbj0ibWlkZGxlIiBmb250LXdlaWdodD0iNDAwIiBmaWxsPSIjMzIzMjMyIiB3aWR0aD0iMzg0cHgiIGZvbnQtc2l6ZT0iMTNweCIgdGV4dC1hbmNob3I9Im1pZGRsZSIgZm9udC1mYW1pbHk9IuW+rui9r+mbhem7kSIgaWQ9IlN2Z2pzVGV4dDEwOTUiPjx0c3BhbiB4PSIyMDIiIGR5PSIxNiIgaWQ9IlN2Z2pzVHNwYW4xMDk2Ij48dHNwYW4gc3R5bGU9InRleHQtZGVjb3JhdGlvbjo7IiBpZD0iU3ZnanNUc3BhbjEwOTciPkFjY291bnRIb2xk77yacG9zaXRpb248L3RzcGFuPjwvdHNwYW4+PC90ZXh0PjwvZz48L2c+PGcgdHJhbnNmb3JtPSJ0cmFuc2xhdGUoMzc3LjUsMTQ4KSIgaWQ9IlN2Z2pzRzEwOTgiPjxwYXRoIGZpbGw9IiNmZmZmZmYiIGZpbGwtb3BhY2l0eT0iMSIgc3Ryb2tlLXdpZHRoPSIyIiBzdHJva2U9InJnYmEoNTAsNTAsNTAsMSkiIGQ9Ik0gMjAuNzkwMDAwMDAwMDAwMDAzIDBMIDQyLjIxIDBMIDQyLjIxIDU4LjVMIDYzIDU4LjVMIDMxLjUgOTBMIDAgNTguNUwgMjAuNzkwMDAwMDAwMDAwMDAzIDU4LjVMIDIwLjc5MDAwMDAwMDAwMDAwMyAwWiIgaWQ9IlN2Z2pzUGF0aDEwOTkiLz48ZyBpZD0iU3ZnanNHMTEwMCI+PHRleHQgdHJhbnNmb3JtPSJyb3RhdGUoMCkiIHk9IjMwLjU1IiBvcGFjaXR5PSIxIiBmb250LXN0eWxlPSIiIHNpemU9IjEzcHgiIGFsaWduPSJtaWRkbGUiIGZvbnQtd2VpZ2h0PSI0MDAiIGZpbGw9IiMzMjMyMzIiIHdpZHRoPSI4OXB4IiBmb250LXNpemU9IjEzcHgiIHRleHQtYW5jaG9yPSJtaWRkbGUiIGZvbnQtZmFtaWx5PSLlvq7ova/pm4Xpu5EiIGlkPSJTdmdqc1RleHQxMTAxIj48dHNwYW4geD0iMzEuOSIgZHk9IjE2IiBpZD0iU3ZnanNUc3BhbjExMDIiPjx0c3BhbiBzdHlsZT0idGV4dC1kZWNvcmF0aW9uOjsiIGlkPSJTdmdqc1RzcGFuMTEwMyI+SE9MRF9NT1ZFPC90c3Bhbj48L3RzcGFuPjwvdGV4dD48L2c+PC9nPjxnIHRyYW5zZm9ybT0idHJhbnNsYXRlKDk1My41LDE4NikiIGlkPSJTdmdqc0cxMTA0Ij48cGF0aCBmaWxsPSIjZmZmZmZmIiBmaWxsLW9wYWNpdHk9IjEiIHN0cm9rZS13aWR0aD0iMiIgc3Ryb2tlPSJyZ2JhKDUwLDUwLDUwLDEpIiBkPSJNIDIwLjc5MDAwMDAwMDAwMDAwMyAwTCA0Mi4yMSAwTCA0Mi4yMSA1OC41TCA2MyA1OC41TCAzMS41IDkwTCAwIDU4LjVMIDIwLjc5MDAwMDAwMDAwMDAwMyA1OC41TCAyMC43OTAwMDAwMDAwMDAwMDMgMFoiIGlkPSJTdmdqc1BhdGgxMTA1Ii8+PGcgaWQ9IlN2Z2pzRzExMDYiPjx0ZXh0IHRyYW5zZm9ybT0icm90YXRlKDApIiB5PSIzMC41NSIgb3BhY2l0eT0iMSIgZm9udC1zdHlsZT0iIiBzaXplPSIxM3B4IiBhbGlnbj0ibWlkZGxlIiBmb250LXdlaWdodD0iNDAwIiBmaWxsPSIjMzIzMjMyIiB3aWR0aD0iODlweCIgZm9udC1zaXplPSIxM3B4IiB0ZXh0LWFuY2hvcj0ibWlkZGxlIiBmb250LWZhbWlseT0i5b6u6L2v6ZuF6buRIiBpZD0iU3ZnanNUZXh0MTEwNyI+PHRzcGFuIHg9IjMxLjkiIGR5PSIxNiIgaWQ9IlN2Z2pzVHNwYW4xMTA4Ij48dHNwYW4gc3R5bGU9InRleHQtZGVjb3JhdGlvbjo7IiBpZD0iU3ZnanNUc3BhbjExMDkiPkhPTERfTU9WRTwvdHNwYW4+PC90c3Bhbj48L3RleHQ+PC9nPjwvZz48ZyB0cmFuc2Zvcm09InRyYW5zbGF0ZSg4MzEsNDMyKSIgaWQ9IlN2Z2pzRzExMTAiPjxwYXRoIGZpbGw9IiNmZmZmZmYiIGZpbGwtb3BhY2l0eT0iMSIgc3Ryb2tlLXdpZHRoPSIyIiBzdHJva2U9InJnYmEoNTAsNTAsNTAsMSkiIGQ9Ik0gMCAwTCAxMDAgMEwgMTAwIDcwTCAwIDcwWiIgaWQ9IlN2Z2pzUGF0aDExMTEiLz48ZyBpZD0iU3ZnanNHMTExMiI+PHRleHQgdHJhbnNmb3JtPSJyb3RhdGUoMCkiIHk9IjI1LjA1IiBvcGFjaXR5PSIxIiBmb250LXN0eWxlPSIiIHNpemU9IjEzcHgiIGFsaWduPSJtaWRkbGUiIGZvbnQtd2VpZ2h0PSI0MDAiIGZpbGw9IiMzMjMyMzIiIHdpZHRoPSI4MHB4IiBmb250LXNpemU9IjEzcHgiIHRleHQtYW5jaG9yPSJtaWRkbGUiIGZvbnQtZmFtaWx5PSLlvq7ova/pm4Xpu5EiIGlkPSJTdmdqc1RleHQxMTEzIj48dHNwYW4geD0iNTAiIGR5PSIxNiIgaWQ9IlN2Z2pzVHNwYW4xMTE0Ij48dHNwYW4gc3R5bGU9InRleHQtZGVjb3JhdGlvbjo7IiBpZD0iU3ZnanNUc3BhbjExMTUiPm9pZC4gMTA8L3RzcGFuPjwvdHNwYW4+PC90ZXh0PjwvZz48L2c+PGcgdHJhbnNmb3JtPSJ0cmFuc2xhdGUoODMxLDU0MSkiIGlkPSJTdmdqc0cxMTE2Ij48cGF0aCBmaWxsPSIjZmZmZmZmIiBmaWxsLW9wYWNpdHk9IjEiIHN0cm9rZS13aWR0aD0iMiIgc3Ryb2tlPSJyZ2JhKDUwLDUwLDUwLDEpIiBkPSJNIDAgMEwgMTAwIDBMIDEwMCA3MEwgMCA3MFoiIGlkPSJTdmdqc1BhdGgxMTE3Ii8+PGcgaWQ9IlN2Z2pzRzExMTgiPjx0ZXh0IHRyYW5zZm9ybT0icm90YXRlKDApIiB5PSIyNS4wNSIgb3BhY2l0eT0iMSIgZm9udC1zdHlsZT0iIiBzaXplPSIxM3B4IiBhbGlnbj0ibWlkZGxlIiBmb250LXdlaWdodD0iNDAwIiBmaWxsPSIjMzIzMjMyIiB3aWR0aD0iODBweCIgZm9udC1zaXplPSIxM3B4IiB0ZXh0LWFuY2hvcj0ibWlkZGxlIiBmb250LWZhbWlseT0i5b6u6L2v6ZuF6buRIiBpZD0iU3ZnanNUZXh0MTExOSI+PHRzcGFuIHg9IjUwIiBkeT0iMTYiIGlkPSJTdmdqc1RzcGFuMTEyMCI+PHRzcGFuIHN0eWxlPSJ0ZXh0LWRlY29yYXRpb246OyIgaWQ9IlN2Z2pzVHNwYW4xMTIxIj41PC90c3Bhbj48L3RzcGFuPjwvdGV4dD48L2c+PC9nPjxnIHRyYW5zZm9ybT0idHJhbnNsYXRlKDk2MSw0MzIpIiBpZD0iU3ZnanNHMTEyMiI+PHBhdGggZmlsbD0iI2ZmZmZmZiIgZmlsbC1vcGFjaXR5PSIxIiBzdHJva2Utd2lkdGg9IjIiIHN0cm9rZT0icmdiYSg1MCw1MCw1MCwxKSIgZD0iTSAwIDBMIDEwMCAwTCAxMDAgNzBMIDAgNzBaIiBpZD0iU3ZnanNQYXRoMTEyMyIvPjxnIGlkPSJTdmdqc0cxMTI0Ij48dGV4dCB0cmFuc2Zvcm09InJvdGF0ZSgwKSIgeT0iMjUuMDUiIG9wYWNpdHk9IjEiIGZvbnQtc3R5bGU9IiIgc2l6ZT0iMTNweCIgYWxpZ249Im1pZGRsZSIgZm9udC13ZWlnaHQ9IjQwMCIgZmlsbD0iIzMyMzIzMiIgd2lkdGg9IjgwcHgiIGZvbnQtc2l6ZT0iMTNweCIgdGV4dC1hbmNob3I9Im1pZGRsZSIgZm9udC1mYW1pbHk9IuW+rui9r+mbhem7kSIgaWQ9IlN2Z2pzVGV4dDExMjUiPjx0c3BhbiB4PSI1MCIgZHk9IjE2IiBpZD0iU3ZnanNUc3BhbjExMjYiPjx0c3BhbiBzdHlsZT0idGV4dC1kZWNvcmF0aW9uOjsiIGlkPSJTdmdqc1RzcGFuMTEyNyI+b2lkIC01PC90c3Bhbj48L3RzcGFuPjwvdGV4dD48L2c+PC9nPjxnIHRyYW5zZm9ybT0idHJhbnNsYXRlKDI1NSw4MTkuNSkiIGlkPSJTdmdqc0cxMTI4Ij48cGF0aCBmaWxsPSIjZmZmZmZmIiBmaWxsLW9wYWNpdHk9IjEiIHN0cm9rZS13aWR0aD0iMiIgc3Ryb2tlPSJyZ2JhKDUwLDUwLDUwLDEpIiBkPSJNIDAgMEwgMTk2IDBMIDE5NiA0MEwgMCA0MFoiIGlkPSJTdmdqc1BhdGgxMTI5Ii8+PGcgaWQ9IlN2Z2pzRzExMzAiPjx0ZXh0IHRyYW5zZm9ybT0icm90YXRlKDApIiB5PSIxMC4wNSIgb3BhY2l0eT0iMSIgZm9udC1zdHlsZT0iIiBzaXplPSIxM3B4IiBhbGlnbj0ibWlkZGxlIiBmb250LXdlaWdodD0iNDAwIiBmaWxsPSIjMzIzMjMyIiB3aWR0aD0iMTc2cHgiIGZvbnQtc2l6ZT0iMTNweCIgdGV4dC1hbmNob3I9Im1pZGRsZSIgZm9udC1mYW1pbHk9IuW+rui9r+mbhem7kSIgaWQ9IlN2Z2pzVGV4dDExMzEiPjx0c3BhbiB4PSI5OCIgZHk9IjE2IiBpZD0iU3ZnanNUc3BhbjExMzIiPjx0c3BhbiBzdHlsZT0idGV4dC1kZWNvcmF0aW9uOjsiIGlkPSJTdmdqc1RzcGFuMTEzMyI+SG9sZEZ1bmRzT3BlcmF0aW9uSGFuZGxlcjwvdHNwYW4+PC90c3Bhbj48L3RleHQ+PC9nPjwvZz48ZyBpZD0iU3ZnanNHMTEzNCI+PHBhdGggbWFya2VyLWVuZD0idXJsKCNTdmdqc01hcmtlcjExMzYpIiBmaWxsPSJub25lIiBzdHJva2Utd2lkdGg9IjIiIHN0cm9rZT0iIzMyMzIzMiIgZD0iTTM1MyA4NTkuNUwzNTMgODg1TDM1MyA4ODVMMzUzIDkxNiIgaWQ9IlN2Z2pzUGF0aDExMzUiLz48L2c+PGcgdHJhbnNmb3JtPSJ0cmFuc2xhdGUoMjcyLjUsOTE2KSIgaWQ9IlN2Z2pzRzExMzgiPjxwYXRoIGZpbGw9IiNmZmZmZmYiIGZpbGwtb3BhY2l0eT0iMSIgc3Ryb2tlLXdpZHRoPSIyIiBzdHJva2U9InJnYmEoNTAsNTAsNTAsMSkiIGQ9Ik0gMCAwTCAxNjEgMEwgMTYxIDQwTCAwIDQwWiIgaWQ9IlN2Z2pzUGF0aDExMzkiLz48ZyBpZD0iU3ZnanNHMTE0MCI+PHRleHQgdHJhbnNmb3JtPSJyb3RhdGUoMCkiIHk9IjEwLjA1IiBvcGFjaXR5PSIxIiBmb250LXN0eWxlPSIiIHNpemU9IjEzcHgiIGFsaWduPSJtaWRkbGUiIGZvbnQtd2VpZ2h0PSI0MDAiIGZpbGw9IiMzMjMyMzIiIHdpZHRoPSIxNDFweCIgZm9udC1zaXplPSIxM3B4IiB0ZXh0LWFuY2hvcj0ibWlkZGxlIiBmb250LWZhbWlseT0i5b6u6L2v6ZuF6buRIiBpZD0iU3ZnanNUZXh0MTE0MSI+PHRzcGFuIHg9IjgwLjUiIGR5PSIxNiIgaWQ9IlN2Z2pzVHNwYW4xMTQyIj48dHNwYW4gc3R5bGU9InRleHQtZGVjb3JhdGlvbjo7IiBpZD0iU3ZnanNUc3BhbjExNDMiPmluc2VydCBhY2NvdW50X3R4PC90c3Bhbj48L3RzcGFuPjwvdGV4dD48L2c+PC9nPjxnIGlkPSJTdmdqc0cxMTQ0Ij48cGF0aCBtYXJrZXItZW5kPSJ1cmwoI1N2Z2pzTWFya2VyMTE0NikiIGZpbGw9Im5vbmUiIHN0cm9rZS13aWR0aD0iMiIgc3Ryb2tlPSIjMzIzMjMyIiBkPSJNMzUzIDk1NkwzNTMgOTc5LjVMMzUzIDk3OS41TDM1MyAxMDA3LjUiIGlkPSJTdmdqc1BhdGgxMTQ1Ii8+PC9nPjxnIHRyYW5zZm9ybT0idHJhbnNsYXRlKDIyMCwxMDA3LjUpIiBpZD0iU3ZnanNHMTE0OCI+PHBhdGggZmlsbD0iI2ZmZmZmZiIgZmlsbC1vcGFjaXR5PSIxIiBzdHJva2Utd2lkdGg9IjIiIHN0cm9rZT0icmdiYSg1MCw1MCw1MCwxKSIgZD0iTSAwIDBMIDI2NiAwTCAyNjYgNTRMIDAgNTRaIiBpZD0iU3ZnanNQYXRoMTE0OSIvPjxnIGlkPSJTdmdqc0cxMTUwIj48dGV4dCB0cmFuc2Zvcm09InJvdGF0ZSgwKSIgeT0iMTcuMDUiIG9wYWNpdHk9IjEiIGZvbnQtc3R5bGU9IiIgc2l6ZT0iMTNweCIgYWxpZ249Im1pZGRsZSIgZm9udC13ZWlnaHQ9IjQwMCIgZmlsbD0iIzMyMzIzMiIgd2lkdGg9IjI0NnB4IiBmb250LXNpemU9IjEzcHgiIHRleHQtYW5jaG9yPSJtaWRkbGUiIGZvbnQtZmFtaWx5PSLlvq7ova/pm4Xpu5EiIGlkPSJTdmdqc1RleHQxMTUxIj48dHNwYW4geD0iMTMzIiBkeT0iMTYiIGlkPSJTdmdqc1RzcGFuMTE1MiI+PHRzcGFuIHN0eWxlPSJ0ZXh0LWRlY29yYXRpb246OyIgaWQ9IlN2Z2pzVHNwYW4xMTUzIj5pbnNlcnTCoDwvdHNwYW4+PHRzcGFuIHN0eWxlPSJ0ZXh0LWRlY29yYXRpb246O2ZvbnQtc2l6ZTogaW5oZXJpdDsiIGlkPSJTdmdqc1RzcGFuMTE1NCI+YWNjb3VudF9ob2xkX3R4PC90c3Bhbj48L3RzcGFuPjwvdGV4dD48L2c+PC9nPjxnIGlkPSJTdmdqc0cxMTU1Ij48cGF0aCBtYXJrZXItZW5kPSJ1cmwoI1N2Z2pzTWFya2VyMTE1NykiIGZpbGw9Im5vbmUiIHN0cm9rZS13aWR0aD0iMiIgc3Ryb2tlPSIjMzIzMjMyIiBkPSJNMzUzIDEwNjEuNUwzNTMgMTA4Ny4yNUwzNTMgMTA4Ny4yNUwzNTMgMTExNyIgaWQ9IlN2Z2pzUGF0aDExNTYiLz48L2c+PGcgdHJhbnNmb3JtPSJ0cmFuc2xhdGUoMzA3LDExMTcpIiBpZD0iU3ZnanNHMTE1OSI+PHBhdGggZmlsbD0iI2ZmZmZmZiIgZmlsbC1vcGFjaXR5PSIxIiBzdHJva2Utd2lkdGg9IjIiIHN0cm9rZT0icmdiYSg1MCw1MCw1MCwxKSIgZD0iTSAwIDM1TCA0NiAwTCA5MiAzNUwgNDYgNzBMIDAgMzVaIiBpZD0iU3ZnanNQYXRoMTE2MCIvPjxnIGlkPSJTdmdqc0cxMTYxIj48dGV4dCB0cmFuc2Zvcm09InJvdGF0ZSgwKSIgeT0iMjUuMDUiIG9wYWNpdHk9IjEiIGZvbnQtc3R5bGU9IiIgc2l6ZT0iMTNweCIgYWxpZ249Im1pZGRsZSIgZm9udC13ZWlnaHQ9IjQwMCIgZmlsbD0iIzMyMzIzMiIgd2lkdGg9IjcycHgiIGZvbnQtc2l6ZT0iMTNweCIgdGV4dC1hbmNob3I9Im1pZGRsZSIgZm9udC1mYW1pbHk9IuW+rui9r+mbhem7kSIgaWQ9IlN2Z2pzVGV4dDExNjIiPjx0c3BhbiB4PSI0NiIgZHk9IjE2IiBpZD0iU3ZnanNUc3BhbjExNjMiPjx0c3BhbiBzdHlsZT0idGV4dC1kZWNvcmF0aW9uOjsiIGlkPSJTdmdqc1RzcGFuMTE2NCI+5YiH5rWBPC90c3Bhbj48L3RzcGFuPjwvdGV4dD48L2c+PC9nPjxnIGlkPSJTdmdqc0cxMTY1Ij48cGF0aCBtYXJrZXItZW5kPSJ1cmwoI1N2Z2pzTWFya2VyMTE2NykiIGZpbGw9Im5vbmUiIHN0cm9rZS13aWR0aD0iMiIgc3Ryb2tlPSIjMzIzMjMyIiBkPSJNMzA3IDExNTJMMjQzLjUgMTE1MkwyNDMuNSAxMTUyTDE4NiAxMTUyIiBpZD0iU3ZnanNQYXRoMTE2NiIvPjxyZWN0IGZpbGw9IiNmZmZmZmYiIHk9IjExNDQiIHg9IjI0MCIgaGVpZ2h0PSIxNiIgd2lkdGg9IjEzIiBpZD0iU3ZnanNSZWN0MTE2OSIvPjx0ZXh0IHRyYW5zZm9ybT0icm90YXRlKDApIiB5PSIxMTQyLjA1IiBvcGFjaXR5PSIxIiBmb250LXN0eWxlPSIiIHNpemU9IjEzcHgiIGFsaWduPSJ0b3AiIGZvbnQtd2VpZ2h0PSI0MDAiIGZpbGw9IiMzMjMyMzIiIHdpZHRoPSIxM3B4IiBmb250LXNpemU9IjEzcHgiIHRleHQtYW5jaG9yPSJtaWRkbGUiIGZvbnQtZmFtaWx5PSLlvq7ova/pm4Xpu5EiIGlkPSJTdmdqc1RleHQxMTcwIj48dHNwYW4geD0iMjQ2LjUiIGR5PSIxNiIgaWQ9IlN2Z2pzVHNwYW4xMTcxIj48dHNwYW4gc3R5bGU9InRleHQtZGVjb3JhdGlvbjo7IiBpZD0iU3ZnanNUc3BhbjExNzIiPuiAgTwvdHNwYW4+PC90c3Bhbj48L3RleHQ+PC9nPjxnIHRyYW5zZm9ybT0idHJhbnNsYXRlKDI1LDExMjMpIiBpZD0iU3ZnanNHMTE3MyI+PHBhdGggZmlsbD0iI2ZmZmZmZiIgZmlsbC1vcGFjaXR5PSIxIiBzdHJva2Utd2lkdGg9IjIiIHN0cm9rZT0icmdiYSg1MCw1MCw1MCwxKSIgZD0iTSAwIDBMIDE2MSAwTCAxNjEgNThMIDAgNThaIiBpZD0iU3ZnanNQYXRoMTE3NCIvPjxnIGlkPSJTdmdqc0cxMTc1Ij48dGV4dCB0cmFuc2Zvcm09InJvdGF0ZSgwKSIgeT0iMTkuMDUiIG9wYWNpdHk9IjEiIGZvbnQtc3R5bGU9IiIgc2l6ZT0iMTNweCIgYWxpZ249Im1pZGRsZSIgZm9udC13ZWlnaHQ9IjQwMCIgZmlsbD0iIzMyMzIzMiIgd2lkdGg9IjE0MXB4IiBmb250LXNpemU9IjEzcHgiIHRleHQtYW5jaG9yPSJtaWRkbGUiIGZvbnQtZmFtaWx5PSLlvq7ova/pm4Xpu5EiIGlkPSJTdmdqc1RleHQxMTc2Ij48dHNwYW4geD0iODAuNSIgZHk9IjE2IiBpZD0iU3ZnanNUc3BhbjExNzciPjx0c3BhbiBzdHlsZT0idGV4dC1kZWNvcmF0aW9uOjsiIGlkPSJTdmdqc1RzcGFuMTE3OCI+dXBkYXRlIGFjY291bnRfaG9sZDwvdHNwYW4+PC90c3Bhbj48L3RleHQ+PC9nPjwvZz48ZyBpZD0iU3ZnanNHMTE3OSI+PHBhdGggbWFya2VyLWVuZD0idXJsKCNTdmdqc01hcmtlcjExODEpIiBmaWxsPSJub25lIiBzdHJva2Utd2lkdGg9IjIiIHN0cm9rZT0iIzMyMzIzMiIgZD0iTTEwNS41IDExODFMMTA1LjUgMTIzNS44NzVMMzUzIDEyMzUuODc1TDM1MyAxMjkwLjUiIGlkPSJTdmdqc1BhdGgxMTgwIi8+PC9nPjxnIHRyYW5zZm9ybT0idHJhbnNsYXRlKDMwMywxMjkwLjUpIiBpZD0iU3ZnanNHMTE4MyI+PHBhdGggZmlsbD0iI2ZmZmZmZiIgZmlsbC1vcGFjaXR5PSIxIiBzdHJva2Utd2lkdGg9IjIiIHN0cm9rZT0icmdiYSg1MCw1MCw1MCwxKSIgZD0iTSAwIDBMIDEwMCAwTCAxMDAgNzBMIDAgNzBaIiBpZD0iU3ZnanNQYXRoMTE4NCIvPjxnIGlkPSJTdmdqc0cxMTg1Ij48dGV4dCB0cmFuc2Zvcm09InJvdGF0ZSgwKSIgeT0iMTcuMDUiIG9wYWNpdHk9IjEiIGZvbnQtc3R5bGU9IiIgc2l6ZT0iMTNweCIgYWxpZ249Im1pZGRsZSIgZm9udC13ZWlnaHQ9IjQwMCIgZmlsbD0iIzMyMzIzMiIgd2lkdGg9IjgwcHgiIGZvbnQtc2l6ZT0iMTNweCIgdGV4dC1hbmNob3I9Im1pZGRsZSIgZm9udC1mYW1pbHk9IuW+rui9r+mbhem7kSIgaWQ9IlN2Z2pzVGV4dDExODYiPjx0c3BhbiB4PSI1MCIgZHk9IjE2IiBpZD0iU3ZnanNUc3BhbjExODciPjx0c3BhbiBzdHlsZT0idGV4dC1kZWNvcmF0aW9uOjsiIGlkPSJTdmdqc1RzcGFuMTE4OCI+dXBkYXRlIDwvdHNwYW4+PC90c3Bhbj48dHNwYW4geD0iNTAiIGR5PSIxNiIgaWQ9IlN2Z2pzVHNwYW4xMTg5Ij48dHNwYW4gc3R5bGU9InRleHQtZGVjb3JhdGlvbjo7IiBpZD0iU3ZnanNUc3BhbjExOTAiPmFjY291bnQ8L3RzcGFuPjwvdHNwYW4+PC90ZXh0PjwvZz48L2c+PGcgaWQ9IlN2Z2pzRzExOTEiPjxwYXRoIG1hcmtlci1lbmQ9InVybCgjU3ZnanNNYXJrZXIxMTkzKSIgZmlsbD0ibm9uZSIgc3Ryb2tlLXdpZHRoPSIyIiBzdHJva2U9IiMzMjMyMzIiIGQ9Ik0zOTkgMTE1Mkw0OTcgMTE1Mkw0OTcgMTE1Mkw1OTUgMTE1MiIgaWQ9IlN2Z2pzUGF0aDExOTIiLz48cmVjdCBmaWxsPSIjZmZmZmZmIiB5PSIxMTQ0IiB4PSI0OTAuNSIgaGVpZ2h0PSIxNiIgd2lkdGg9IjEzIiBpZD0iU3ZnanNSZWN0MTE5NSIvPjx0ZXh0IHRyYW5zZm9ybT0icm90YXRlKDApIiB5PSIxMTQyLjA1IiBvcGFjaXR5PSIxIiBmb250LXN0eWxlPSIiIHNpemU9IjEzcHgiIGFsaWduPSJ0b3AiIGZvbnQtd2VpZ2h0PSI0MDAiIGZpbGw9IiMzMjMyMzIiIHdpZHRoPSIxM3B4IiBmb250LXNpemU9IjEzcHgiIHRleHQtYW5jaG9yPSJtaWRkbGUiIGZvbnQtZmFtaWx5PSLlvq7ova/pm4Xpu5EiIGlkPSJTdmdqc1RleHQxMTk2Ij48dHNwYW4geD0iNDk3IiBkeT0iMTYiIGlkPSJTdmdqc1RzcGFuMTE5NyI+PHRzcGFuIHN0eWxlPSJ0ZXh0LWRlY29yYXRpb246OyIgaWQ9IlN2Z2pzVHNwYW4xMTk4Ij7mlrA8L3RzcGFuPjwvdHNwYW4+PC90ZXh0PjwvZz48ZyBpZD0iU3ZnanNHMTE5OSI+PHBhdGggbWFya2VyLWVuZD0idXJsKCNTdmdqc01hcmtlcjEyMDEpIiBmaWxsPSJub25lIiBzdHJva2Utd2lkdGg9IjIiIHN0cm9rZT0iIzMyMzIzMiIgZD0iTTY2MSAxMTg3TDY2MSAxMjM3LjI1TDM1MyAxMjM3LjI1TDM1MyAxMjkwLjUiIGlkPSJTdmdqc1BhdGgxMjAwIi8+PC9nPjxnIHRyYW5zZm9ybT0idHJhbnNsYXRlKDEzNDgsNzY1KSIgaWQ9IlN2Z2pzRzEyMDMiPjxwYXRoIGZpbGw9IiNmZmZmZmYiIGZpbGwtb3BhY2l0eT0iMSIgc3Ryb2tlLXdpZHRoPSIyIiBzdHJva2U9InJnYmEoNTAsNTAsNTAsMSkiIGQ9Ik0gMCAwTCAyNjYgMEwgMjY2IDQwTCAwIDQwWiIgaWQ9IlN2Z2pzUGF0aDEyMDQiLz48ZyBpZD0iU3ZnanNHMTIwNSI+PHRleHQgdHJhbnNmb3JtPSJyb3RhdGUoMCkiIHk9IjEwLjA1IiBvcGFjaXR5PSIxIiBmb250LXN0eWxlPSIiIHNpemU9IjEzcHgiIGFsaWduPSJtaWRkbGUiIGZvbnQtd2VpZ2h0PSI0MDAiIGZpbGw9IiMzMjMyMzIiIHdpZHRoPSIyNDZweCIgZm9udC1zaXplPSIxM3B4IiB0ZXh0LWFuY2hvcj0ibWlkZGxlIiBmb250LWZhbWlseT0i5b6u6L2v6ZuF6buRIiBpZD0iU3ZnanNUZXh0MTIwNiI+PHRzcGFuIHg9IjEzMyIgZHk9IjE2IiBpZD0iU3ZnanNUc3BhbjEyMDciPjx0c3BhbiBzdHlsZT0idGV4dC1kZWNvcmF0aW9uOjsiIGlkPSJTdmdqc1RzcGFuMTIwOCI+TW92ZUhvbGRGdW5kc09wZXJhdGlvbkhhbmRsZXI8L3RzcGFuPjwvdHNwYW4+PC90ZXh0PjwvZz48L2c+PGcgaWQ9IlN2Z2pzRzEyMDkiPjxwYXRoIG1hcmtlci1lbmQ9InVybCgjU3ZnanNNYXJrZXIxMjExKSIgZmlsbD0ibm9uZSIgc3Ryb2tlLXdpZHRoPSIyIiBzdHJva2U9IiMzMjMyMzIiIGQ9Ik0xNDgxIDgwNUwxNDgxIDgyOEwxNDgxIDgyOEwxNDgxIDg2MCIgaWQ9IlN2Z2pzUGF0aDEyMTAiLz48L2c+PGcgdHJhbnNmb3JtPSJ0cmFuc2xhdGUoMTQwMC41LDg2MCkiIGlkPSJTdmdqc0cxMjEzIj48cGF0aCBmaWxsPSIjZmZmZmZmIiBmaWxsLW9wYWNpdHk9IjEiIHN0cm9rZS13aWR0aD0iMiIgc3Ryb2tlPSJyZ2JhKDUwLDUwLDUwLDEpIiBkPSJNIDAgMEwgMTYxIDBMIDE2MSA1OEwgMCA1OFoiIGlkPSJTdmdqc1BhdGgxMjE0Ii8+PGcgaWQ9IlN2Z2pzRzEyMTUiPjx0ZXh0IHRyYW5zZm9ybT0icm90YXRlKDApIiB5PSIxOS4wNSIgb3BhY2l0eT0iMSIgZm9udC1zdHlsZT0iIiBzaXplPSIxM3B4IiBhbGlnbj0ibWlkZGxlIiBmb250LXdlaWdodD0iNDAwIiBmaWxsPSIjMzIzMjMyIiB3aWR0aD0iMTQxcHgiIGZvbnQtc2l6ZT0iMTNweCIgdGV4dC1hbmNob3I9Im1pZGRsZSIgZm9udC1mYW1pbHk9IuW+rui9r+mbhem7kSIgaWQ9IlN2Z2pzVGV4dDEyMTYiPjx0c3BhbiB4PSI4MC41IiBkeT0iMTYiIGlkPSJTdmdqc1RzcGFuMTIxNyI+PHRzcGFuIHN0eWxlPSJ0ZXh0LWRlY29yYXRpb246OyIgaWQ9IlN2Z2pzVHNwYW4xMjE4Ij5pbnNlcnQgYWNjb3VudF9ob2xkX3R4PC90c3Bhbj48L3RzcGFuPjwvdGV4dD48L2c+PC9nPjxnIGlkPSJTdmdqc0cxMjE5Ij48cGF0aCBtYXJrZXItZW5kPSJ1cmwoI1N2Z2pzTWFya2VyMTIyMSkiIGZpbGw9Im5vbmUiIHN0cm9rZS13aWR0aD0iMiIgc3Ryb2tlPSIjMzIzMjMyIiBkPSJNMTQ4MSA5MThMMTQ4MSA5MjkuMjVMMTQ4MSA5MjkuMjVMMTQ4MSA5NDkiIGlkPSJTdmdqc1BhdGgxMjIwIi8+PC9nPjxnIHRyYW5zZm9ybT0idHJhbnNsYXRlKDE0MTEuNSw5NDkpIiBpZD0iU3ZnanNHMTIyMyI+PHBhdGggZmlsbD0iI2ZmZmZmZiIgZmlsbC1vcGFjaXR5PSIxIiBzdHJva2Utd2lkdGg9IjIiIHN0cm9rZT0icmdiYSg1MCw1MCw1MCwxKSIgZD0iTSAwIDBMIDEzOSAwTCAxMzkgNTRMIDAgNTRaIiBpZD0iU3ZnanNQYXRoMTIyNCIvPjxnIGlkPSJTdmdqc0cxMjI1Ij48dGV4dCB0cmFuc2Zvcm09InJvdGF0ZSgwKSIgeT0iOS4wNSIgb3BhY2l0eT0iMSIgZm9udC1zdHlsZT0iIiBzaXplPSIxM3B4IiBhbGlnbj0ibWlkZGxlIiBmb250LXdlaWdodD0iNDAwIiBmaWxsPSIjMzIzMjMyIiB3aWR0aD0iMTE5cHgiIGZvbnQtc2l6ZT0iMTNweCIgdGV4dC1hbmNob3I9Im1pZGRsZSIgZm9udC1mYW1pbHk9IuW+rui9r+mbhem7kSIgaWQ9IlN2Z2pzVGV4dDEyMjYiPjx0c3BhbiB4PSI2OS41IiBkeT0iMTYiIGlkPSJTdmdqc1RzcGFuMTIyNyI+PHRzcGFuIHN0eWxlPSJ0ZXh0LWRlY29yYXRpb246OyIgaWQ9IlN2Z2pzVHNwYW4xMjI4Ij7mn6Xor6JvcmRlciDnmoQ8L3RzcGFuPjwvdHNwYW4+PHRzcGFuIHg9IjY5LjUiIGR5PSIxNiIgaWQ9IlN2Z2pzVHNwYW4xMjI5Ij48dHNwYW4gc3R5bGU9InRleHQtZGVjb3JhdGlvbjo7IiBpZD0iU3ZnanNUc3BhbjEyMzAiPmFjY291bnRIb2xkPC90c3Bhbj48L3RzcGFuPjwvdGV4dD48L2c+PC9nPjxnIGlkPSJTdmdqc0cxMjMxIj48cGF0aCBtYXJrZXItZW5kPSJ1cmwoI1N2Z2pzTWFya2VyMTIzMykiIGZpbGw9Im5vbmUiIHN0cm9rZS13aWR0aD0iMiIgc3Ryb2tlPSIjMzIzMjMyIiBkPSJNMTQ4MSAxMDAzTDE0ODEgMTAxOS41TDE0ODEgMTAxOS41TDE0ODEgMTAzNSIgaWQ9IlN2Z2pzUGF0aDEyMzIiLz48L2c+PGcgdHJhbnNmb3JtPSJ0cmFuc2xhdGUoMTQzNSwxMDM1KSIgaWQ9IlN2Z2pzRzEyMzUiPjxwYXRoIGZpbGw9IiNmZmZmZmYiIGZpbGwtb3BhY2l0eT0iMSIgc3Ryb2tlLXdpZHRoPSIyIiBzdHJva2U9InJnYmEoNTAsNTAsNTAsMSkiIGQ9Ik0gMCAzNUwgNDYgMEwgOTIgMzVMIDQ2IDcwTCAwIDM1WiIgaWQ9IlN2Z2pzUGF0aDEyMzYiLz48ZyBpZD0iU3ZnanNHMTIzNyI+PHRleHQgdHJhbnNmb3JtPSJyb3RhdGUoMCkiIHk9IjI1LjA1IiBvcGFjaXR5PSIxIiBmb250LXN0eWxlPSIiIHNpemU9IjEzcHgiIGFsaWduPSJtaWRkbGUiIGZvbnQtd2VpZ2h0PSI0MDAiIGZpbGw9IiMzMjMyMzIiIHdpZHRoPSI3MnB4IiBmb250LXNpemU9IjEzcHgiIHRleHQtYW5jaG9yPSJtaWRkbGUiIGZvbnQtZmFtaWx5PSLlvq7ova/pm4Xpu5EiIGlkPSJTdmdqc1RleHQxMjM4Ij48dHNwYW4geD0iNDYiIGR5PSIxNiIgaWQ9IlN2Z2pzVHNwYW4xMjM5Ij48dHNwYW4gc3R5bGU9InRleHQtZGVjb3JhdGlvbjo7IiBpZD0iU3ZnanNUc3BhbjEyNDAiPuWIh+a1gTwvdHNwYW4+PC90c3Bhbj48L3RleHQ+PC9nPjwvZz48ZyBpZD0iU3ZnanNHMTI0MSI+PHBhdGggbWFya2VyLWVuZD0idXJsKCNTdmdqc01hcmtlcjEyNDMpIiBmaWxsPSJub25lIiBzdHJva2Utd2lkdGg9IjIiIHN0cm9rZT0iIzMyMzIzMiIgZD0iTTE0MzUgMTA3MEwxMzQ3LjUgMTA3MEwxMzQ3LjUgMTA3MEwxMjY3IDEwNzAiIGlkPSJTdmdqc1BhdGgxMjQyIi8+PHJlY3QgZmlsbD0iI2ZmZmZmZiIgeT0iMTA2MiIgeD0iMTM0NC41IiBoZWlnaHQ9IjE2IiB3aWR0aD0iMTMiIGlkPSJTdmdqc1JlY3QxMjQ1Ii8+PHRleHQgdHJhbnNmb3JtPSJyb3RhdGUoMCkiIHk9IjEwNjAuMDUiIG9wYWNpdHk9IjEiIGZvbnQtc3R5bGU9IiIgc2l6ZT0iMTNweCIgYWxpZ249InRvcCIgZm9udC13ZWlnaHQ9IjQwMCIgZmlsbD0iIzMyMzIzMiIgd2lkdGg9IjEzcHgiIGZvbnQtc2l6ZT0iMTNweCIgdGV4dC1hbmNob3I9Im1pZGRsZSIgZm9udC1mYW1pbHk9IuW+rui9r+mbhem7kSIgaWQ9IlN2Z2pzVGV4dDEyNDYiPjx0c3BhbiB4PSIxMzUxIiBkeT0iMTYiIGlkPSJTdmdqc1RzcGFuMTI0NyI+PHRzcGFuIHN0eWxlPSJ0ZXh0LWRlY29yYXRpb246OyIgaWQ9IlN2Z2pzVHNwYW4xMjQ4Ij7ogIE8L3RzcGFuPjwvdHNwYW4+PC90ZXh0PjwvZz48ZyBpZD0iU3ZnanNHMTI0OSI+PHBhdGggbWFya2VyLWVuZD0idXJsKCNTdmdqc01hcmtlcjEyNTEpIiBmaWxsPSJub25lIiBzdHJva2Utd2lkdGg9IjIiIHN0cm9rZT0iIzMyMzIzMiIgZD0iTTE1MjcgMTA3MEwxNTY2IDEwNzBMMTU2NiAxMDcwTDE2MTIuNSAxMDcwIiBpZD0iU3ZnanNQYXRoMTI1MCIvPjxyZWN0IGZpbGw9IiNmZmZmZmYiIHk9IjEwNjIiIHg9IjE1NjMuMjUiIGhlaWdodD0iMTYiIHdpZHRoPSIxMyIgaWQ9IlN2Z2pzUmVjdDEyNTMiLz48dGV4dCB0cmFuc2Zvcm09InJvdGF0ZSgwKSIgeT0iMTA2MC4wNSIgb3BhY2l0eT0iMSIgZm9udC1zdHlsZT0iIiBzaXplPSIxM3B4IiBhbGlnbj0idG9wIiBmb250LXdlaWdodD0iNDAwIiBmaWxsPSIjMzIzMjMyIiB3aWR0aD0iMTNweCIgZm9udC1zaXplPSIxM3B4IiB0ZXh0LWFuY2hvcj0ibWlkZGxlIiBmb250LWZhbWlseT0i5b6u6L2v6ZuF6buRIiBpZD0iU3ZnanNUZXh0MTI1NCI+PHRzcGFuIHg9IjE1NjkuNzUiIGR5PSIxNiIgaWQ9IlN2Z2pzVHNwYW4xMjU1Ij48dHNwYW4gc3R5bGU9InRleHQtZGVjb3JhdGlvbjo7IiBpZD0iU3ZnanNUc3BhbjEyNTYiPuaWsDwvdHNwYW4+PC90c3Bhbj48L3RleHQ+PC9nPjxnIHRyYW5zZm9ybT0idHJhbnNsYXRlKDExMzUsMTAzNSkiIGlkPSJTdmdqc0cxMjU3Ij48cGF0aCBmaWxsPSIjZmZmZmZmIiBmaWxsLW9wYWNpdHk9IjEiIHN0cm9rZS13aWR0aD0iMiIgc3Ryb2tlPSJyZ2JhKDUwLDUwLDUwLDEpIiBkPSJNIDAgMzVMIDY2IDBMIDEzMiAzNUwgNjYgNzBMIDAgMzVaIiBpZD0iU3ZnanNQYXRoMTI1OCIvPjxnIGlkPSJTdmdqc0cxMjU5Ij48dGV4dCB0cmFuc2Zvcm09InJvdGF0ZSgwKSIgeT0iMjUuMDUiIG9wYWNpdHk9IjEiIGZvbnQtc3R5bGU9IiIgc2l6ZT0iMTNweCIgYWxpZ249Im1pZGRsZSIgZm9udC13ZWlnaHQ9IjQwMCIgZmlsbD0iIzMyMzIzMiIgd2lkdGg9IjExMnB4IiBmb250LXNpemU9IjEzcHgiIHRleHQtYW5jaG9yPSJtaWRkbGUiIGZvbnQtZmFtaWx5PSLlvq7ova/pm4Xpu5EiIGlkPSJTdmdqc1RleHQxMjYwIj48dHNwYW4geD0iNjYiIGR5PSIxNiIgaWQ9IlN2Z2pzVHNwYW4xMjYxIj48dHNwYW4gc3R5bGU9InRleHQtZGVjb3JhdGlvbjo7IiBpZD0iU3ZnanNUc3BhbjEyNjIiPmFjY291bnRIb2xk5a2Y5ZyoPC90c3Bhbj48L3RzcGFuPjwvdGV4dD48L2c+PC9nPjxnIGlkPSJTdmdqc0cxMjYzIj48cGF0aCBtYXJrZXItZW5kPSJ1cmwoI1N2Z2pzTWFya2VyMTI2NSkiIGZpbGw9Im5vbmUiIHN0cm9rZS13aWR0aD0iMiIgc3Ryb2tlPSIjMzIzMjMyIiBkPSJNMTIwMSAxMDM1TDEyMDEgMTAwMi4yNUwxMjAxIDEwMDIuMjVMMTIwMSA5NjYuNSIgaWQ9IlN2Z2pzUGF0aDEyNjQiLz48cmVjdCBmaWxsPSIjZmZmZmZmIiB5PSI5OTIuNzUiIHg9IjExOTMuNSIgaGVpZ2h0PSIxNiIgd2lkdGg9IjE1IiBpZD0iU3ZnanNSZWN0MTI2NyIvPjx0ZXh0IHRyYW5zZm9ybT0icm90YXRlKDApIiB5PSI5OTAuOCIgb3BhY2l0eT0iMSIgZm9udC1zdHlsZT0iIiBzaXplPSIxM3B4IiBhbGlnbj0idG9wIiBmb250LXdlaWdodD0iNDAwIiBmaWxsPSIjMzIzMjMyIiB3aWR0aD0iMTVweCIgZm9udC1zaXplPSIxM3B4IiB0ZXh0LWFuY2hvcj0ibWlkZGxlIiBmb250LWZhbWlseT0i5b6u6L2v6ZuF6buRIiBpZD0iU3ZnanNUZXh0MTI2OCI+PHRzcGFuIHg9IjEyMDEiIGR5PSIxNiIgaWQ9IlN2Z2pzVHNwYW4xMjY5Ij48dHNwYW4gc3R5bGU9InRleHQtZGVjb3JhdGlvbjo7IiBpZD0iU3ZnanNUc3BhbjEyNzAiPm5vPC90c3Bhbj48L3RzcGFuPjwvdGV4dD48L2c+PGcgdHJhbnNmb3JtPSJ0cmFuc2xhdGUoMTE1MSw4ODYuNSkiIGlkPSJTdmdqc0cxMjcxIj48cGF0aCBmaWxsPSIjZmZmZmZmIiBmaWxsLW9wYWNpdHk9IjEiIHN0cm9rZS13aWR0aD0iMiIgc3Ryb2tlPSJyZ2JhKDUwLDUwLDUwLDEpIiBkPSJNIDAgNDBDIDAgLTEzLjMzMzMzMzMzMzMzMzMzNCAxMDAgLTEzLjMzMzMzMzMzMzMzMzMzNCAxMDAgNDBDIDEwMCA5My4zMzMzMzMzMzMzMzMzMyAwIDkzLjMzMzMzMzMzMzMzMzMzIDAgNDBaIiBpZD0iU3ZnanNQYXRoMTI3MiIvPjxnIGlkPSJTdmdqc0cxMjczIj48dGV4dCB0cmFuc2Zvcm09InJvdGF0ZSgwKSIgeT0iMjIuMDUiIG9wYWNpdHk9IjEiIGZvbnQtc3R5bGU9IiIgc2l6ZT0iMTNweCIgYWxpZ249Im1pZGRsZSIgZm9udC13ZWlnaHQ9IjQwMCIgZmlsbD0iIzMyMzIzMiIgd2lkdGg9IjgwcHgiIGZvbnQtc2l6ZT0iMTNweCIgdGV4dC1hbmNob3I9Im1pZGRsZSIgZm9udC1mYW1pbHk9IuW+rui9r+mbhem7kSIgaWQ9IlN2Z2pzVGV4dDEyNzQiPjx0c3BhbiB4PSI1MCIgZHk9IjE2IiBpZD0iU3ZnanNUc3BhbjEyNzUiPjx0c3BhbiBzdHlsZT0idGV4dC1kZWNvcmF0aW9uOjsiIGlkPSJTdmdqc1RzcGFuMTI3NiI+Tk9fSE9MRF9CPC90c3Bhbj48L3RzcGFuPjx0c3BhbiB4PSI1MCIgZHk9IjE2IiBpZD0iU3ZnanNUc3BhbjEyNzciPjx0c3BhbiBzdHlsZT0idGV4dC1kZWNvcmF0aW9uOjsiIGlkPSJTdmdqc1RzcGFuMTI3OCI+QUxBTkNFPC90c3Bhbj48L3RzcGFuPjwvdGV4dD48L2c+PC9nPjxnIGlkPSJTdmdqc0cxMjc5Ij48cGF0aCBtYXJrZXItZW5kPSJ1cmwoI1N2Z2pzTWFya2VyMTI4MSkiIGZpbGw9Im5vbmUiIHN0cm9rZS13aWR0aD0iMiIgc3Ryb2tlPSIjMzIzMjMyIiBkPSJNMTIwMSAxMTA1TDEyMDEgMTEzN0wxMjAxIDExMzdMMTIwMSAxMTY5IiBpZD0iU3ZnanNQYXRoMTI4MCIvPjxyZWN0IGZpbGw9IiNmZmZmZmYiIHk9IjExMjkiIHg9IjExOTEiIGhlaWdodD0iMTYiIHdpZHRoPSIyMCIgaWQ9IlN2Z2pzUmVjdDEyODMiLz48dGV4dCB0cmFuc2Zvcm09InJvdGF0ZSgwKSIgeT0iMTEyNy4wNSIgb3BhY2l0eT0iMSIgZm9udC1zdHlsZT0iIiBzaXplPSIxM3B4IiBhbGlnbj0idG9wIiBmb250LXdlaWdodD0iNDAwIiBmaWxsPSIjMzIzMjMyIiB3aWR0aD0iMjBweCIgZm9udC1zaXplPSIxM3B4IiB0ZXh0LWFuY2hvcj0ibWlkZGxlIiBmb250LWZhbWlseT0i5b6u6L2v6ZuF6buRIiBpZD0iU3ZnanNUZXh0MTI4NCI+PHRzcGFuIHg9IjEyMDEiIGR5PSIxNiIgaWQ9IlN2Z2pzVHNwYW4xMjg1Ij48dHNwYW4gc3R5bGU9InRleHQtZGVjb3JhdGlvbjo7IiBpZD0iU3ZnanNUc3BhbjEyODYiPnllczwvdHNwYW4+PC90c3Bhbj48L3RleHQ+PC9nPjxnIHRyYW5zZm9ybT0idHJhbnNsYXRlKDExMjAuNSwxMTY5KSIgaWQ9IlN2Z2pzRzEyODciPjxwYXRoIGZpbGw9IiNmZmZmZmYiIGZpbGwtb3BhY2l0eT0iMSIgc3Ryb2tlLXdpZHRoPSIyIiBzdHJva2U9InJnYmEoNTAsNTAsNTAsMSkiIGQ9Ik0gMCAwTCAxNjEgMEwgMTYxIDU0TCAwIDU0WiIgaWQ9IlN2Z2pzUGF0aDEyODgiLz48ZyBpZD0iU3ZnanNHMTI4OSI+PHRleHQgdHJhbnNmb3JtPSJyb3RhdGUoMCkiIHk9IjEuMDUiIG9wYWNpdHk9IjEiIGZvbnQtc3R5bGU9IiIgc2l6ZT0iMTNweCIgYWxpZ249Im1pZGRsZSIgZm9udC13ZWlnaHQ9IjQwMCIgZmlsbD0iIzMyMzIzMiIgd2lkdGg9IjE0MXB4IiBmb250LXNpemU9IjEzcHgiIHRleHQtYW5jaG9yPSJtaWRkbGUiIGZvbnQtZmFtaWx5PSLlvq7ova/pm4Xpu5EiIGlkPSJTdmdqc1RleHQxMjkwIj48dHNwYW4geD0iODAuNSIgZHk9IjE2IiBpZD0iU3ZnanNUc3BhbjEyOTEiPjx0c3BhbiBzdHlsZT0idGV4dC1kZWNvcmF0aW9uOjsiIGlkPSJTdmdqc1RzcGFuMTI5MiI+dXBkYXRl77ya5omj5YePPC90c3Bhbj48L3RzcGFuPjx0c3BhbiB4PSI4MC41IiBkeT0iMTYiIGlkPSJTdmdqc1RzcGFuMTI5MyI+PHRzcGFuIHN0eWxlPSJ0ZXh0LWRlY29yYXRpb246OyIgaWQ9IlN2Z2pzVHNwYW4xMjk0Ij51bm1vdW50QW1vdW50IG9yZGVyIDwvdHNwYW4+PC90c3Bhbj48dHNwYW4geD0iODAuNSIgZHk9IjE2IiBpZD0iU3ZnanNUc3BhbjEyOTUiPjx0c3BhbiBzdHlsZT0idGV4dC1kZWNvcmF0aW9uOjsiIGlkPSJTdmdqc1RzcGFuMTI5NiI+YWNjb3VudEhvbGQ8L3RzcGFuPjwvdHNwYW4+PC90ZXh0PjwvZz48L2c+PGcgdHJhbnNmb3JtPSJ0cmFuc2xhdGUoMTYxMi41LDEwMzUpIiBpZD0iU3ZnanNHMTI5NyI+PHBhdGggZmlsbD0iI2ZmZmZmZiIgZmlsbC1vcGFjaXR5PSIxIiBzdHJva2Utd2lkdGg9IjIiIHN0cm9rZT0icmdiYSg1MCw1MCw1MCwxKSIgZD0iTSAwIDM1TCA4MC41IDBMIDE2MSAzNUwgODAuNSA3MEwgMCAzNVoiIGlkPSJTdmdqc1BhdGgxMjk4Ii8+PGcgaWQ9IlN2Z2pzRzEyOTkiPjx0ZXh0IHRyYW5zZm9ybT0icm90YXRlKDApIiB5PSIyNS4wNSIgb3BhY2l0eT0iMSIgZm9udC1zdHlsZT0iIiBzaXplPSIxM3B4IiBhbGlnbj0ibWlkZGxlIiBmb250LXdlaWdodD0iNDAwIiBmaWxsPSIjMzIzMjMyIiB3aWR0aD0iMTQxcHgiIGZvbnQtc2l6ZT0iMTNweCIgdGV4dC1hbmNob3I9Im1pZGRsZSIgZm9udC1mYW1pbHk9IuW+rui9r+mbhem7kSIgaWQ9IlN2Z2pzVGV4dDEzMDAiPjx0c3BhbiB4PSI4MC41IiBkeT0iMTYiIGlkPSJTdmdqc1RzcGFuMTMwMSI+PHRzcGFuIHN0eWxlPSJ0ZXh0LWRlY29yYXRpb246OyIgaWQ9IlN2Z2pzVHNwYW4xMzAyIj5hY2NvdW50SG9sZFYy5a2Y5ZyoPC90c3Bhbj48L3RzcGFuPjwvdGV4dD48L2c+PC9nPjxnIGlkPSJTdmdqc0cxMzAzIj48cGF0aCBtYXJrZXItZW5kPSJ1cmwoI1N2Z2pzTWFya2VyMTMwNSkiIGZpbGw9Im5vbmUiIHN0cm9rZS13aWR0aD0iMiIgc3Ryb2tlPSIjMzIzMjMyIiBkPSJNMTY5My43NSAxMTA1TDE2OTMuNzUgMTEzNUwxMjkzIDExMzVMMTI5MyAxMDcwTDEyNjcgMTA3MCIgaWQ9IlN2Z2pzUGF0aDEzMDQiLz48cmVjdCBmaWxsPSIjZmZmZmZmIiB5PSIxMTI3IiB4PSIxNDU1LjM3NSIgaGVpZ2h0PSIxNiIgd2lkdGg9IjE1IiBpZD0iU3ZnanNSZWN0MTMwNyIvPjx0ZXh0IHRyYW5zZm9ybT0icm90YXRlKDApIiB5PSIxMTI1LjA1IiBvcGFjaXR5PSIxIiBmb250LXN0eWxlPSIiIHNpemU9IjEzcHgiIGFsaWduPSJ0b3AiIGZvbnQtd2VpZ2h0PSI0MDAiIGZpbGw9IiMzMjMyMzIiIHdpZHRoPSIxNXB4IiBmb250LXNpemU9IjEzcHgiIHRleHQtYW5jaG9yPSJtaWRkbGUiIGZvbnQtZmFtaWx5PSLlvq7ova/pm4Xpu5EiIGlkPSJTdmdqc1RleHQxMzA4Ij48dHNwYW4geD0iMTQ2Mi44NzUiIGR5PSIxNiIgaWQ9IlN2Z2pzVHNwYW4xMzA5Ij48dHNwYW4gc3R5bGU9InRleHQtZGVjb3JhdGlvbjo7IiBpZD0iU3ZnanNUc3BhbjEzMTAiPm5vPC90c3Bhbj48L3RzcGFuPjwvdGV4dD48L2c+PGcgaWQ9IlN2Z2pzRzEzMTEiPjxwYXRoIG1hcmtlci1lbmQ9InVybCgjU3ZnanNNYXJrZXIxMzEzKSIgZmlsbD0ibm9uZSIgc3Ryb2tlLXdpZHRoPSIyIiBzdHJva2U9IiMzMjMyMzIiIGQ9Ik0xNzY5IDEwNzBMMTc5Ny41IDEwNzBMMTc5Ny41IDEwNzBMMTgyOCAxMDcwIiBpZD0iU3ZnanNQYXRoMTMxMiIvPjwvZz48ZyB0cmFuc2Zvcm09InRyYW5zbGF0ZSgxODI4LDEwMzUpIiBpZD0iU3ZnanNHMTMxNSI+PHBhdGggZmlsbD0iI2ZmZmZmZiIgZmlsbC1vcGFjaXR5PSIxIiBzdHJva2Utd2lkdGg9IjIiIHN0cm9rZT0icmdiYSg1MCw1MCw1MCwxKSIgZD0iTSAwIDBMIDE2MSAwTCAxNjEgNzBMIDAgNzBaIiBpZD0iU3ZnanNQYXRoMTMxNiIvPjxnIGlkPSJTdmdqc0cxMzE3Ij48dGV4dCB0cmFuc2Zvcm09InJvdGF0ZSgwKSIgeT0iOS4wNSIgb3BhY2l0eT0iMSIgZm9udC1zdHlsZT0iIiBzaXplPSIxM3B4IiBhbGlnbj0ibWlkZGxlIiBmb250LXdlaWdodD0iNDAwIiBmaWxsPSIjMzIzMjMyIiB3aWR0aD0iMTQxcHgiIGZvbnQtc2l6ZT0iMTNweCIgdGV4dC1hbmNob3I9Im1pZGRsZSIgZm9udC1mYW1pbHk9IuW+rui9r+mbhem7kSIgaWQ9IlN2Z2pzVGV4dDEzMTgiPjx0c3BhbiB4PSI4MC41IiBkeT0iMTYiIGlkPSJTdmdqc1RzcGFuMTMxOSI+PHRzcGFuIHN0eWxlPSJ0ZXh0LWRlY29yYXRpb246OyIgaWQ9IlN2Z2pzVHNwYW4xMzIwIj51cGRhdGXvvJrmiaPlh488L3RzcGFuPjwvdHNwYW4+PHRzcGFuIHg9IjgwLjUiIGR5PSIxNiIgaWQ9IlN2Z2pzVHNwYW4xMzIxIj48dHNwYW4gc3R5bGU9InRleHQtZGVjb3JhdGlvbjo7IiBpZD0iU3ZnanNUc3BhbjEzMjIiPnVubW91bnRBbW91bnQgb3JkZXIgPC90c3Bhbj48L3RzcGFuPjx0c3BhbiB4PSI4MC41IiBkeT0iMTYiIGlkPSJTdmdqc1RzcGFuMTMyMyI+PHRzcGFuIHN0eWxlPSJ0ZXh0LWRlY29yYXRpb246OyIgaWQ9IlN2Z2pzVHNwYW4xMzI0Ij5hY2NvdW50SG9sZDwvdHNwYW4+PC90c3Bhbj48L3RleHQ+PC9nPjwvZz48ZyBpZD0iU3ZnanNHMTMyNSI+PHBhdGggbWFya2VyLWVuZD0idXJsKCNTdmdqc01hcmtlcjEzMjcpIiBmaWxsPSJub25lIiBzdHJva2Utd2lkdGg9IjIiIHN0cm9rZT0iIzMyMzIzMiIgZD0iTTEyMDEgMTIyM0wxMjAxIDEyNzlMMTQ1NiAxMjc5IiBpZD0iU3ZnanNQYXRoMTMyNiIvPjwvZz48ZyB0cmFuc2Zvcm09InRyYW5zbGF0ZSgxNDU2LDEyNDQpIiBpZD0iU3ZnanNHMTMyOSI+PHBhdGggZmlsbD0iI2ZmZmZmZiIgZmlsbC1vcGFjaXR5PSIxIiBzdHJva2Utd2lkdGg9IjIiIHN0cm9rZT0icmdiYSg1MCw1MCw1MCwxKSIgZD0iTSAwIDBMIDEwMCAwTCAxMDAgNzBMIDAgNzBaIiBpZD0iU3ZnanNQYXRoMTMzMCIvPjxnIGlkPSJTdmdqc0cxMzMxIj48dGV4dCB0cmFuc2Zvcm09InJvdGF0ZSgwKSIgeT0iOS4wNSIgb3BhY2l0eT0iMSIgZm9udC1zdHlsZT0iIiBzaXplPSIxM3B4IiBhbGlnbj0ibWlkZGxlIiBmb250LXdlaWdodD0iNDAwIiBmaWxsPSIjMzIzMjMyIiB3aWR0aD0iODBweCIgZm9udC1zaXplPSIxM3B4IiB0ZXh0LWFuY2hvcj0ibWlkZGxlIiBmb250LWZhbWlseT0i5b6u6L2v6ZuF6buRIiBpZD0iU3ZnanNUZXh0MTMzMiI+PHRzcGFuIHg9IjUwIiBkeT0iMTYiIGlkPSJTdmdqc1RzcGFuMTMzMyI+PHRzcGFuIHN0eWxlPSJ0ZXh0LWRlY29yYXRpb246OyIgaWQ9IlN2Z2pzVHNwYW4xMzM0Ij51cGRhdGUgPC90c3Bhbj48L3RzcGFuPjx0c3BhbiB4PSI1MCIgZHk9IjE2IiBpZD0iU3ZnanNUc3BhbjEzMzUiPjx0c3BhbiBzdHlsZT0idGV4dC1kZWNvcmF0aW9uOjsiIGlkPSJTdmdqc1RzcGFuMTMzNiI+cG9zaXRpb24gPC90c3Bhbj48L3RzcGFuPjx0c3BhbiB4PSI1MCIgZHk9IjE2IiBpZD0iU3ZnanNUc3BhbjEzMzciPjx0c3BhbiBzdHlsZT0idGV4dC1kZWNvcmF0aW9uOjsiIGlkPSJTdmdqc1RzcGFuMTMzOCI+YWNjb3VudEhvbGQ8L3RzcGFuPjwvdHNwYW4+PC90ZXh0PjwvZz48L2c+PGcgaWQ9IlN2Z2pzRzEzMzkiPjxwYXRoIG1hcmtlci1lbmQ9InVybCgjU3ZnanNNYXJrZXIxMzQxKSIgZmlsbD0ibm9uZSIgc3Ryb2tlLXdpZHRoPSIyIiBzdHJva2U9IiMzMjMyMzIiIGQ9Ik0xOTA4LjUgMTEwNUwxOTA4LjUgMTI3OUwxNTU2IDEyNzkiIGlkPSJTdmdqc1BhdGgxMzQwIi8+PC9nPjxnIHRyYW5zZm9ybT0idHJhbnNsYXRlKDI0MTIsODY5KSIgaWQ9IlN2Z2pzRzEzNDMiPjxwYXRoIGZpbGw9IiNmZmZmZmYiIGZpbGwtb3BhY2l0eT0iMSIgc3Ryb2tlLXdpZHRoPSIyIiBzdHJva2U9InJnYmEoNTAsNTAsNTAsMSkiIGQ9Ik0gMCAwTCAyODAgMEwgMjgwIDQwTCAwIDQwWiIgaWQ9IlN2Z2pzUGF0aDEzNDQiLz48ZyBpZD0iU3ZnanNHMTM0NSI+PHRleHQgdHJhbnNmb3JtPSJyb3RhdGUoMCkiIHk9IjEwLjA1IiBvcGFjaXR5PSIxIiBmb250LXN0eWxlPSIiIHNpemU9IjEzcHgiIGFsaWduPSJtaWRkbGUiIGZvbnQtd2VpZ2h0PSI0MDAiIGZpbGw9IiMzMjMyMzIiIHdpZHRoPSIyNjBweCIgZm9udC1zaXplPSIxM3B4IiB0ZXh0LWFuY2hvcj0ibWlkZGxlIiBmb250LWZhbWlseT0i5b6u6L2v6ZuF6buRIiBpZD0iU3ZnanNUZXh0MTM0NiI+PHRzcGFuIHg9IjE0MCIgZHk9IjE2IiBpZD0iU3ZnanNUc3BhbjEzNDciPjx0c3BhbiBzdHlsZT0idGV4dC1kZWNvcmF0aW9uOjsiIGlkPSJTdmdqc1RzcGFuMTM0OCI+QWNjb3VudElubmVyQ29udHJvbGxlci5zdWJ0cmFjdEhvbGRGdW5kczwvdHNwYW4+PC90c3Bhbj48L3RleHQ+PC9nPjwvZz48ZyBpZD0iU3ZnanNHMTM0OSI+PHBhdGggbWFya2VyLWVuZD0idXJsKCNTdmdqc01hcmtlcjEzNTEpIiBmaWxsPSJub25lIiBzdHJva2Utd2lkdGg9IjIiIHN0cm9rZT0iIzMyMzIzMiIgZD0iTTI1NTAgOTA5TDI1NTAgOTMzLjY0Mjg1NzE0Mjg1NzFMMjU1MCA5MzMuNjQyODU3MTQyODU3MUwyNTUwIDk2Mi43ODU3MTQyODU3MTQyIiBpZD0iU3ZnanNQYXRoMTM1MCIvPjwvZz48ZyB0cmFuc2Zvcm09InRyYW5zbGF0ZSgyNDY2LjUsOTY0KSIgaWQ9IlN2Z2pzRzEzNTMiPjxwYXRoIGZpbGw9IiNmZmZmZmYiIGZpbGwtb3BhY2l0eT0iMSIgc3Ryb2tlLXdpZHRoPSIyIiBzdHJva2U9InJnYmEoNTAsNTAsNTAsMSkiIGQ9Ik0gMCAwTCAxNzEgMEwgMTcxIDgwTCAwIDgwWiIgaWQ9IlN2Z2pzUGF0aDEzNTQiLz48ZyBpZD0iU3ZnanNHMTM1NSI+PHRleHQgdHJhbnNmb3JtPSJyb3RhdGUoMCkiIHk9IjE0LjA1IiBvcGFjaXR5PSIxIiBmb250LXN0eWxlPSIiIHNpemU9IjEzcHgiIGFsaWduPSJtaWRkbGUiIGZvbnQtd2VpZ2h0PSI0MDAiIGZpbGw9IiMzMjMyMzIiIHdpZHRoPSIxNTFweCIgZm9udC1zaXplPSIxM3B4IiB0ZXh0LWFuY2hvcj0ibWlkZGxlIiBmb250LWZhbWlseT0i5b6u6L2v6ZuF6buRIiBpZD0iU3ZnanNUZXh0MTM1NiI+PHRzcGFuIHg9Ijg1LjUiIGR5PSIxNiIgaWQ9IlN2Z2pzVHNwYW4xMzU3Ij48dHNwYW4gc3R5bGU9InRleHQtZGVjb3JhdGlvbjo7IiBpZD0iU3ZnanNUc3BhbjEzNTgiPmluc2VydCA8L3RzcGFuPjwvdHNwYW4+PHRzcGFuIHg9Ijg1LjUiIGR5PSIxNiIgaWQ9IlN2Z2pzVHNwYW4xMzU5Ij48dHNwYW4gc3R5bGU9InRleHQtZGVjb3JhdGlvbjo7IiBpZD0iU3ZnanNUc3BhbjEzNjAiPmFjY291bnRUeCxhY2NvdW50SG9sZFQ8L3RzcGFuPjwvdHNwYW4+PHRzcGFuIHg9Ijg1LjUiIGR5PSIxNiIgaWQ9IlN2Z2pzVHNwYW4xMzYxIj48dHNwYW4gc3R5bGU9InRleHQtZGVjb3JhdGlvbjo7IiBpZD0iU3ZnanNUc3BhbjEzNjIiPng8L3RzcGFuPjwvdHNwYW4+PC90ZXh0PjwvZz48L2c+PGcgaWQ9IlN2Z2pzRzEzNjMiPjxwYXRoIG1hcmtlci1lbmQ9InVybCgjU3ZnanNNYXJrZXIxMzY1KSIgZmlsbD0ibm9uZSIgc3Ryb2tlLXdpZHRoPSIyIiBzdHJva2U9IiMzMjMyMzIiIGQ9Ik0yNTUyIDEwNDRMMjU1MiAxMDg0TDI1NTIgMTA4NEwyNTUyIDExMTciIGlkPSJTdmdqc1BhdGgxMzY0Ii8+PC9nPjxnIHRyYW5zZm9ybT0idHJhbnNsYXRlKDI1MDYsMTExNykiIGlkPSJTdmdqc0cxMzY3Ij48cGF0aCBmaWxsPSIjZmZmZmZmIiBmaWxsLW9wYWNpdHk9IjEiIHN0cm9rZS13aWR0aD0iMiIgc3Ryb2tlPSJyZ2JhKDUwLDUwLDUwLDEpIiBkPSJNIDAgMzVMIDQ2IDBMIDkyIDM1TCA0NiA3MEwgMCAzNVoiIGlkPSJTdmdqc1BhdGgxMzY4Ii8+PGcgaWQ9IlN2Z2pzRzEzNjkiPjx0ZXh0IHRyYW5zZm9ybT0icm90YXRlKDApIiB5PSIyNS4wNSIgb3BhY2l0eT0iMSIgZm9udC1zdHlsZT0iIiBzaXplPSIxM3B4IiBhbGlnbj0ibWlkZGxlIiBmb250LXdlaWdodD0iNDAwIiBmaWxsPSIjMzIzMjMyIiB3aWR0aD0iNzJweCIgZm9udC1zaXplPSIxM3B4IiB0ZXh0LWFuY2hvcj0ibWlkZGxlIiBmb250LWZhbWlseT0i5b6u6L2v6ZuF6buRIiBpZD0iU3ZnanNUZXh0MTM3MCI+PHRzcGFuIHg9IjQ2IiBkeT0iMTYiIGlkPSJTdmdqc1RzcGFuMTM3MSI+PHRzcGFuIHN0eWxlPSJ0ZXh0LWRlY29yYXRpb246OyIgaWQ9IlN2Z2pzVHNwYW4xMzcyIj7liIfmtYE8L3RzcGFuPjwvdHNwYW4+PC90ZXh0PjwvZz48L2c+PGcgaWQ9IlN2Z2pzRzEzNzMiPjxwYXRoIG1hcmtlci1lbmQ9InVybCgjU3ZnanNNYXJrZXIxMzc1KSIgZmlsbD0ibm9uZSIgc3Ryb2tlLXdpZHRoPSIyIiBzdHJva2U9IiMzMjMyMzIiIGQ9Ik0yNTA2IDExNTJMMjI3MyAxMTUyTDIyNzMgMTI1MiIgaWQ9IlN2Z2pzUGF0aDEzNzQiLz48cmVjdCBmaWxsPSIjZmZmZmZmIiB5PSIxMTQ0IiB4PSIyMzMzIiBoZWlnaHQ9IjE2IiB3aWR0aD0iMTMiIGlkPSJTdmdqc1JlY3QxMzc3Ii8+PHRleHQgdHJhbnNmb3JtPSJyb3RhdGUoMCkiIHk9IjExNDIuMDUiIG9wYWNpdHk9IjEiIGZvbnQtc3R5bGU9IiIgc2l6ZT0iMTNweCIgYWxpZ249InRvcCIgZm9udC13ZWlnaHQ9IjQwMCIgZmlsbD0iIzMyMzIzMiIgd2lkdGg9IjEzcHgiIGZvbnQtc2l6ZT0iMTNweCIgdGV4dC1hbmNob3I9Im1pZGRsZSIgZm9udC1mYW1pbHk9IuW+rui9r+mbhem7kSIgaWQ9IlN2Z2pzVGV4dDEzNzgiPjx0c3BhbiB4PSIyMzM5LjUiIGR5PSIxNiIgaWQ9IlN2Z2pzVHNwYW4xMzc5Ij48dHNwYW4gc3R5bGU9InRleHQtZGVjb3JhdGlvbjo7IiBpZD0iU3ZnanNUc3BhbjEzODAiPuiAgTwvdHNwYW4+PC90c3Bhbj48L3RleHQ+PC9nPjxnIGlkPSJTdmdqc0cxMzgxIj48cGF0aCBtYXJrZXItZW5kPSJ1cmwoI1N2Z2pzTWFya2VyMTM4MykiIGZpbGw9Im5vbmUiIHN0cm9rZS13aWR0aD0iMiIgc3Ryb2tlPSIjMzIzMjMyIiBkPSJNMjU5OCAxMTUyTDI2MzYuNSAxMTUyTDI2MzYuNSAxMTUyTDI2NzYgMTE1MiIgaWQ9IlN2Z2pzUGF0aDEzODIiLz48cmVjdCBmaWxsPSIjZmZmZmZmIiB5PSIxMTQ0LjAwMDAwMDAwMDAwMDIiIHg9IjI2MzAuNSIgaGVpZ2h0PSIxNiIgd2lkdGg9IjEzIiBpZD0iU3ZnanNSZWN0MTM4NSIvPjx0ZXh0IHRyYW5zZm9ybT0icm90YXRlKDApIiB5PSIxMTQyLjA1MDAwMDAwMDAwMDIiIG9wYWNpdHk9IjEiIGZvbnQtc3R5bGU9IiIgc2l6ZT0iMTNweCIgYWxpZ249InRvcCIgZm9udC13ZWlnaHQ9IjQwMCIgZmlsbD0iIzMyMzIzMiIgd2lkdGg9IjEzcHgiIGZvbnQtc2l6ZT0iMTNweCIgdGV4dC1hbmNob3I9Im1pZGRsZSIgZm9udC1mYW1pbHk9IuW+rui9r+mbhem7kSIgaWQ9IlN2Z2pzVGV4dDEzODYiPjx0c3BhbiB4PSIyNjM3IiBkeT0iMTYiIGlkPSJTdmdqc1RzcGFuMTM4NyI+PHRzcGFuIHN0eWxlPSJ0ZXh0LWRlY29yYXRpb246OyIgaWQ9IlN2Z2pzVHNwYW4xMzg4Ij7mlrA8L3RzcGFuPjwvdHNwYW4+PC90ZXh0PjwvZz48ZyB0cmFuc2Zvcm09InRyYW5zbGF0ZSgyMTkyLjUsMTI1MikiIGlkPSJTdmdqc0cxMzg5Ij48cGF0aCBmaWxsPSIjZmZmZmZmIiBmaWxsLW9wYWNpdHk9IjEiIHN0cm9rZS13aWR0aD0iMiIgc3Ryb2tlPSJyZ2JhKDUwLDUwLDUwLDEpIiBkPSJNIDAgMEwgMTYxIDBMIDE2MSA1NEwgMCA1NFoiIGlkPSJTdmdqc1BhdGgxMzkwIi8+PGcgaWQ9IlN2Z2pzRzEzOTEiPjx0ZXh0IHRyYW5zZm9ybT0icm90YXRlKDApIiB5PSIxLjA1IiBvcGFjaXR5PSIxIiBmb250LXN0eWxlPSIiIHNpemU9IjEzcHgiIGFsaWduPSJtaWRkbGUiIGZvbnQtd2VpZ2h0PSI0MDAiIGZpbGw9IiMzMjMyMzIiIHdpZHRoPSIxNDFweCIgZm9udC1zaXplPSIxM3B4IiB0ZXh0LWFuY2hvcj0ibWlkZGxlIiBmb250LWZhbWlseT0i5b6u6L2v6ZuF6buRIiBpZD0iU3ZnanNUZXh0MTM5MiI+PHRzcGFuIHg9IjgwLjUiIGR5PSIxNiIgaWQ9IlN2Z2pzVHNwYW4xMzkzIj48dHNwYW4gc3R5bGU9InRleHQtZGVjb3JhdGlvbjo7IiBpZD0iU3ZnanNUc3BhbjEzOTQiPnVwZGF0Ze+8muaJo+WHjzwvdHNwYW4+PC90c3Bhbj48dHNwYW4geD0iODAuNSIgZHk9IjE2IiBpZD0iU3ZnanNUc3BhbjEzOTUiPjx0c3BhbiBzdHlsZT0idGV4dC1kZWNvcmF0aW9uOjsiIGlkPSJTdmdqc1RzcGFuMTM5NiI+dW5tb3VudEFtb3VudCBvcmRlciA8L3RzcGFuPjwvdHNwYW4+PHRzcGFuIHg9IjgwLjUiIGR5PSIxNiIgaWQ9IlN2Z2pzVHNwYW4xMzk3Ij48dHNwYW4gc3R5bGU9InRleHQtZGVjb3JhdGlvbjo7IiBpZD0iU3ZnanNUc3BhbjEzOTgiPmFjY291bnRIb2xkPC90c3Bhbj48L3RzcGFuPjwvdGV4dD48L2c+PC9nPjxnIGlkPSJTdmdqc0cxMzk5Ij48cGF0aCBtYXJrZXItZW5kPSJ1cmwoI1N2Z2pzTWFya2VyMTQwMSkiIGZpbGw9Im5vbmUiIHN0cm9rZS13aWR0aD0iMiIgc3Ryb2tlPSIjMzIzMjMyIiBkPSJNMjc1Ni41IDExODdMMjc1Ni41IDEyNzlMMjM1My41IDEyNzkiIGlkPSJTdmdqc1BhdGgxNDAwIi8+PHJlY3QgZmlsbD0iI2ZmZmZmZiIgeT0iMTI3MSIgeD0iMjU5My41IiBoZWlnaHQ9IjE2IiB3aWR0aD0iMTUiIGlkPSJTdmdqc1JlY3QxNDAzIi8+PHRleHQgdHJhbnNmb3JtPSJyb3RhdGUoMCkiIHk9IjEyNjkuMDUiIG9wYWNpdHk9IjEiIGZvbnQtc3R5bGU9IiIgc2l6ZT0iMTNweCIgYWxpZ249InRvcCIgZm9udC13ZWlnaHQ9IjQwMCIgZmlsbD0iIzMyMzIzMiIgd2lkdGg9IjE1cHgiIGZvbnQtc2l6ZT0iMTNweCIgdGV4dC1hbmNob3I9Im1pZGRsZSIgZm9udC1mYW1pbHk9IuW+rui9r+mbhem7kSIgaWQ9IlN2Z2pzVGV4dDE0MDQiPjx0c3BhbiB4PSIyNjAxIiBkeT0iMTYiIGlkPSJTdmdqc1RzcGFuMTQwNSI+PHRzcGFuIHN0eWxlPSJ0ZXh0LWRlY29yYXRpb246OyIgaWQ9IlN2Z2pzVHNwYW4xNDA2Ij5ubzwvdHNwYW4+PC90c3Bhbj48L3RleHQ+PC9nPjxnIHRyYW5zZm9ybT0idHJhbnNsYXRlKDI5MDEsMTExNykiIGlkPSJTdmdqc0cxNDA3Ij48cGF0aCBmaWxsPSIjZmZmZmZmIiBmaWxsLW9wYWNpdHk9IjEiIHN0cm9rZS13aWR0aD0iMiIgc3Ryb2tlPSJyZ2JhKDUwLDUwLDUwLDEpIiBkPSJNIDAgMEwgMTYxIDBMIDE2MSA3MEwgMCA3MFoiIGlkPSJTdmdqc1BhdGgxNDA4Ii8+PGcgaWQ9IlN2Z2pzRzE0MDkiPjx0ZXh0IHRyYW5zZm9ybT0icm90YXRlKDApIiB5PSI5LjA1IiBvcGFjaXR5PSIxIiBmb250LXN0eWxlPSIiIHNpemU9IjEzcHgiIGFsaWduPSJtaWRkbGUiIGZvbnQtd2VpZ2h0PSI0MDAiIGZpbGw9IiMzMjMyMzIiIHdpZHRoPSIxNDFweCIgZm9udC1zaXplPSIxM3B4IiB0ZXh0LWFuY2hvcj0ibWlkZGxlIiBmb250LWZhbWlseT0i5b6u6L2v6ZuF6buRIiBpZD0iU3ZnanNUZXh0MTQxMCI+PHRzcGFuIHg9IjgwLjUiIGR5PSIxNiIgaWQ9IlN2Z2pzVHNwYW4xNDExIj48dHNwYW4gc3R5bGU9InRleHQtZGVjb3JhdGlvbjo7IiBpZD0iU3ZnanNUc3BhbjE0MTIiPnVwZGF0Ze+8muaJo+WHjzwvdHNwYW4+PC90c3Bhbj48dHNwYW4geD0iODAuNSIgZHk9IjE2IiBpZD0iU3ZnanNUc3BhbjE0MTMiPjx0c3BhbiBzdHlsZT0idGV4dC1kZWNvcmF0aW9uOjsiIGlkPSJTdmdqc1RzcGFuMTQxNCI+dW5tb3VudEFtb3VudCBvcmRlciA8L3RzcGFuPjwvdHNwYW4+PHRzcGFuIHg9IjgwLjUiIGR5PSIxNiIgaWQ9IlN2Z2pzVHNwYW4xNDE1Ij48dHNwYW4gc3R5bGU9InRleHQtZGVjb3JhdGlvbjo7IiBpZD0iU3ZnanNUc3BhbjE0MTYiPmFjY291bnRIb2xkPC90c3Bhbj48L3RzcGFuPjwvdGV4dD48L2c+PC9nPjxnIHRyYW5zZm9ybT0idHJhbnNsYXRlKDI2NzYsMTExNykiIGlkPSJTdmdqc0cxNDE3Ij48cGF0aCBmaWxsPSIjZmZmZmZmIiBmaWxsLW9wYWNpdHk9IjEiIHN0cm9rZS13aWR0aD0iMiIgc3Ryb2tlPSJyZ2JhKDUwLDUwLDUwLDEpIiBkPSJNIDAgMzVMIDgwLjUgMEwgMTYxIDM1TCA4MC41IDcwTCAwIDM1WiIgaWQ9IlN2Z2pzUGF0aDE0MTgiLz48ZyBpZD0iU3ZnanNHMTQxOSI+PHRleHQgdHJhbnNmb3JtPSJyb3RhdGUoMCkiIHk9IjI1LjA1IiBvcGFjaXR5PSIxIiBmb250LXN0eWxlPSIiIHNpemU9IjEzcHgiIGFsaWduPSJtaWRkbGUiIGZvbnQtd2VpZ2h0PSI0MDAiIGZpbGw9IiMzMjMyMzIiIHdpZHRoPSIxNDFweCIgZm9udC1zaXplPSIxM3B4IiB0ZXh0LWFuY2hvcj0ibWlkZGxlIiBmb250LWZhbWlseT0i5b6u6L2v6ZuF6buRIiBpZD0iU3ZnanNUZXh0MTQyMCI+PHRzcGFuIHg9IjgwLjUiIGR5PSIxNiIgaWQ9IlN2Z2pzVHNwYW4xNDIxIj48dHNwYW4gc3R5bGU9InRleHQtZGVjb3JhdGlvbjo7IiBpZD0iU3ZnanNUc3BhbjE0MjIiPmFjY291bnRIb2xkVjLlrZjlnKg8L3RzcGFuPjwvdHNwYW4+PC90ZXh0PjwvZz48L2c+PGcgaWQ9IlN2Z2pzRzE0MjMiPjxwYXRoIG1hcmtlci1lbmQ9InVybCgjU3ZnanNNYXJrZXIxNDI1KSIgZmlsbD0ibm9uZSIgc3Ryb2tlLXdpZHRoPSIyIiBzdHJva2U9IiMzMjMyMzIiIGQ9Ik0yODM3IDExNTJMMjg2OC41IDExNTJMMjg2OC41IDExNTJMMjkwMSAxMTUyIiBpZD0iU3ZnanNQYXRoMTQyNCIvPjxyZWN0IGZpbGw9IiNmZmZmZmYiIHk9IjExNDQiIHg9IjI4NTkiIGhlaWdodD0iMTYiIHdpZHRoPSIyMCIgaWQ9IlN2Z2pzUmVjdDE0MjciLz48dGV4dCB0cmFuc2Zvcm09InJvdGF0ZSgwKSIgeT0iMTE0Mi4wNSIgb3BhY2l0eT0iMSIgZm9udC1zdHlsZT0iIiBzaXplPSIxM3B4IiBhbGlnbj0idG9wIiBmb250LXdlaWdodD0iNDAwIiBmaWxsPSIjMzIzMjMyIiB3aWR0aD0iMjBweCIgZm9udC1zaXplPSIxM3B4IiB0ZXh0LWFuY2hvcj0ibWlkZGxlIiBmb250LWZhbWlseT0i5b6u6L2v6ZuF6buRIiBpZD0iU3ZnanNUZXh0MTQyOCI+PHRzcGFuIHg9IjI4NjkiIGR5PSIxNiIgaWQ9IlN2Z2pzVHNwYW4xNDI5Ij48dHNwYW4gc3R5bGU9InRleHQtZGVjb3JhdGlvbjo7IiBpZD0iU3ZnanNUc3BhbjE0MzAiPnllczwvdHNwYW4+PC90c3Bhbj48L3RleHQ+PC9nPjxnIHRyYW5zZm9ybT0idHJhbnNsYXRlKDMwLjUsMTQ1NykiIGlkPSJTdmdqc0cxNDMxIj48cGF0aCBmaWxsPSIjZmZmZmZmIiBmaWxsLW9wYWNpdHk9IjEiIHN0cm9rZS13aWR0aD0iMiIgc3Ryb2tlPSJyZ2JhKDUwLDUwLDUwLDEpIiBkPSJNIDAgMEwgNTA5NyAwTCAwIDBNIDAgMjBMIDUwOTcgMjBMIDAgMjBaIiBpZD0iU3ZnanNQYXRoMTQzMiIvPjxwYXRoIGZpbGw9Im5vbmUiIHN0cm9rZT0ibm9uZSIgZD0iTSAwIDBMIDUwOTcgMEwgNTA5NyAyMEwgMCAyMEwgMCAwWiIgaWQ9IlN2Z2pzUGF0aDE0MzMiLz48ZyBpZD0iU3ZnanNHMTQzNCI+PHRleHQgdHJhbnNmb3JtPSJyb3RhdGUoMCkiIHk9IjAuMDUwMDAwMDAwMDAwMDAwMDQ0IiBvcGFjaXR5PSIxIiBmb250LXN0eWxlPSIiIHNpemU9IjEzcHgiIGFsaWduPSJtaWRkbGUiIGZvbnQtd2VpZ2h0PSI0MDAiIGZpbGw9IiMzMjMyMzIiIHdpZHRoPSI1MDc3cHgiIGZvbnQtc2l6ZT0iMTNweCIgdGV4dC1hbmNob3I9Im1pZGRsZSIgZm9udC1mYW1pbHk9IuW+rui9r+mbhem7kSIgaWQ9IlN2Z2pzVGV4dDE0MzUiLz48L2c+PC9nPjxnIHRyYW5zZm9ybT0idHJhbnNsYXRlKDEwNSw2NzQpIiBpZD0iU3ZnanNHMTQzNiI+PHBhdGggZmlsbD0iI2ZmZmZmZiIgZmlsbC1vcGFjaXR5PSIxIiBzdHJva2Utd2lkdGg9IjIiIHN0cm9rZT0icmdiYSg1MCw1MCw1MCwxKSIgZD0iTSAxNSAwTCA4OC4zMzMzMzMzMzMzMzMzMyAwQyAxMDMuMTgxODE4MTgxODE4MTkgMCAxMDMuMTgxODE4MTgxODE4MTkgNzAgODguMzMzMzMzMzMzMzMzMzMgNzBMIDE1IDcwQyAtNSA3MCAtNSAwIDE1IDBaTSA4OC4zMzMzMzMzMzMzMzMzMyAwQyA3My43NSAwIDczLjc1IDcwIDg4LjMzMzMzMzMzMzMzMzMzIDcwQyA3My43NSA3MCA3My43NSAwIDg4LjMzMzMzMzMzMzMzMzMzIDAiIGlkPSJTdmdqc1BhdGgxNDM3Ii8+PGcgaWQ9IlN2Z2pzRzE0MzgiPjx0ZXh0IHRyYW5zZm9ybT0icm90YXRlKDApIiB5PSIyNS4wNSIgb3BhY2l0eT0iMSIgZm9udC1zdHlsZT0iIiBzaXplPSIxM3B4IiBhbGlnbj0ibWlkZGxlIiBmb250LXdlaWdodD0iNDAwIiBmaWxsPSIjMzIzMjMyIiB3aWR0aD0iODBweCIgZm9udC1zaXplPSIxM3B4IiB0ZXh0LWFuY2hvcj0ibWlkZGxlIiBmb250LWZhbWlseT0i5b6u6L2v6ZuF6buRIiBpZD0iU3ZnanNUZXh0MTQzOSI+PHRzcGFuIHg9IjQwIiBkeT0iMTYiIGlkPSJTdmdqc1RzcGFuMTQ0MCI+PHRzcGFuIHN0eWxlPSJ0ZXh0LWRlY29yYXRpb246OyIgaWQ9IlN2Z2pzVHNwYW4xNDQxIj7mlrnmoYgxPC90c3Bhbj48L3RzcGFuPjwvdGV4dD48L2c+PC9nPjxnIHRyYW5zZm9ybT0idHJhbnNsYXRlKDg4LDE1MzcpIiBpZD0iU3ZnanNHMTQ0MiI+PHBhdGggZmlsbD0iI2ZmZmZmZiIgZmlsbC1vcGFjaXR5PSIxIiBzdHJva2Utd2lkdGg9IjIiIHN0cm9rZT0icmdiYSg1MCw1MCw1MCwxKSIgZD0iTSAxNSAwTCA4OC4zMzMzMzMzMzMzMzMzMyAwQyAxMDMuMTgxODE4MTgxODE4MTkgMCAxMDMuMTgxODE4MTgxODE4MTkgNzAgODguMzMzMzMzMzMzMzMzMzMgNzBMIDE1IDcwQyAtNSA3MCAtNSAwIDE1IDBaTSA4OC4zMzMzMzMzMzMzMzMzMyAwQyA3My43NSAwIDczLjc1IDcwIDg4LjMzMzMzMzMzMzMzMzMzIDcwQyA3My43NSA3MCA3My43NSAwIDg4LjMzMzMzMzMzMzMzMzMzIDAiIGlkPSJTdmdqc1BhdGgxNDQzIi8+PGcgaWQ9IlN2Z2pzRzE0NDQiPjx0ZXh0IHRyYW5zZm9ybT0icm90YXRlKDApIiB5PSIyNS4wNSIgb3BhY2l0eT0iMSIgZm9udC1zdHlsZT0iIiBzaXplPSIxM3B4IiBhbGlnbj0ibWlkZGxlIiBmb250LXdlaWdodD0iNDAwIiBmaWxsPSIjMzIzMjMyIiB3aWR0aD0iODBweCIgZm9udC1zaXplPSIxM3B4IiB0ZXh0LWFuY2hvcj0ibWlkZGxlIiBmb250LWZhbWlseT0i5b6u6L2v6ZuF6buRIiBpZD0iU3ZnanNUZXh0MTQ0NSI+PHRzcGFuIHg9IjQwIiBkeT0iMTYiIGlkPSJTdmdqc1RzcGFuMTQ0NiI+PHRzcGFuIHN0eWxlPSJ0ZXh0LWRlY29yYXRpb246OyIgaWQ9IlN2Z2pzVHNwYW4xNDQ3Ij7mlrnmoYgyPC90c3Bhbj48L3RzcGFuPjwvdGV4dD48L2c+PC9nPjxnIHRyYW5zZm9ybT0idHJhbnNsYXRlKDEzNDgsMTY0NCkiIGlkPSJTdmdqc0cxNDQ4Ij48cGF0aCBmaWxsPSIjZmZmZmZmIiBmaWxsLW9wYWNpdHk9IjEiIHN0cm9rZS13aWR0aD0iMiIgc3Ryb2tlPSJyZ2JhKDUwLDUwLDUwLDEpIiBkPSJNIDAgMEwgMjY2IDBMIDI2NiA0MEwgMCA0MFoiIGlkPSJTdmdqc1BhdGgxNDQ5Ii8+PGcgaWQ9IlN2Z2pzRzE0NTAiPjx0ZXh0IHRyYW5zZm9ybT0icm90YXRlKDApIiB5PSIxMC4wNSIgb3BhY2l0eT0iMSIgZm9udC1zdHlsZT0iIiBzaXplPSIxM3B4IiBhbGlnbj0ibWlkZGxlIiBmb250LXdlaWdodD0iNDAwIiBmaWxsPSIjMzIzMjMyIiB3aWR0aD0iMjQ2cHgiIGZvbnQtc2l6ZT0iMTNweCIgdGV4dC1hbmNob3I9Im1pZGRsZSIgZm9udC1mYW1pbHk9IuW+rui9r+mbhem7kSIgaWQ9IlN2Z2pzVGV4dDE0NTEiPjx0c3BhbiB4PSIxMzMiIGR5PSIxNiIgaWQ9IlN2Z2pzVHNwYW4xNDUyIj48dHNwYW4gc3R5bGU9InRleHQtZGVjb3JhdGlvbjo7IiBpZD0iU3ZnanNUc3BhbjE0NTMiPk1vdmVIb2xkRnVuZHNPcGVyYXRpb25IYW5kbGVyPC90c3Bhbj48L3RzcGFuPjwvdGV4dD48L2c+PC9nPjxnIGlkPSJTdmdqc0cxNDU0Ij48cGF0aCBtYXJrZXItZW5kPSJ1cmwoI1N2Z2pzTWFya2VyMTQ1NikiIGZpbGw9Im5vbmUiIHN0cm9rZS13aWR0aD0iMiIgc3Ryb2tlPSIjMzIzMjMyIiBkPSJNMTQ4MSAxNjg0TDE0ODEgMTcwN0wxNDgxIDE3MDdMMTQ4MSAxNzMzIiBpZD0iU3ZnanNQYXRoMTQ1NSIvPjwvZz48ZyB0cmFuc2Zvcm09InRyYW5zbGF0ZSgxNDAwLjUsMTczMykiIGlkPSJTdmdqc0cxNDU4Ij48cGF0aCBmaWxsPSIjZmZmZmZmIiBmaWxsLW9wYWNpdHk9IjEiIHN0cm9rZS13aWR0aD0iMiIgc3Ryb2tlPSJyZ2JhKDUwLDUwLDUwLDEpIiBkPSJNIDAgMEwgMTYxIDBMIDE2MSA1OEwgMCA1OFoiIGlkPSJTdmdqc1BhdGgxNDU5Ii8+PGcgaWQ9IlN2Z2pzRzE0NjAiPjx0ZXh0IHRyYW5zZm9ybT0icm90YXRlKDApIiB5PSIxOS4wNSIgb3BhY2l0eT0iMSIgZm9udC1zdHlsZT0iIiBzaXplPSIxM3B4IiBhbGlnbj0ibWlkZGxlIiBmb250LXdlaWdodD0iNDAwIiBmaWxsPSIjMzIzMjMyIiB3aWR0aD0iMTQxcHgiIGZvbnQtc2l6ZT0iMTNweCIgdGV4dC1hbmNob3I9Im1pZGRsZSIgZm9udC1mYW1pbHk9IuW+rui9r+mbhem7kSIgaWQ9IlN2Z2pzVGV4dDE0NjEiPjx0c3BhbiB4PSI4MC41IiBkeT0iMTYiIGlkPSJTdmdqc1RzcGFuMTQ2MiI+PHRzcGFuIHN0eWxlPSJ0ZXh0LWRlY29yYXRpb246OyIgaWQ9IlN2Z2pzVHNwYW4xNDYzIj5pbnNlcnQgYWNjb3VudF9ob2xkX3R4PC90c3Bhbj48L3RzcGFuPjwvdGV4dD48L2c+PC9nPjxnIGlkPSJTdmdqc0cxNDY0Ij48cGF0aCBtYXJrZXItZW5kPSJ1cmwoI1N2Z2pzTWFya2VyMTQ2NikiIGZpbGw9Im5vbmUiIHN0cm9rZS13aWR0aD0iMiIgc3Ryb2tlPSIjMzIzMjMyIiBkPSJNMTQ4MSAxNzkxTDE0ODEgMTgwOC4yNUwxNDgxIDE4MDguMjVMMTQ4MSAxODMzIiBpZD0iU3ZnanNQYXRoMTQ2NSIvPjwvZz48ZyB0cmFuc2Zvcm09InRyYW5zbGF0ZSgxNDExLjUsMTgzMykiIGlkPSJTdmdqc0cxNDY4Ij48cGF0aCBmaWxsPSIjZmZmZmZmIiBmaWxsLW9wYWNpdHk9IjEiIHN0cm9rZS13aWR0aD0iMiIgc3Ryb2tlPSJyZ2JhKDUwLDUwLDUwLDEpIiBkPSJNIDAgMEwgMTM5IDBMIDEzOSA1NEwgMCA1NFoiIGlkPSJTdmdqc1BhdGgxNDY5Ii8+PGcgaWQ9IlN2Z2pzRzE0NzAiPjx0ZXh0IHRyYW5zZm9ybT0icm90YXRlKDApIiB5PSI5LjA1IiBvcGFjaXR5PSIxIiBmb250LXN0eWxlPSIiIHNpemU9IjEzcHgiIGFsaWduPSJtaWRkbGUiIGZvbnQtd2VpZ2h0PSI0MDAiIGZpbGw9IiMzMjMyMzIiIHdpZHRoPSIxMTlweCIgZm9udC1zaXplPSIxM3B4IiB0ZXh0LWFuY2hvcj0ibWlkZGxlIiBmb250LWZhbWlseT0i5b6u6L2v6ZuF6buRIiBpZD0iU3ZnanNUZXh0MTQ3MSI+PHRzcGFuIHg9IjY5LjUiIGR5PSIxNiIgaWQ9IlN2Z2pzVHNwYW4xNDcyIj48dHNwYW4gc3R5bGU9InRleHQtZGVjb3JhdGlvbjo7IiBpZD0iU3ZnanNUc3BhbjE0NzMiPuafpeivom9yZGVyIOeahDwvdHNwYW4+PC90c3Bhbj48dHNwYW4geD0iNjkuNSIgZHk9IjE2IiBpZD0iU3ZnanNUc3BhbjE0NzQiPjx0c3BhbiBzdHlsZT0idGV4dC1kZWNvcmF0aW9uOjsiIGlkPSJTdmdqc1RzcGFuMTQ3NSI+YWNjb3VudEhvbGQ8L3RzcGFuPjwvdHNwYW4+PC90ZXh0PjwvZz48L2c+PGcgaWQ9IlN2Z2pzRzE0NzYiPjxwYXRoIG1hcmtlci1lbmQ9InVybCgjU3ZnanNNYXJrZXIxNDc4KSIgZmlsbD0ibm9uZSIgc3Ryb2tlLXdpZHRoPSIyIiBzdHJva2U9IiMzMjMyMzIiIGQ9Ik0xNDgxIDE4ODdMMTQ4MSAxODk4TDE0ODEgMTg5OEwxNDgxIDE5MTQiIGlkPSJTdmdqc1BhdGgxNDc3Ii8+PC9nPjxnIHRyYW5zZm9ybT0idHJhbnNsYXRlKDE0MjcsMTkxNCkiIGlkPSJTdmdqc0cxNDgwIj48cGF0aCBmaWxsPSIjZmZmZmZmIiBmaWxsLW9wYWNpdHk9IjEiIHN0cm9rZS13aWR0aD0iMiIgc3Ryb2tlPSJyZ2JhKDUwLDUwLDUwLDEpIiBkPSJNIDAgMzVMIDU0IDBMIDEwOCAzNUwgNTQgNzBMIDAgMzVaIiBpZD0iU3ZnanNQYXRoMTQ4MSIvPjxnIGlkPSJTdmdqc0cxNDgyIj48dGV4dCB0cmFuc2Zvcm09InJvdGF0ZSgwKSIgeT0iMjUuMDUiIG9wYWNpdHk9IjEiIGZvbnQtc3R5bGU9IiIgc2l6ZT0iMTNweCIgYWxpZ249Im1pZGRsZSIgZm9udC13ZWlnaHQ9IjQwMCIgZmlsbD0iIzMyMzIzMiIgd2lkdGg9Ijg4cHgiIGZvbnQtc2l6ZT0iMTNweCIgdGV4dC1hbmNob3I9Im1pZGRsZSIgZm9udC1mYW1pbHk9IuW+rui9r+mbhem7kSIgaWQ9IlN2Z2pzVGV4dDE0ODMiPjx0c3BhbiB4PSI1NCIgZHk9IjE2IiBpZD0iU3ZnanNUc3BhbjE0ODQiPjx0c3BhbiBzdHlsZT0idGV4dC1kZWNvcmF0aW9uOjsiIGlkPSJTdmdqc1RzcGFuMTQ4NSI+5pawcGF5OmhvbGRJZDwvdHNwYW4+PC90c3Bhbj48L3RleHQ+PC9nPjwvZz48ZyBpZD0iU3ZnanNHMTQ4NiI+PHBhdGggbWFya2VyLWVuZD0idXJsKCNTdmdqc01hcmtlcjE0ODgpIiBmaWxsPSJub25lIiBzdHJva2Utd2lkdGg9IjIiIHN0cm9rZT0iIzMyMzIzMiIgZD0iTTE1MzUgMTk0OUwxNTcxIDE5NDlMMTU3MSAxOTQ5TDE2MTUgMTk0OSIgaWQ9IlN2Z2pzUGF0aDE0ODciLz48cmVjdCBmaWxsPSIjZmZmZmZmIiB5PSIxOTQxIiB4PSIxNTY4LjUiIGhlaWdodD0iMTYiIHdpZHRoPSIxMyIgaWQ9IlN2Z2pzUmVjdDE0OTAiLz48dGV4dCB0cmFuc2Zvcm09InJvdGF0ZSgwKSIgeT0iMTkzOS4wNSIgb3BhY2l0eT0iMSIgZm9udC1zdHlsZT0iIiBzaXplPSIxM3B4IiBhbGlnbj0idG9wIiBmb250LXdlaWdodD0iNDAwIiBmaWxsPSIjMzIzMjMyIiB3aWR0aD0iMTNweCIgZm9udC1zaXplPSIxM3B4IiB0ZXh0LWFuY2hvcj0ibWlkZGxlIiBmb250LWZhbWlseT0i5b6u6L2v6ZuF6buRIiBpZD0iU3ZnanNUZXh0MTQ5MSI+PHRzcGFuIHg9IjE1NzUiIGR5PSIxNiIgaWQ9IlN2Z2pzVHNwYW4xNDkyIj48dHNwYW4gc3R5bGU9InRleHQtZGVjb3JhdGlvbjo7IiBpZD0iU3ZnanNUc3BhbjE0OTMiPuaWsDwvdHNwYW4+PC90c3Bhbj48L3RleHQ+PC9nPjxnIHRyYW5zZm9ybT0idHJhbnNsYXRlKDg2NC41LDE5MTQpIiBpZD0iU3ZnanNHMTQ5NCI+PHBhdGggZmlsbD0iI2ZmZmZmZiIgZmlsbC1vcGFjaXR5PSIxIiBzdHJva2Utd2lkdGg9IjIiIHN0cm9rZT0icmdiYSg1MCw1MCw1MCwxKSIgZD0iTSAwIDM1TCA4MC41IDBMIDE2MSAzNUwgODAuNSA3MEwgMCAzNVoiIGlkPSJTdmdqc1BhdGgxNDk1Ii8+PGcgaWQ9IlN2Z2pzRzE0OTYiPjx0ZXh0IHRyYW5zZm9ybT0icm90YXRlKDApIiB5PSIyNS4wNSIgb3BhY2l0eT0iMSIgZm9udC1zdHlsZT0iIiBzaXplPSIxM3B4IiBhbGlnbj0ibWlkZGxlIiBmb250LXdlaWdodD0iNDAwIiBmaWxsPSIjMzIzMjMyIiB3aWR0aD0iMTQxcHgiIGZvbnQtc2l6ZT0iMTNweCIgdGV4dC1hbmNob3I9Im1pZGRsZSIgZm9udC1mYW1pbHk9IuW+rui9r+mbhem7kSIgaWQ9IlN2Z2pzVGV4dDE0OTciPjx0c3BhbiB4PSI4MC41IiBkeT0iMTYiIGlkPSJTdmdqc1RzcGFuMTQ5OCI+PHRzcGFuIHN0eWxlPSJ0ZXh0LWRlY29yYXRpb246OyIgaWQ9IlN2Z2pzVHNwYW4xNDk5Ij7ogIFhY2NvdW50SG9sZOWtmOWcqDwvdHNwYW4+PC90c3Bhbj48L3RleHQ+PC9nPjwvZz48ZyBpZD0iU3ZnanNHMTUwMCI+PHBhdGggbWFya2VyLWVuZD0idXJsKCNTdmdqc01hcmtlcjE1MDIpIiBmaWxsPSJub25lIiBzdHJva2Utd2lkdGg9IjIiIHN0cm9rZT0iIzMyMzIzMiIgZD0iTTk0NSAxOTE0TDk0NSAxODc4LjI1TDk0NSAxODc4LjI1TDk0NSAxODQzLjUiIGlkPSJTdmdqc1BhdGgxNTAxIi8+PHJlY3QgZmlsbD0iI2ZmZmZmZiIgeT0iMTg3MC43NSIgeD0iOTM3LjUiIGhlaWdodD0iMTYiIHdpZHRoPSIxNSIgaWQ9IlN2Z2pzUmVjdDE1MDQiLz48dGV4dCB0cmFuc2Zvcm09InJvdGF0ZSgwKSIgeT0iMTg2OC44IiBvcGFjaXR5PSIxIiBmb250LXN0eWxlPSIiIHNpemU9IjEzcHgiIGFsaWduPSJ0b3AiIGZvbnQtd2VpZ2h0PSI0MDAiIGZpbGw9IiMzMjMyMzIiIHdpZHRoPSIxNXB4IiBmb250LXNpemU9IjEzcHgiIHRleHQtYW5jaG9yPSJtaWRkbGUiIGZvbnQtZmFtaWx5PSLlvq7ova/pm4Xpu5EiIGlkPSJTdmdqc1RleHQxNTA1Ij48dHNwYW4geD0iOTQ1IiBkeT0iMTYiIGlkPSJTdmdqc1RzcGFuMTUwNiI+PHRzcGFuIHN0eWxlPSJ0ZXh0LWRlY29yYXRpb246OyIgaWQ9IlN2Z2pzVHNwYW4xNTA3Ij5ubzwvdHNwYW4+PC90c3Bhbj48L3RleHQ+PC9nPjxnIHRyYW5zZm9ybT0idHJhbnNsYXRlKDg5NSwxNzYzLjUpIiBpZD0iU3ZnanNHMTUwOCI+PHBhdGggZmlsbD0iI2ZmZmZmZiIgZmlsbC1vcGFjaXR5PSIxIiBzdHJva2Utd2lkdGg9IjIiIHN0cm9rZT0icmdiYSg1MCw1MCw1MCwxKSIgZD0iTSAwIDQwQyAwIC0xMy4zMzMzMzMzMzMzMzMzMzQgMTAwIC0xMy4zMzMzMzMzMzMzMzMzMzQgMTAwIDQwQyAxMDAgOTMuMzMzMzMzMzMzMzMzMzMgMCA5My4zMzMzMzMzMzMzMzMzMyAwIDQwWiIgaWQ9IlN2Z2pzUGF0aDE1MDkiLz48ZyBpZD0iU3ZnanNHMTUxMCI+PHRleHQgdHJhbnNmb3JtPSJyb3RhdGUoMCkiIHk9IjIyLjA1IiBvcGFjaXR5PSIxIiBmb250LXN0eWxlPSIiIHNpemU9IjEzcHgiIGFsaWduPSJtaWRkbGUiIGZvbnQtd2VpZ2h0PSI0MDAiIGZpbGw9IiMzMjMyMzIiIHdpZHRoPSI4MHB4IiBmb250LXNpemU9IjEzcHgiIHRleHQtYW5jaG9yPSJtaWRkbGUiIGZvbnQtZmFtaWx5PSLlvq7ova/pm4Xpu5EiIGlkPSJTdmdqc1RleHQxNTExIj48dHNwYW4geD0iNTAiIGR5PSIxNiIgaWQ9IlN2Z2pzVHNwYW4xNTEyIj48dHNwYW4gc3R5bGU9InRleHQtZGVjb3JhdGlvbjo7IiBpZD0iU3ZnanNUc3BhbjE1MTMiPk5PX0hPTERfQjwvdHNwYW4+PC90c3Bhbj48dHNwYW4geD0iNTAiIGR5PSIxNiIgaWQ9IlN2Z2pzVHNwYW4xNTE0Ij48dHNwYW4gc3R5bGU9InRleHQtZGVjb3JhdGlvbjo7IiBpZD0iU3ZnanNUc3BhbjE1MTUiPkFMQU5DRTwvdHNwYW4+PC90c3Bhbj48L3RleHQ+PC9nPjwvZz48ZyBpZD0iU3ZnanNHMTUxNiI+PHBhdGggbWFya2VyLWVuZD0idXJsKCNTdmdqc01hcmtlcjE1MTgpIiBmaWxsPSJub25lIiBzdHJva2Utd2lkdGg9IjIiIHN0cm9rZT0iIzMyMzIzMiIgZD0iTTk0NSAxOTg0TDk0NSAyMDE3LjVMOTQ1IDIwMTcuNUw5NDUgMjA1MSIgaWQ9IlN2Z2pzUGF0aDE1MTciLz48cmVjdCBmaWxsPSIjZmZmZmZmIiB5PSIyMDA5LjUiIHg9IjkzNSIgaGVpZ2h0PSIxNiIgd2lkdGg9IjIwIiBpZD0iU3ZnanNSZWN0MTUyMCIvPjx0ZXh0IHRyYW5zZm9ybT0icm90YXRlKDApIiB5PSIyMDA3LjU1IiBvcGFjaXR5PSIxIiBmb250LXN0eWxlPSIiIHNpemU9IjEzcHgiIGFsaWduPSJ0b3AiIGZvbnQtd2VpZ2h0PSI0MDAiIGZpbGw9IiMzMjMyMzIiIHdpZHRoPSIyMHB4IiBmb250LXNpemU9IjEzcHgiIHRleHQtYW5jaG9yPSJtaWRkbGUiIGZvbnQtZmFtaWx5PSLlvq7ova/pm4Xpu5EiIGlkPSJTdmdqc1RleHQxNTIxIj48dHNwYW4geD0iOTQ1IiBkeT0iMTYiIGlkPSJTdmdqc1RzcGFuMTUyMiI+PHRzcGFuIHN0eWxlPSJ0ZXh0LWRlY29yYXRpb246OyIgaWQ9IlN2Z2pzVHNwYW4xNTIzIj55ZXM8L3RzcGFuPjwvdHNwYW4+PC90ZXh0PjwvZz48ZyB0cmFuc2Zvcm09InRyYW5zbGF0ZSg4NjQuNSwyMDUxKSIgaWQ9IlN2Z2pzRzE1MjQiPjxwYXRoIGZpbGw9IiNmZmZmZmYiIGZpbGwtb3BhY2l0eT0iMSIgc3Ryb2tlLXdpZHRoPSIyIiBzdHJva2U9InJnYmEoNTAsNTAsNTAsMSkiIGQ9Ik0gMCAwTCAxNjEgMEwgMTYxIDU0TCAwIDU0WiIgaWQ9IlN2Z2pzUGF0aDE1MjUiLz48ZyBpZD0iU3ZnanNHMTUyNiI+PHRleHQgdHJhbnNmb3JtPSJyb3RhdGUoMCkiIHk9IjEuMDUiIG9wYWNpdHk9IjEiIGZvbnQtc3R5bGU9IiIgc2l6ZT0iMTNweCIgYWxpZ249Im1pZGRsZSIgZm9udC13ZWlnaHQ9IjQwMCIgZmlsbD0iIzMyMzIzMiIgd2lkdGg9IjE0MXB4IiBmb250LXNpemU9IjEzcHgiIHRleHQtYW5jaG9yPSJtaWRkbGUiIGZvbnQtZmFtaWx5PSLlvq7ova/pm4Xpu5EiIGlkPSJTdmdqc1RleHQxNTI3Ij48dHNwYW4geD0iODAuNSIgZHk9IjE2IiBpZD0iU3ZnanNUc3BhbjE1MjgiPjx0c3BhbiBzdHlsZT0idGV4dC1kZWNvcmF0aW9uOjsiIGlkPSJTdmdqc1RzcGFuMTUyOSI+dXBkYXRl77ya5omj5YePPC90c3Bhbj48L3RzcGFuPjx0c3BhbiB4PSI4MC41IiBkeT0iMTYiIGlkPSJTdmdqc1RzcGFuMTUzMCI+PHRzcGFuIHN0eWxlPSJ0ZXh0LWRlY29yYXRpb246OyIgaWQ9IlN2Z2pzVHNwYW4xNTMxIj51bm1vdW50QW1vdW50IG9yZGVyIDwvdHNwYW4+PC90c3Bhbj48dHNwYW4geD0iODAuNSIgZHk9IjE2IiBpZD0iU3ZnanNUc3BhbjE1MzIiPjx0c3BhbiBzdHlsZT0idGV4dC1kZWNvcmF0aW9uOjsiIGlkPSJTdmdqc1RzcGFuMTUzMyI+YWNjb3VudEhvbGQ8L3RzcGFuPjwvdHNwYW4+PC90ZXh0PjwvZz48L2c+PGcgdHJhbnNmb3JtPSJ0cmFuc2xhdGUoMTYxMi41LDE5MTQpIiBpZD0iU3ZnanNHMTUzNCI+PHBhdGggZmlsbD0iI2ZmZmZmZiIgZmlsbC1vcGFjaXR5PSIxIiBzdHJva2Utd2lkdGg9IjIiIHN0cm9rZT0icmdiYSg1MCw1MCw1MCwxKSIgZD0iTSAwIDM1TCA4MC41IDBMIDE2MSAzNUwgODAuNSA3MEwgMCAzNVoiIGlkPSJTdmdqc1BhdGgxNTM1Ii8+PGcgaWQ9IlN2Z2pzRzE1MzYiPjx0ZXh0IHRyYW5zZm9ybT0icm90YXRlKDApIiB5PSIyNS4wNSIgb3BhY2l0eT0iMSIgZm9udC1zdHlsZT0iIiBzaXplPSIxM3B4IiBhbGlnbj0ibWlkZGxlIiBmb250LXdlaWdodD0iNDAwIiBmaWxsPSIjMzIzMjMyIiB3aWR0aD0iMTQxcHgiIGZvbnQtc2l6ZT0iMTNweCIgdGV4dC1hbmNob3I9Im1pZGRsZSIgZm9udC1mYW1pbHk9IuW+rui9r+mbhem7kSIgaWQ9IlN2Z2pzVGV4dDE1MzciPjx0c3BhbiB4PSI4MC41IiBkeT0iMTYiIGlkPSJTdmdqc1RzcGFuMTUzOCI+PHRzcGFuIHN0eWxlPSJ0ZXh0LWRlY29yYXRpb246OyIgaWQ9IlN2Z2pzVHNwYW4xNTM5Ij7mlrDniYhhY2NvdW50SG9sZOWtmOWcqDwvdHNwYW4+PC90c3Bhbj48L3RleHQ+PC9nPjwvZz48ZyBpZD0iU3ZnanNHMTU0MCI+PHBhdGggbWFya2VyLWVuZD0idXJsKCNTdmdqc01hcmtlcjE1NDIpIiBmaWxsPSJub25lIiBzdHJva2Utd2lkdGg9IjIiIHN0cm9rZT0iIzMyMzIzMiIgZD0iTTE2OTQuNzUgMTk4NEwxNjk0Ljc1IDIwMTRMMTA1NS41IDIwMTRMMTA1NS41IDE5NDlMMTAyNS41IDE5NDkiIGlkPSJTdmdqc1BhdGgxNTQxIi8+PHJlY3QgZmlsbD0iI2ZmZmZmZiIgeT0iMjAwNiIgeD0iMTMzNS4xMjUiIGhlaWdodD0iMTYiIHdpZHRoPSIxNSIgaWQ9IlN2Z2pzUmVjdDE1NDQiLz48dGV4dCB0cmFuc2Zvcm09InJvdGF0ZSgwKSIgeT0iMjAwNC4wNSIgb3BhY2l0eT0iMSIgZm9udC1zdHlsZT0iIiBzaXplPSIxM3B4IiBhbGlnbj0idG9wIiBmb250LXdlaWdodD0iNDAwIiBmaWxsPSIjMzIzMjMyIiB3aWR0aD0iMTVweCIgZm9udC1zaXplPSIxM3B4IiB0ZXh0LWFuY2hvcj0ibWlkZGxlIiBmb250LWZhbWlseT0i5b6u6L2v6ZuF6buRIiBpZD0iU3ZnanNUZXh0MTU0NSI+PHRzcGFuIHg9IjEzNDIuNjI1IiBkeT0iMTYiIGlkPSJTdmdqc1RzcGFuMTU0NiI+PHRzcGFuIHN0eWxlPSJ0ZXh0LWRlY29yYXRpb246OyIgaWQ9IlN2Z2pzVHNwYW4xNTQ3Ij5ubzwvdHNwYW4+PC90c3Bhbj48L3RleHQ+PC9nPjxnIGlkPSJTdmdqc0cxNTQ4Ij48cGF0aCBtYXJrZXItZW5kPSJ1cmwoI1N2Z2pzTWFya2VyMTU1MCkiIGZpbGw9Im5vbmUiIHN0cm9rZS13aWR0aD0iMiIgc3Ryb2tlPSIjMzIzMjMyIiBkPSJNMTc3My41IDE5NDlMMTgxOCAxOTQ5TDE4MTggMTk0OUwxODY0IDE5NDkiIGlkPSJTdmdqc1BhdGgxNTQ5Ii8+PHJlY3QgZmlsbD0iI2ZmZmZmZiIgeT0iMTk0MSIgeD0iMTgwOC43NSIgaGVpZ2h0PSIxNiIgd2lkdGg9IjIwIiBpZD0iU3ZnanNSZWN0MTU1MiIvPjx0ZXh0IHRyYW5zZm9ybT0icm90YXRlKDApIiB5PSIxOTM5LjA1IiBvcGFjaXR5PSIxIiBmb250LXN0eWxlPSIiIHNpemU9IjEzcHgiIGFsaWduPSJ0b3AiIGZvbnQtd2VpZ2h0PSI0MDAiIGZpbGw9IiMzMjMyMzIiIHdpZHRoPSIyMHB4IiBmb250LXNpemU9IjEzcHgiIHRleHQtYW5jaG9yPSJtaWRkbGUiIGZvbnQtZmFtaWx5PSLlvq7ova/pm4Xpu5EiIGlkPSJTdmdqc1RleHQxNTUzIj48dHNwYW4geD0iMTgxOC43NSIgZHk9IjE2IiBpZD0iU3ZnanNUc3BhbjE1NTQiPjx0c3BhbiBzdHlsZT0idGV4dC1kZWNvcmF0aW9uOjsiIGlkPSJTdmdqc1RzcGFuMTU1NSI+eWVzPC90c3Bhbj48L3RzcGFuPjwvdGV4dD48L2c+PGcgdHJhbnNmb3JtPSJ0cmFuc2xhdGUoMTg2NCwxOTE0KSIgaWQ9IlN2Z2pzRzE1NTYiPjxwYXRoIGZpbGw9IiNmZmZmZmYiIGZpbGwtb3BhY2l0eT0iMSIgc3Ryb2tlLXdpZHRoPSIyIiBzdHJva2U9InJnYmEoNTAsNTAsNTAsMSkiIGQ9Ik0gMCAwTCAxNjEgMEwgMTYxIDcwTCAwIDcwWiIgaWQ9IlN2Z2pzUGF0aDE1NTciLz48ZyBpZD0iU3ZnanNHMTU1OCI+PHRleHQgdHJhbnNmb3JtPSJyb3RhdGUoMCkiIHk9IjkuMDUiIG9wYWNpdHk9IjEiIGZvbnQtc3R5bGU9IiIgc2l6ZT0iMTNweCIgYWxpZ249Im1pZGRsZSIgZm9udC13ZWlnaHQ9IjQwMCIgZmlsbD0iIzMyMzIzMiIgd2lkdGg9IjE0MXB4IiBmb250LXNpemU9IjEzcHgiIHRleHQtYW5jaG9yPSJtaWRkbGUiIGZvbnQtZmFtaWx5PSLlvq7ova/pm4Xpu5EiIGlkPSJTdmdqc1RleHQxNTU5Ij48dHNwYW4geD0iODAuNSIgZHk9IjE2IiBpZD0iU3ZnanNUc3BhbjE1NjAiPjx0c3BhbiBzdHlsZT0idGV4dC1kZWNvcmF0aW9uOjsiIGlkPSJTdmdqc1RzcGFuMTU2MSI+dXBkYXRl77ya5omj5YePPC90c3Bhbj48L3RzcGFuPjx0c3BhbiB4PSI4MC41IiBkeT0iMTYiIGlkPSJTdmdqc1RzcGFuMTU2MiI+PHRzcGFuIHN0eWxlPSJ0ZXh0LWRlY29yYXRpb246OyIgaWQ9IlN2Z2pzVHNwYW4xNTYzIj51bm1vdW50QW1vdW50IG9yZGVyIDwvdHNwYW4+PC90c3Bhbj48dHNwYW4geD0iODAuNSIgZHk9IjE2IiBpZD0iU3ZnanNUc3BhbjE1NjQiPjx0c3BhbiBzdHlsZT0idGV4dC1kZWNvcmF0aW9uOjsiIGlkPSJTdmdqc1RzcGFuMTU2NSI+YWNjb3VudEhvbGQ8L3RzcGFuPjwvdHNwYW4+PC90ZXh0PjwvZz48L2c+PGcgaWQ9IlN2Z2pzRzE1NjYiPjxwYXRoIG1hcmtlci1lbmQ9InVybCgjU3ZnanNNYXJrZXIxNTY4KSIgZmlsbD0ibm9uZSIgc3Ryb2tlLXdpZHRoPSIyIiBzdHJva2U9IiMzMjMyMzIiIGQ9Ik05NDUgMjEwNUw5NDUgMjE1OEwxNDU2IDIxNTgiIGlkPSJTdmdqc1BhdGgxNTY3Ii8+PC9nPjxnIHRyYW5zZm9ybT0idHJhbnNsYXRlKDE0NTYsMjEyMykiIGlkPSJTdmdqc0cxNTcwIj48cGF0aCBmaWxsPSIjZmZmZmZmIiBmaWxsLW9wYWNpdHk9IjEiIHN0cm9rZS13aWR0aD0iMiIgc3Ryb2tlPSJyZ2JhKDUwLDUwLDUwLDEpIiBkPSJNIDAgMEwgMTAwIDBMIDEwMCA3MEwgMCA3MFoiIGlkPSJTdmdqc1BhdGgxNTcxIi8+PGcgaWQ9IlN2Z2pzRzE1NzIiPjx0ZXh0IHRyYW5zZm9ybT0icm90YXRlKDApIiB5PSI5LjA1IiBvcGFjaXR5PSIxIiBmb250LXN0eWxlPSIiIHNpemU9IjEzcHgiIGFsaWduPSJtaWRkbGUiIGZvbnQtd2VpZ2h0PSI0MDAiIGZpbGw9IiMzMjMyMzIiIHdpZHRoPSI4MHB4IiBmb250LXNpemU9IjEzcHgiIHRleHQtYW5jaG9yPSJtaWRkbGUiIGZvbnQtZmFtaWx5PSLlvq7ova/pm4Xpu5EiIGlkPSJTdmdqc1RleHQxNTczIj48dHNwYW4geD0iNTAiIGR5PSIxNiIgaWQ9IlN2Z2pzVHNwYW4xNTc0Ij48dHNwYW4gc3R5bGU9InRleHQtZGVjb3JhdGlvbjo7IiBpZD0iU3ZnanNUc3BhbjE1NzUiPnVwZGF0ZSA8L3RzcGFuPjwvdHNwYW4+PHRzcGFuIHg9IjUwIiBkeT0iMTYiIGlkPSJTdmdqc1RzcGFuMTU3NiI+PHRzcGFuIHN0eWxlPSJ0ZXh0LWRlY29yYXRpb246OyIgaWQ9IlN2Z2pzVHNwYW4xNTc3Ij5wb3NpdGlvbiA8L3RzcGFuPjwvdHNwYW4+PHRzcGFuIHg9IjUwIiBkeT0iMTYiIGlkPSJTdmdqc1RzcGFuMTU3OCI+PHRzcGFuIHN0eWxlPSJ0ZXh0LWRlY29yYXRpb246OyIgaWQ9IlN2Z2pzVHNwYW4xNTc5Ij5hY2NvdW50SG9sZDwvdHNwYW4+PC90c3Bhbj48L3RleHQ+PC9nPjwvZz48ZyBpZD0iU3ZnanNHMTU4MCI+PHBhdGggbWFya2VyLWVuZD0idXJsKCNTdmdqc01hcmtlcjE1ODIpIiBmaWxsPSJub25lIiBzdHJva2Utd2lkdGg9IjIiIHN0cm9rZT0iIzMyMzIzMiIgZD0iTTE5NDQuNSAxOTg0TDE5NDQuNSAyMTU4TDE1NTYgMjE1OCIgaWQ9IlN2Z2pzUGF0aDE1ODEiLz48L2c+PGcgaWQ9IlN2Z2pzRzE1ODQiPjxwYXRoIG1hcmtlci1lbmQ9InVybCgjU3ZnanNNYXJrZXIxNTg2KSIgZmlsbD0ibm9uZSIgc3Ryb2tlLXdpZHRoPSIyIiBzdHJva2U9IiMzMjMyMzIiIGQ9Ik0xNDI3IDE5NDlMMTMyNyAxOTQ5TDEzMjcgMTk0OUwxMjI3IDE5NDkiIGlkPSJTdmdqc1BhdGgxNTg1Ii8+PHJlY3QgZmlsbD0iI2ZmZmZmZiIgeT0iMTk0MSIgeD0iMTMyMC41IiBoZWlnaHQ9IjE2IiB3aWR0aD0iMTMiIGlkPSJTdmdqc1JlY3QxNTg4Ii8+PHRleHQgdHJhbnNmb3JtPSJyb3RhdGUoMCkiIHk9IjE5MzkuMDUiIG9wYWNpdHk9IjEiIGZvbnQtc3R5bGU9IiIgc2l6ZT0iMTNweCIgYWxpZ249InRvcCIgZm9udC13ZWlnaHQ9IjQwMCIgZmlsbD0iIzMyMzIzMiIgd2lkdGg9IjEzcHgiIGZvbnQtc2l6ZT0iMTNweCIgdGV4dC1hbmNob3I9Im1pZGRsZSIgZm9udC1mYW1pbHk9IuW+rui9r+mbhem7kSIgaWQ9IlN2Z2pzVGV4dDE1ODkiPjx0c3BhbiB4PSIxMzI3IiBkeT0iMTYiIGlkPSJTdmdqc1RzcGFuMTU5MCI+PHRzcGFuIHN0eWxlPSJ0ZXh0LWRlY29yYXRpb246OyIgaWQ9IlN2Z2pzVHNwYW4xNTkxIj7ml6c8L3RzcGFuPjwvdHNwYW4+PC90ZXh0PjwvZz48ZyB0cmFuc2Zvcm09InRyYW5zbGF0ZSgyNzM1LDE3MTgpIiBpZD0iU3ZnanNHMTU5MiI+PHBhdGggZmlsbD0iI2ZmZmZmZiIgZmlsbC1vcGFjaXR5PSIxIiBzdHJva2Utd2lkdGg9IjIiIHN0cm9rZT0icmdiYSg1MCw1MCw1MCwxKSIgZD0iTSAwIDBMIDI4MCAwTCAyODAgNDBMIDAgNDBaIiBpZD0iU3ZnanNQYXRoMTU5MyIvPjxnIGlkPSJTdmdqc0cxNTk0Ij48dGV4dCB0cmFuc2Zvcm09InJvdGF0ZSgwKSIgeT0iMTAuMDUiIG9wYWNpdHk9IjEiIGZvbnQtc3R5bGU9IiIgc2l6ZT0iMTNweCIgYWxpZ249Im1pZGRsZSIgZm9udC13ZWlnaHQ9IjQwMCIgZmlsbD0iIzMyMzIzMiIgd2lkdGg9IjI2MHB4IiBmb250LXNpemU9IjEzcHgiIHRleHQtYW5jaG9yPSJtaWRkbGUiIGZvbnQtZmFtaWx5PSLlvq7ova/pm4Xpu5EiIGlkPSJTdmdqc1RleHQxNTk1Ij48dHNwYW4geD0iMTQwIiBkeT0iMTYiIGlkPSJTdmdqc1RzcGFuMTU5NiI+PHRzcGFuIHN0eWxlPSJ0ZXh0LWRlY29yYXRpb246OyIgaWQ9IlN2Z2pzVHNwYW4xNTk3Ij5BY2NvdW50SW5uZXJDb250cm9sbGVyLnN1YnRyYWN0SG9sZEZ1bmRzPC90c3Bhbj48L3RzcGFuPjwvdGV4dD48L2c+PC9nPjxnIGlkPSJTdmdqc0cxNTk4Ij48cGF0aCBtYXJrZXItZW5kPSJ1cmwoI1N2Z2pzTWFya2VyMTYwMCkiIGZpbGw9Im5vbmUiIHN0cm9rZS13aWR0aD0iMiIgc3Ryb2tlPSIjMzIzMjMyIiBkPSJNMjg3NSAxNzU4TDI4NzUgMTgyNEwyODc1IDE4MjRMMjg3NSAxODkwIiBpZD0iU3ZnanNQYXRoMTU5OSIvPjwvZz48ZyB0cmFuc2Zvcm09InRyYW5zbGF0ZSgyODA1LjUsMTg5MCkiIGlkPSJTdmdqc0cxNjAyIj48cGF0aCBmaWxsPSIjZmZmZmZmIiBmaWxsLW9wYWNpdHk9IjEiIHN0cm9rZS13aWR0aD0iMiIgc3Ryb2tlPSJyZ2JhKDUwLDUwLDUwLDEpIiBkPSJNIDAgMEwgMTM5IDBMIDEzOSA1NEwgMCA1NFoiIGlkPSJTdmdqc1BhdGgxNjAzIi8+PGcgaWQ9IlN2Z2pzRzE2MDQiPjx0ZXh0IHRyYW5zZm9ybT0icm90YXRlKDApIiB5PSIxLjA1IiBvcGFjaXR5PSIxIiBmb250LXN0eWxlPSIiIHNpemU9IjEzcHgiIGFsaWduPSJtaWRkbGUiIGZvbnQtd2VpZ2h0PSI0MDAiIGZpbGw9IiMzMjMyMzIiIHdpZHRoPSIxMTlweCIgZm9udC1zaXplPSIxM3B4IiB0ZXh0LWFuY2hvcj0ibWlkZGxlIiBmb250LWZhbWlseT0i5b6u6L2v6ZuF6buRIiBpZD0iU3ZnanNUZXh0MTYwNSI+PHRzcGFuIHg9IjY5LjUiIGR5PSIxNiIgaWQ9IlN2Z2pzVHNwYW4xNjA2Ij48dHNwYW4gc3R5bGU9InRleHQtZGVjb3JhdGlvbjo7IiBpZD0iU3ZnanNUc3BhbjE2MDciPmluc2VydCA8L3RzcGFuPjwvdHNwYW4+PHRzcGFuIHg9IjY5LjUiIGR5PSIxNiIgaWQ9IlN2Z2pzVHNwYW4xNjA4Ij48dHNwYW4gc3R5bGU9InRleHQtZGVjb3JhdGlvbjo7IiBpZD0iU3ZnanNUc3BhbjE2MDkiPmFjY291bnRUeCxhY2NvdW50PC90c3Bhbj48L3RzcGFuPjx0c3BhbiB4PSI2OS41IiBkeT0iMTYiIGlkPSJTdmdqc1RzcGFuMTYxMCI+PHRzcGFuIHN0eWxlPSJ0ZXh0LWRlY29yYXRpb246OyIgaWQ9IlN2Z2pzVHNwYW4xNjExIj5Ib2xkVHg8L3RzcGFuPjwvdHNwYW4+PC90ZXh0PjwvZz48L2c+PGcgaWQ9IlN2Z2pzRzE2MTIiPjxwYXRoIG1hcmtlci1lbmQ9InVybCgjU3ZnanNNYXJrZXIxNjE0KSIgZmlsbD0ibm9uZSIgc3Ryb2tlLXdpZHRoPSIyIiBzdHJva2U9IiMzMjMyMzIiIGQ9Ik0yODc1IDE5NDRMMjg3NSAxOTYwTDI4NzUgMTk2MEwyODc1IDE5NzUiIGlkPSJTdmdqc1BhdGgxNjEzIi8+PC9nPjxnIHRyYW5zZm9ybT0idHJhbnNsYXRlKDI4MjEsMTk3NSkiIGlkPSJTdmdqc0cxNjE2Ij48cGF0aCBmaWxsPSIjZmZmZmZmIiBmaWxsLW9wYWNpdHk9IjEiIHN0cm9rZS13aWR0aD0iMiIgc3Ryb2tlPSJyZ2JhKDUwLDUwLDUwLDEpIiBkPSJNIDAgMzVMIDU0IDBMIDEwOCAzNUwgNTQgNzBMIDAgMzVaIiBpZD0iU3ZnanNQYXRoMTYxNyIvPjxnIGlkPSJTdmdqc0cxNjE4Ij48dGV4dCB0cmFuc2Zvcm09InJvdGF0ZSgwKSIgeT0iMjUuMDUiIG9wYWNpdHk9IjEiIGZvbnQtc3R5bGU9IiIgc2l6ZT0iMTNweCIgYWxpZ249Im1pZGRsZSIgZm9udC13ZWlnaHQ9IjQwMCIgZmlsbD0iIzMyMzIzMiIgd2lkdGg9Ijg4cHgiIGZvbnQtc2l6ZT0iMTNweCIgdGV4dC1hbmNob3I9Im1pZGRsZSIgZm9udC1mYW1pbHk9IuW+rui9r+mbhem7kSIgaWQ9IlN2Z2pzVGV4dDE2MTkiPjx0c3BhbiB4PSI1NCIgZHk9IjE2IiBpZD0iU3ZnanNUc3BhbjE2MjAiPjx0c3BhbiBzdHlsZT0idGV4dC1kZWNvcmF0aW9uOjsiIGlkPSJTdmdqc1RzcGFuMTYyMSI+5pawcGF5OmhvbGRJZDwvdHNwYW4+PC90c3Bhbj48L3RleHQ+PC9nPjwvZz48ZyBpZD0iU3ZnanNHMTYyMiI+PHBhdGggbWFya2VyLWVuZD0idXJsKCNTdmdqc01hcmtlcjE2MjQpIiBmaWxsPSJub25lIiBzdHJva2Utd2lkdGg9IjIiIHN0cm9rZT0iIzMyMzIzMiIgZD0iTTI5MjkgMjAxMUwyOTY2IDIwMTFMMjk2NiAyMDExTDMwMTAgMjAxMSIgaWQ9IlN2Z2pzUGF0aDE2MjMiLz48cmVjdCBmaWxsPSIjZmZmZmZmIiB5PSIyMDAyLjk5OTk5OTk5OTk5OTgiIHg9IjI5NjIuOTk5OTk5OTk5OTk5NSIgaGVpZ2h0PSIxNiIgd2lkdGg9IjEzIiBpZD0iU3ZnanNSZWN0MTYyNiIvPjx0ZXh0IHRyYW5zZm9ybT0icm90YXRlKDApIiB5PSIyMDAxLjA0OTk5OTk5OTk5OTciIG9wYWNpdHk9IjEiIGZvbnQtc3R5bGU9IiIgc2l6ZT0iMTNweCIgYWxpZ249InRvcCIgZm9udC13ZWlnaHQ9IjQwMCIgZmlsbD0iIzMyMzIzMiIgd2lkdGg9IjEzcHgiIGZvbnQtc2l6ZT0iMTNweCIgdGV4dC1hbmNob3I9Im1pZGRsZSIgZm9udC1mYW1pbHk9IuW+rui9r+mbhem7kSIgaWQ9IlN2Z2pzVGV4dDE2MjciPjx0c3BhbiB4PSIyOTY5LjQ5OTk5OTk5OTk5OTUiIGR5PSIxNiIgaWQ9IlN2Z2pzVHNwYW4xNjI4Ij48dHNwYW4gc3R5bGU9InRleHQtZGVjb3JhdGlvbjo7IiBpZD0iU3ZnanNUc3BhbjE2MjkiPuaWsDwvdHNwYW4+PC90c3Bhbj48L3RleHQ+PC9nPjxnIHRyYW5zZm9ybT0idHJhbnNsYXRlKDIyOTQuNSwxOTc1KSIgaWQ9IlN2Z2pzRzE2MzAiPjxwYXRoIGZpbGw9IiNmZmZmZmYiIGZpbGwtb3BhY2l0eT0iMSIgc3Ryb2tlLXdpZHRoPSIyIiBzdHJva2U9InJnYmEoNTAsNTAsNTAsMSkiIGQ9Ik0gMCAzNUwgODAuNSAwTCAxNjEgMzVMIDgwLjUgNzBMIDAgMzVaIiBpZD0iU3ZnanNQYXRoMTYzMSIvPjxnIGlkPSJTdmdqc0cxNjMyIj48dGV4dCB0cmFuc2Zvcm09InJvdGF0ZSgwKSIgeT0iMjUuMDUiIG9wYWNpdHk9IjEiIGZvbnQtc3R5bGU9IiIgc2l6ZT0iMTNweCIgYWxpZ249Im1pZGRsZSIgZm9udC13ZWlnaHQ9IjQwMCIgZmlsbD0iIzMyMzIzMiIgd2lkdGg9IjE0MXB4IiBmb250LXNpemU9IjEzcHgiIHRleHQtYW5jaG9yPSJtaWRkbGUiIGZvbnQtZmFtaWx5PSLlvq7ova/pm4Xpu5EiIGlkPSJTdmdqc1RleHQxNjMzIj48dHNwYW4geD0iODAuNSIgZHk9IjE2IiBpZD0iU3ZnanNUc3BhbjE2MzQiPjx0c3BhbiBzdHlsZT0idGV4dC1kZWNvcmF0aW9uOjsiIGlkPSJTdmdqc1RzcGFuMTYzNSI+6ICBYWNjb3VudEhvbGTlrZjlnKg8L3RzcGFuPjwvdHNwYW4+PC90ZXh0PjwvZz48L2c+PGcgaWQ9IlN2Z2pzRzE2MzYiPjxwYXRoIG1hcmtlci1lbmQ9InVybCgjU3ZnanNNYXJrZXIxNjM4KSIgZmlsbD0ibm9uZSIgc3Ryb2tlLXdpZHRoPSIyIiBzdHJva2U9IiMzMjMyMzIiIGQ9Ik0yMzc1IDE5NzVMMjM3NSAxOTM4LjI1TDIzNzUgMTkzOC4yNUwyMzc1IDE5MDAiIGlkPSJTdmdqc1BhdGgxNjM3Ii8+PHJlY3QgZmlsbD0iI2ZmZmZmZiIgeT0iMTkyOS41IiB4PSIyMzY3LjUiIGhlaWdodD0iMTYiIHdpZHRoPSIxNSIgaWQ9IlN2Z2pzUmVjdDE2NDAiLz48dGV4dCB0cmFuc2Zvcm09InJvdGF0ZSgwKSIgeT0iMTkyNy41NSIgb3BhY2l0eT0iMSIgZm9udC1zdHlsZT0iIiBzaXplPSIxM3B4IiBhbGlnbj0idG9wIiBmb250LXdlaWdodD0iNDAwIiBmaWxsPSIjMzIzMjMyIiB3aWR0aD0iMTVweCIgZm9udC1zaXplPSIxM3B4IiB0ZXh0LWFuY2hvcj0ibWlkZGxlIiBmb250LWZhbWlseT0i5b6u6L2v6ZuF6buRIiBpZD0iU3ZnanNUZXh0MTY0MSI+PHRzcGFuIHg9IjIzNzUiIGR5PSIxNiIgaWQ9IlN2Z2pzVHNwYW4xNjQyIj48dHNwYW4gc3R5bGU9InRleHQtZGVjb3JhdGlvbjo7IiBpZD0iU3ZnanNUc3BhbjE2NDMiPm5vPC90c3Bhbj48L3RzcGFuPjwvdGV4dD48L2c+PGcgdHJhbnNmb3JtPSJ0cmFuc2xhdGUoMjMyNSwxODIwKSIgaWQ9IlN2Z2pzRzE2NDQiPjxwYXRoIGZpbGw9IiNmZmZmZmYiIGZpbGwtb3BhY2l0eT0iMSIgc3Ryb2tlLXdpZHRoPSIyIiBzdHJva2U9InJnYmEoNTAsNTAsNTAsMSkiIGQ9Ik0gMCA0MEMgMCAtMTMuMzMzMzMzMzMzMzMzMzM0IDEwMCAtMTMuMzMzMzMzMzMzMzMzMzM0IDEwMCA0MEMgMTAwIDkzLjMzMzMzMzMzMzMzMzMzIDAgOTMuMzMzMzMzMzMzMzMzMzMgMCA0MFoiIGlkPSJTdmdqc1BhdGgxNjQ1Ii8+PGcgaWQ9IlN2Z2pzRzE2NDYiPjx0ZXh0IHRyYW5zZm9ybT0icm90YXRlKDApIiB5PSIyMi4wNSIgb3BhY2l0eT0iMSIgZm9udC1zdHlsZT0iIiBzaXplPSIxM3B4IiBhbGlnbj0ibWlkZGxlIiBmb250LXdlaWdodD0iNDAwIiBmaWxsPSIjMzIzMjMyIiB3aWR0aD0iODBweCIgZm9udC1zaXplPSIxM3B4IiB0ZXh0LWFuY2hvcj0ibWlkZGxlIiBmb250LWZhbWlseT0i5b6u6L2v6ZuF6buRIiBpZD0iU3ZnanNUZXh0MTY0NyI+PHRzcGFuIHg9IjUwIiBkeT0iMTYiIGlkPSJTdmdqc1RzcGFuMTY0OCI+PHRzcGFuIHN0eWxlPSJ0ZXh0LWRlY29yYXRpb246OyIgaWQ9IlN2Z2pzVHNwYW4xNjQ5Ij5OT19IT0xEX0I8L3RzcGFuPjwvdHNwYW4+PHRzcGFuIHg9IjUwIiBkeT0iMTYiIGlkPSJTdmdqc1RzcGFuMTY1MCI+PHRzcGFuIHN0eWxlPSJ0ZXh0LWRlY29yYXRpb246OyIgaWQ9IlN2Z2pzVHNwYW4xNjUxIj5BTEFOQ0U8L3RzcGFuPjwvdHNwYW4+PC90ZXh0PjwvZz48L2c+PGcgaWQ9IlN2Z2pzRzE2NTIiPjxwYXRoIG1hcmtlci1lbmQ9InVybCgjU3ZnanNNYXJrZXIxNjU0KSIgZmlsbD0ibm9uZSIgc3Ryb2tlLXdpZHRoPSIyIiBzdHJva2U9IiMzMjMyMzIiIGQ9Ik0yMzc1IDIwNDVMMjM3NSAyMDc3LjVMMjM3NSAyMDc3LjVMMjM3NSAyMTExIiBpZD0iU3ZnanNQYXRoMTY1MyIvPjxyZWN0IGZpbGw9IiNmZmZmZmYiIHk9IjIwNzAiIHg9IjIzNjQuOTk5OTk5OTk5OTk5NSIgaGVpZ2h0PSIxNiIgd2lkdGg9IjIwIiBpZD0iU3ZnanNSZWN0MTY1NiIvPjx0ZXh0IHRyYW5zZm9ybT0icm90YXRlKDApIiB5PSIyMDY4LjA1IiBvcGFjaXR5PSIxIiBmb250LXN0eWxlPSIiIHNpemU9IjEzcHgiIGFsaWduPSJ0b3AiIGZvbnQtd2VpZ2h0PSI0MDAiIGZpbGw9IiMzMjMyMzIiIHdpZHRoPSIyMHB4IiBmb250LXNpemU9IjEzcHgiIHRleHQtYW5jaG9yPSJtaWRkbGUiIGZvbnQtZmFtaWx5PSLlvq7ova/pm4Xpu5EiIGlkPSJTdmdqc1RleHQxNjU3Ij48dHNwYW4geD0iMjM3NC45OTk5OTk5OTk5OTk1IiBkeT0iMTYiIGlkPSJTdmdqc1RzcGFuMTY1OCI+PHRzcGFuIHN0eWxlPSJ0ZXh0LWRlY29yYXRpb246OyIgaWQ9IlN2Z2pzVHNwYW4xNjU5Ij55ZXM8L3RzcGFuPjwvdHNwYW4+PC90ZXh0PjwvZz48ZyB0cmFuc2Zvcm09InRyYW5zbGF0ZSgyMjk0LjUsMjExMSkiIGlkPSJTdmdqc0cxNjYwIj48cGF0aCBmaWxsPSIjZmZmZmZmIiBmaWxsLW9wYWNpdHk9IjEiIHN0cm9rZS13aWR0aD0iMiIgc3Ryb2tlPSJyZ2JhKDUwLDUwLDUwLDEpIiBkPSJNIDAgMEwgMTYxIDBMIDE2MSA1NEwgMCA1NFoiIGlkPSJTdmdqc1BhdGgxNjYxIi8+PGcgaWQ9IlN2Z2pzRzE2NjIiPjx0ZXh0IHRyYW5zZm9ybT0icm90YXRlKDApIiB5PSIxLjA1IiBvcGFjaXR5PSIxIiBmb250LXN0eWxlPSIiIHNpemU9IjEzcHgiIGFsaWduPSJtaWRkbGUiIGZvbnQtd2VpZ2h0PSI0MDAiIGZpbGw9IiMzMjMyMzIiIHdpZHRoPSIxNDFweCIgZm9udC1zaXplPSIxM3B4IiB0ZXh0LWFuY2hvcj0ibWlkZGxlIiBmb250LWZhbWlseT0i5b6u6L2v6ZuF6buRIiBpZD0iU3ZnanNUZXh0MTY2MyI+PHRzcGFuIHg9IjgwLjUiIGR5PSIxNiIgaWQ9IlN2Z2pzVHNwYW4xNjY0Ij48dHNwYW4gc3R5bGU9InRleHQtZGVjb3JhdGlvbjo7IiBpZD0iU3ZnanNUc3BhbjE2NjUiPnVwZGF0Ze+8muaJo+WHjzwvdHNwYW4+PC90c3Bhbj48dHNwYW4geD0iODAuNSIgZHk9IjE2IiBpZD0iU3ZnanNUc3BhbjE2NjYiPjx0c3BhbiBzdHlsZT0idGV4dC1kZWNvcmF0aW9uOjsiIGlkPSJTdmdqc1RzcGFuMTY2NyI+dW5tb3VudEFtb3VudCBvcmRlciA8L3RzcGFuPjwvdHNwYW4+PHRzcGFuIHg9IjgwLjUiIGR5PSIxNiIgaWQ9IlN2Z2pzVHNwYW4xNjY4Ij48dHNwYW4gc3R5bGU9InRleHQtZGVjb3JhdGlvbjo7IiBpZD0iU3ZnanNUc3BhbjE2NjkiPmFjY291bnRIb2xkPC90c3Bhbj48L3RzcGFuPjwvdGV4dD48L2c+PC9nPjxnIHRyYW5zZm9ybT0idHJhbnNsYXRlKDMwMDcuNSwxOTc1KSIgaWQ9IlN2Z2pzRzE2NzAiPjxwYXRoIGZpbGw9IiNmZmZmZmYiIGZpbGwtb3BhY2l0eT0iMSIgc3Ryb2tlLXdpZHRoPSIyIiBzdHJva2U9InJnYmEoNTAsNTAsNTAsMSkiIGQ9Ik0gMCAzNUwgODAuNSAwTCAxNjEgMzVMIDgwLjUgNzBMIDAgMzVaIiBpZD0iU3ZnanNQYXRoMTY3MSIvPjxnIGlkPSJTdmdqc0cxNjcyIj48dGV4dCB0cmFuc2Zvcm09InJvdGF0ZSgwKSIgeT0iMjUuMDUiIG9wYWNpdHk9IjEiIGZvbnQtc3R5bGU9IiIgc2l6ZT0iMTNweCIgYWxpZ249Im1pZGRsZSIgZm9udC13ZWlnaHQ9IjQwMCIgZmlsbD0iIzMyMzIzMiIgd2lkdGg9IjE0MXB4IiBmb250LXNpemU9IjEzcHgiIHRleHQtYW5jaG9yPSJtaWRkbGUiIGZvbnQtZmFtaWx5PSLlvq7ova/pm4Xpu5EiIGlkPSJTdmdqc1RleHQxNjczIj48dHNwYW4geD0iODAuNSIgZHk9IjE2IiBpZD0iU3ZnanNUc3BhbjE2NzQiPjx0c3BhbiBzdHlsZT0idGV4dC1kZWNvcmF0aW9uOjsiIGlkPSJTdmdqc1RzcGFuMTY3NSI+5paw54mIYWNjb3VudEhvbGTlrZjlnKg8L3RzcGFuPjwvdHNwYW4+PC90ZXh0PjwvZz48L2c+PGcgaWQ9IlN2Z2pzRzE2NzYiPjxwYXRoIG1hcmtlci1lbmQ9InVybCgjU3ZnanNNYXJrZXIxNjc4KSIgZmlsbD0ibm9uZSIgc3Ryb2tlLXdpZHRoPSIyIiBzdHJva2U9IiMzMjMyMzIiIGQ9Ik0zMDg5Ljc1IDIwNDVMMzA4OS43NSAyMDc2TDI0ODUgMjA3NkwyNDg1IDIwMTBMMjQ1NS41IDIwMTAiIGlkPSJTdmdqc1BhdGgxNjc3Ii8+PHJlY3QgZmlsbD0iI2ZmZmZmZiIgeT0iMjA2OCIgeD0iMjc0Ny42MjUiIGhlaWdodD0iMTYiIHdpZHRoPSIxNSIgaWQ9IlN2Z2pzUmVjdDE2ODAiLz48dGV4dCB0cmFuc2Zvcm09InJvdGF0ZSgwKSIgeT0iMjA2Ni4wNSIgb3BhY2l0eT0iMSIgZm9udC1zdHlsZT0iIiBzaXplPSIxM3B4IiBhbGlnbj0idG9wIiBmb250LXdlaWdodD0iNDAwIiBmaWxsPSIjMzIzMjMyIiB3aWR0aD0iMTVweCIgZm9udC1zaXplPSIxM3B4IiB0ZXh0LWFuY2hvcj0ibWlkZGxlIiBmb250LWZhbWlseT0i5b6u6L2v6ZuF6buRIiBpZD0iU3ZnanNUZXh0MTY4MSI+PHRzcGFuIHg9IjI3NTUuMTI1IiBkeT0iMTYiIGlkPSJTdmdqc1RzcGFuMTY4MiI+PHRzcGFuIHN0eWxlPSJ0ZXh0LWRlY29yYXRpb246OyIgaWQ9IlN2Z2pzVHNwYW4xNjgzIj5ubzwvdHNwYW4+PC90c3Bhbj48L3RleHQ+PC9nPjxnIGlkPSJTdmdqc0cxNjg0Ij48cGF0aCBtYXJrZXItZW5kPSJ1cmwoI1N2Z2pzTWFya2VyMTY4NikiIGZpbGw9Im5vbmUiIHN0cm9rZS13aWR0aD0iMiIgc3Ryb2tlPSIjMzIzMjMyIiBkPSJNMzE2OC41IDIwMTBMMzIxMyAyMDEwTDMyMTMgMjAxMEwzMjU5IDIwMTAiIGlkPSJTdmdqc1BhdGgxNjg1Ii8+PHJlY3QgZmlsbD0iI2ZmZmZmZiIgeT0iMjAwMiIgeD0iMzIwMy43NSIgaGVpZ2h0PSIxNiIgd2lkdGg9IjIwIiBpZD0iU3ZnanNSZWN0MTY4OCIvPjx0ZXh0IHRyYW5zZm9ybT0icm90YXRlKDApIiB5PSIyMDAwLjA1IiBvcGFjaXR5PSIxIiBmb250LXN0eWxlPSIiIHNpemU9IjEzcHgiIGFsaWduPSJ0b3AiIGZvbnQtd2VpZ2h0PSI0MDAiIGZpbGw9IiMzMjMyMzIiIHdpZHRoPSIyMHB4IiBmb250LXNpemU9IjEzcHgiIHRleHQtYW5jaG9yPSJtaWRkbGUiIGZvbnQtZmFtaWx5PSLlvq7ova/pm4Xpu5EiIGlkPSJTdmdqc1RleHQxNjg5Ij48dHNwYW4geD0iMzIxMy43NSIgZHk9IjE2IiBpZD0iU3ZnanNUc3BhbjE2OTAiPjx0c3BhbiBzdHlsZT0idGV4dC1kZWNvcmF0aW9uOjsiIGlkPSJTdmdqc1RzcGFuMTY5MSI+eWVzPC90c3Bhbj48L3RzcGFuPjwvdGV4dD48L2c+PGcgdHJhbnNmb3JtPSJ0cmFuc2xhdGUoMzI1OSwxOTc1KSIgaWQ9IlN2Z2pzRzE2OTIiPjxwYXRoIGZpbGw9IiNmZmZmZmYiIGZpbGwtb3BhY2l0eT0iMSIgc3Ryb2tlLXdpZHRoPSIyIiBzdHJva2U9InJnYmEoNTAsNTAsNTAsMSkiIGQ9Ik0gMCAwTCAxNjEgMEwgMTYxIDcwTCAwIDcwWiIgaWQ9IlN2Z2pzUGF0aDE2OTMiLz48ZyBpZD0iU3ZnanNHMTY5NCI+PHRleHQgdHJhbnNmb3JtPSJyb3RhdGUoMCkiIHk9IjkuMDUiIG9wYWNpdHk9IjEiIGZvbnQtc3R5bGU9IiIgc2l6ZT0iMTNweCIgYWxpZ249Im1pZGRsZSIgZm9udC13ZWlnaHQ9IjQwMCIgZmlsbD0iIzMyMzIzMiIgd2lkdGg9IjE0MXB4IiBmb250LXNpemU9IjEzcHgiIHRleHQtYW5jaG9yPSJtaWRkbGUiIGZvbnQtZmFtaWx5PSLlvq7ova/pm4Xpu5EiIGlkPSJTdmdqc1RleHQxNjk1Ij48dHNwYW4geD0iODAuNSIgZHk9IjE2IiBpZD0iU3ZnanNUc3BhbjE2OTYiPjx0c3BhbiBzdHlsZT0idGV4dC1kZWNvcmF0aW9uOjsiIGlkPSJTdmdqc1RzcGFuMTY5NyI+dXBkYXRl77ya5omj5YePPC90c3Bhbj48L3RzcGFuPjx0c3BhbiB4PSI4MC41IiBkeT0iMTYiIGlkPSJTdmdqc1RzcGFuMTY5OCI+PHRzcGFuIHN0eWxlPSJ0ZXh0LWRlY29yYXRpb246OyIgaWQ9IlN2Z2pzVHNwYW4xNjk5Ij51bm1vdW50QW1vdW50IG9yZGVyIDwvdHNwYW4+PC90c3Bhbj48dHNwYW4geD0iODAuNSIgZHk9IjE2IiBpZD0iU3ZnanNUc3BhbjE3MDAiPjx0c3BhbiBzdHlsZT0idGV4dC1kZWNvcmF0aW9uOjsiIGlkPSJTdmdqc1RzcGFuMTcwMSI+YWNjb3VudEhvbGQ8L3RzcGFuPjwvdHNwYW4+PC90ZXh0PjwvZz48L2c+PGcgaWQ9IlN2Z2pzRzE3MDIiPjxwYXRoIG1hcmtlci1lbmQ9InVybCgjU3ZnanNNYXJrZXIxNzA0KSIgZmlsbD0ibm9uZSIgc3Ryb2tlLXdpZHRoPSIyIiBzdHJva2U9IiMzMjMyMzIiIGQ9Ik0yODIxIDIwMTBMMjc0MyAyMDEwTDI3NDMgMjAxMEwyNjY1IDIwMTAiIGlkPSJTdmdqc1BhdGgxNzAzIi8+PHJlY3QgZmlsbD0iI2ZmZmZmZiIgeT0iMjAwMiIgeD0iMjczNi41IiBoZWlnaHQ9IjE2IiB3aWR0aD0iMTMiIGlkPSJTdmdqc1JlY3QxNzA2Ii8+PHRleHQgdHJhbnNmb3JtPSJyb3RhdGUoMCkiIHk9IjIwMDAuMDUiIG9wYWNpdHk9IjEiIGZvbnQtc3R5bGU9IiIgc2l6ZT0iMTNweCIgYWxpZ249InRvcCIgZm9udC13ZWlnaHQ9IjQwMCIgZmlsbD0iIzMyMzIzMiIgd2lkdGg9IjEzcHgiIGZvbnQtc2l6ZT0iMTNweCIgdGV4dC1hbmNob3I9Im1pZGRsZSIgZm9udC1mYW1pbHk9IuW+rui9r+mbhem7kSIgaWQ9IlN2Z2pzVGV4dDE3MDciPjx0c3BhbiB4PSIyNzQzIiBkeT0iMTYiIGlkPSJTdmdqc1RzcGFuMTcwOCI+PHRzcGFuIHN0eWxlPSJ0ZXh0LWRlY29yYXRpb246OyIgaWQ9IlN2Z2pzVHNwYW4xNzA5Ij7ml6c8L3RzcGFuPjwvdHNwYW4+PC90ZXh0PjwvZz48ZyB0cmFuc2Zvcm09InRyYW5zbGF0ZSgzMzEyLDk1OSkiIGlkPSJTdmdqc0cxNzEwIj48cGF0aCBmaWxsPSIjZmZmZmZmIiBmaWxsLW9wYWNpdHk9IjEiIHN0cm9rZS13aWR0aD0iMiIgc3Ryb2tlPSJyZ2JhKDUwLDUwLDUwLDEpIiBkPSJNIDAgMEwgMjA5IDBMIDIwOSA3MEwgMCA3MFoiIGlkPSJTdmdqc1BhdGgxNzExIi8+PGcgaWQ9IlN2Z2pzRzE3MTIiPjx0ZXh0IHRyYW5zZm9ybT0icm90YXRlKDApIiB5PSIyNS4wNSIgb3BhY2l0eT0iMSIgZm9udC1zdHlsZT0iIiBzaXplPSIxM3B4IiBhbGlnbj0ibWlkZGxlIiBmb250LXdlaWdodD0iNDAwIiBmaWxsPSIjMzIzMjMyIiB3aWR0aD0iMTg5cHgiIGZvbnQtc2l6ZT0iMTNweCIgdGV4dC1hbmNob3I9Im1pZGRsZSIgZm9udC1mYW1pbHk9IuW+rui9r+mbhem7kSIgaWQ9IlN2Z2pzVGV4dDE3MTMiPjx0c3BhbiB4PSIxMDQuNSIgZHk9IjE2IiBpZD0iU3ZnanNUc3BhbjE3MTQiPjx0c3BhbiBzdHlsZT0idGV4dC1kZWNvcmF0aW9uOjsiIGlkPSJTdmdqc1RzcGFuMTcxNSI+YWNjb3VudF9ob2xkPC90c3Bhbj48L3RzcGFuPjwvdGV4dD48L2c+PC9nPjxnIHRyYW5zZm9ybT0idHJhbnNsYXRlKDM2NzcsOTU5KSIgaWQ9IlN2Z2pzRzE3MTYiPjxwYXRoIGZpbGw9IiNmZmZmZmYiIGZpbGwtb3BhY2l0eT0iMSIgc3Ryb2tlLXdpZHRoPSIyIiBzdHJva2U9InJnYmEoNTAsNTAsNTAsMSkiIGQ9Ik0gMCAwTCAyMDkgMEwgMjA5IDcwTCAwIDcwWiIgaWQ9IlN2Z2pzUGF0aDE3MTciLz48ZyBpZD0iU3ZnanNHMTcxOCI+PHRleHQgdHJhbnNmb3JtPSJyb3RhdGUoMCkiIHk9IjI1LjA1IiBvcGFjaXR5PSIxIiBmb250LXN0eWxlPSIiIHNpemU9IjEzcHgiIGFsaWduPSJtaWRkbGUiIGZvbnQtd2VpZ2h0PSI0MDAiIGZpbGw9IiMzMjMyMzIiIHdpZHRoPSIxODlweCIgZm9udC1zaXplPSIxM3B4IiB0ZXh0LWFuY2hvcj0ibWlkZGxlIiBmb250LWZhbWlseT0i5b6u6L2v6ZuF6buRIiBpZD0iU3ZnanNUZXh0MTcxOSI+PHRzcGFuIHg9IjEwNC41IiBkeT0iMTYiIGlkPSJTdmdqc1RzcGFuMTcyMCI+PHRzcGFuIHN0eWxlPSJ0ZXh0LWRlY29yYXRpb246OyIgaWQ9IlN2Z2pzVHNwYW4xNzIxIj5hY2NvdW50X2hvbGRfdjI8L3RzcGFuPjwvdHNwYW4+PC90ZXh0PjwvZz48L2c+PGcgaWQ9IlN2Z2pzRzE3MjIiPjxwYXRoIG1hcmtlci1lbmQ9InVybCgjU3ZnanNNYXJrZXIxNzI0KSIgZmlsbD0ibm9uZSIgc3Ryb2tlLXdpZHRoPSIyIiBzdHJva2U9IiMzMjMyMzIiIGQ9Ik0zNjc3IDk5NEwzNTk5IDk5NEwzNTk5IDk5NEwzNTIxIDk5NCIgaWQ9IlN2Z2pzUGF0aDE3MjMiLz48cmVjdCBmaWxsPSIjZmZmZmZmIiB5PSI5ODYiIHg9IjM1NzAuNSIgaGVpZ2h0PSIxNiIgd2lkdGg9IjU3IiBpZD0iU3ZnanNSZWN0MTcyNiIvPjx0ZXh0IHRyYW5zZm9ybT0icm90YXRlKDApIiB5PSI5ODQuMDUiIG9wYWNpdHk9IjEiIGZvbnQtc3R5bGU9IiIgc2l6ZT0iMTNweCIgYWxpZ249InRvcCIgZm9udC13ZWlnaHQ9IjQwMCIgZmlsbD0iIzMyMzIzMiIgd2lkdGg9IjU3cHgiIGZvbnQtc2l6ZT0iMTNweCIgdGV4dC1hbmNob3I9Im1pZGRsZSIgZm9udC1mYW1pbHk9IuW+rui9r+mbhem7kSIgaWQ9IlN2Z2pzVGV4dDE3MjciPjx0c3BhbiB4PSIzNTk5IiBkeT0iMTYiIGlkPSJTdmdqc1RzcGFuMTcyOCI+PHRzcGFuIHN0eWxlPSJ0ZXh0LWRlY29yYXRpb246OyIgaWQ9IlN2Z2pzVHNwYW4xNzI5Ij4zLiB1cGRhdGU8L3RzcGFuPjwvdHNwYW4+PC90ZXh0PjwvZz48ZyBpZD0iU3ZnanNHMTczMCI+PHBhdGggbWFya2VyLWVuZD0idXJsKCNTdmdqc01hcmtlcjE3MzIpIiBmaWxsPSJub25lIiBzdHJva2Utd2lkdGg9IjIiIHN0cm9rZT0iIzMyMzIzMiIgZD0iTTM4ODYgOTk0TDM5MTYgOTk0TDM5MTYgOTI5TDM3ODEuNSA5MjlMMzc4MS41IDk1OSIgaWQ9IlN2Z2pzUGF0aDE3MzEiLz48cmVjdCBmaWxsPSIjZmZmZmZmIiB5PSI5MjEiIHg9IjM4MzYuNSIgaGVpZ2h0PSIxNiIgd2lkdGg9IjYzIiBpZD0iU3ZnanNSZWN0MTczNCIvPjx0ZXh0IHRyYW5zZm9ybT0icm90YXRlKDApIiB5PSI5MTkuMDUiIG9wYWNpdHk9IjEiIGZvbnQtc3R5bGU9IiIgc2l6ZT0iMTNweCIgYWxpZ249InRvcCIgZm9udC13ZWlnaHQ9IjQwMCIgZmlsbD0iIzMyMzIzMiIgd2lkdGg9IjYzcHgiIGZvbnQtc2l6ZT0iMTNweCIgdGV4dC1hbmNob3I9Im1pZGRsZSIgZm9udC1mYW1pbHk9IuW+rui9r+mbhem7kSIgaWQ9IlN2Z2pzVGV4dDE3MzUiPjx0c3BhbiB4PSIzODY4IiBkeT0iMTYiIGlkPSJTdmdqc1RzcGFuMTczNiI+PHRzcGFuIHN0eWxlPSJ0ZXh0LWRlY29yYXRpb246OyIgaWQ9IlN2Z2pzVHNwYW4xNzM3Ij41Lua4heeQhuaVsOaNrjwvdHNwYW4+PC90c3Bhbj48L3RleHQ+PC9nPjxnIHRyYW5zZm9ybT0idHJhbnNsYXRlKDMzMTIsODU0KSIgaWQ9IlN2Z2pzRzE3MzgiPjxwYXRoIGZpbGw9IiNmZmZmZmYiIGZpbGwtb3BhY2l0eT0iMSIgc3Ryb2tlLXdpZHRoPSIyIiBzdHJva2U9InJnYmEoNTAsNTAsNTAsMSkiIGQ9Ik0gMCAwTCA2MzMgMEwgNjMzIDcwTCAwIDcwWiIgaWQ9IlN2Z2pzUGF0aDE3MzkiLz48ZyBpZD0iU3ZnanNHMTc0MCI+PHRleHQgdHJhbnNmb3JtPSJyb3RhdGUoMCkiIHk9Ii0xLjk1IiBvcGFjaXR5PSIxIiBmb250LXN0eWxlPSIiIHNpemU9IjEzcHgiIGFsaWduPSJ0b3AiIGZvbnQtd2VpZ2h0PSI0MDAiIGZpbGw9IiMzMjMyMzIiIHdpZHRoPSI2MTNweCIgZm9udC1zaXplPSIxM3B4IiB0ZXh0LWFuY2hvcj0ic3RhcnQiIGZvbnQtZmFtaWx5PSLlvq7ova/pm4Xpu5EiIGlkPSJTdmdqc1RleHQxNzQxIj48dHNwYW4geD0iMTAiIGR5PSIxNiIgaWQ9IlN2Z2pzVHNwYW4xNzQyIj48dHNwYW4gc3R5bGU9InRleHQtZGVjb3JhdGlvbjo7Zm9udC13ZWlnaHQ6IGJvbGQ7IiBpZD0iU3ZnanNUc3BhbjE3NDMiPuW8gOWFszwvdHNwYW4+PHRzcGFuIHN0eWxlPSJ0ZXh0LWRlY29yYXRpb246OyIgaWQ9IlN2Z2pzVHNwYW4xNzQ0Ij7vvJprdW1leC5hY2NvdW50LmhvbGQuc3dpdGNoPC90c3Bhbj48L3RzcGFuPjwvdGV4dD48L2c+PC9nPjxnIHRyYW5zZm9ybT0idHJhbnNsYXRlKDMzNjQuNSw4NzQpIiBpZD0iU3ZnanNHMTc0NSI+PHBhdGggZmlsbD0iI2ZmZmZmZiIgZmlsbC1vcGFjaXR5PSIxIiBzdHJva2Utd2lkdGg9IjIiIHN0cm9rZT0icmdiYSg1MCw1MCw1MCwxKSIgZD0iTSAwIDBMIDYzIDBMIDYzIDMwTCAwIDMwWiIgaWQ9IlN2Z2pzUGF0aDE3NDYiLz48ZyBpZD0iU3ZnanNHMTc0NyI+PHRleHQgdHJhbnNmb3JtPSJyb3RhdGUoMCkiIHk9IjUuMDUiIG9wYWNpdHk9IjEiIGZvbnQtc3R5bGU9IiIgc2l6ZT0iMTNweCIgYWxpZ249Im1pZGRsZSIgZm9udC13ZWlnaHQ9IjQwMCIgZmlsbD0iIzMyMzIzMiIgd2lkdGg9IjQzcHgiIGZvbnQtc2l6ZT0iMTNweCIgdGV4dC1hbmNob3I9Im1pZGRsZSIgZm9udC1mYW1pbHk9IuW+rui9r+mbhem7kSIgaWQ9IlN2Z2pzVGV4dDE3NDgiPjx0c3BhbiB4PSIzMS41IiBkeT0iMTYiIGlkPSJTdmdqc1RzcGFuMTc0OSI+PHRzcGFuIHN0eWxlPSJ0ZXh0LWRlY29yYXRpb246OyIgaWQ9IlN2Z2pzVHNwYW4xNzUwIj5WMjwvdHNwYW4+PC90c3Bhbj48L3RleHQ+PC9nPjwvZz48ZyB0cmFuc2Zvcm09InRyYW5zbGF0ZSgzNTA2LjI1LDg3NCkiIGlkPSJTdmdqc0cxNzUxIj48cGF0aCBmaWxsPSIjZmZmZmZmIiBmaWxsLW9wYWNpdHk9IjEiIHN0cm9rZS13aWR0aD0iMiIgc3Ryb2tlPSJyZ2JhKDUwLDUwLDUwLDEpIiBkPSJNIDAgMEwgOTIgMEwgOTIgMzBMIDAgMzBaIiBpZD0iU3ZnanNQYXRoMTc1MiIvPjxnIGlkPSJTdmdqc0cxNzUzIj48dGV4dCB0cmFuc2Zvcm09InJvdGF0ZSgwKSIgeT0iNS4wNSIgb3BhY2l0eT0iMSIgZm9udC1zdHlsZT0iIiBzaXplPSIxM3B4IiBhbGlnbj0ibWlkZGxlIiBmb250LXdlaWdodD0iNDAwIiBmaWxsPSIjMzIzMjMyIiB3aWR0aD0iNzJweCIgZm9udC1zaXplPSIxM3B4IiB0ZXh0LWFuY2hvcj0ibWlkZGxlIiBmb250LWZhbWlseT0i5b6u6L2v6ZuF6buRIiBpZD0iU3ZnanNUZXh0MTc1NCI+PHRzcGFuIHg9IjQ2IiBkeT0iMTYiIGlkPSJTdmdqc1RzcGFuMTc1NSI+PHRzcGFuIHN0eWxlPSJ0ZXh0LWRlY29yYXRpb246OyIgaWQ9IlN2Z2pzVHNwYW4xNzU2Ij5ST0xMQkFDSzwvdHNwYW4+PC90c3Bhbj48L3RleHQ+PC9nPjwvZz48ZyBpZD0iU3ZnanNHMTc1NyI+PHBhdGggbWFya2VyLWVuZD0idXJsKCNTdmdqc01hcmtlcjE3NTkpIiBmaWxsPSJub25lIiBzdHJva2Utd2lkdGg9IjIiIHN0cm9rZT0iIzMyMzIzMiIgZD0iTTM0MjcuNSA4ODlMMzQ2OC4xMjUgODg5TDM0NjguMTI1IDg4OUwzNTA2LjI1IDg4OSIgaWQ9IlN2Z2pzUGF0aDE3NTgiLz48cmVjdCBmaWxsPSIjZmZmZmZmIiB5PSI4ODEiIHg9IjM0NjQuMzc1IiBoZWlnaHQ9IjE2IiB3aWR0aD0iNSIgaWQ9IlN2Z2pzUmVjdDE3NjEiLz48dGV4dCB0cmFuc2Zvcm09InJvdGF0ZSgwKSIgeT0iODc5LjA1IiBvcGFjaXR5PSIxIiBmb250LXN0eWxlPSIiIHNpemU9IjEzcHgiIGFsaWduPSJ0b3AiIGZvbnQtd2VpZ2h0PSI0MDAiIGZpbGw9IiMzMjMyMzIiIHdpZHRoPSI1cHgiIGZvbnQtc2l6ZT0iMTNweCIgdGV4dC1hbmNob3I9Im1pZGRsZSIgZm9udC1mYW1pbHk9IuW+rui9r+mbhem7kSIgaWQ9IlN2Z2pzVGV4dDE3NjIiPjx0c3BhbiB4PSIzNDY2Ljg3NSIgZHk9IjE2IiBpZD0iU3ZnanNUc3BhbjE3NjMiPjx0c3BhbiBzdHlsZT0idGV4dC1kZWNvcmF0aW9uOjsiIGlkPSJTdmdqc1RzcGFuMTc2NCI+MTwvdHNwYW4+PC90c3Bhbj48L3RleHQ+PC9nPjxnIHRyYW5zZm9ybT0idHJhbnNsYXRlKDU5NSwxMTE3KSIgaWQ9IlN2Z2pzRzE3NjUiPjxwYXRoIGZpbGw9IiNmZmZmZmYiIGZpbGwtb3BhY2l0eT0iMSIgc3Ryb2tlLXdpZHRoPSIyIiBzdHJva2U9InJnYmEoNTAsNTAsNTAsMSkiIGQ9Ik0gMCAwTCAxMzIgMEwgMTMyIDcwTCAwIDcwWiIgaWQ9IlN2Z2pzUGF0aDE3NjYiLz48ZyBpZD0iU3ZnanNHMTc2NyI+PHRleHQgdHJhbnNmb3JtPSJyb3RhdGUoMCkiIHk9IjE3LjA1IiBvcGFjaXR5PSIxIiBmb250LXN0eWxlPSIiIHNpemU9IjEzcHgiIGFsaWduPSJtaWRkbGUiIGZvbnQtd2VpZ2h0PSI0MDAiIGZpbGw9IiMzMjMyMzIiIHdpZHRoPSIxMTJweCIgZm9udC1zaXplPSIxM3B4IiB0ZXh0LWFuY2hvcj0ibWlkZGxlIiBmb250LWZhbWlseT0i5b6u6L2v6ZuF6buRIiBpZD0iU3ZnanNUZXh0MTc2OCI+PHRzcGFuIHg9IjY2IiBkeT0iMTYiIGlkPSJTdmdqc1RzcGFuMTc2OSI+PHRzcGFuIHN0eWxlPSJ0ZXh0LWRlY29yYXRpb246OyIgaWQ9IlN2Z2pzVHNwYW4xNzcwIj5pbnNlcnQgPC90c3Bhbj48L3RzcGFuPjx0c3BhbiB4PSI2NiIgZHk9IjE2IiBpZD0iU3ZnanNUc3BhbjE3NzEiPjx0c3BhbiBzdHlsZT0idGV4dC1kZWNvcmF0aW9uOjsiIGlkPSJTdmdqc1RzcGFuMTc3MiI+YWNjb3VudF9ob2xkPC90c3Bhbj48L3RzcGFuPjwvdGV4dD48L2c+PC9nPjxnIHRyYW5zZm9ybT0idHJhbnNsYXRlKDM2NTIuMjUsNzgwKSIgaWQ9IlN2Z2pzRzE3NzMiPjxwYXRoIGZpbGw9IiNmZmZmZmYiIGZpbGwtb3BhY2l0eT0iMSIgc3Ryb2tlLXdpZHRoPSIyIiBzdHJva2U9InJnYmEoNTAsNTAsNTAsMSkiIGQ9Ik0gMCAwTCAxNDQuNzUgMEwgMTQ0Ljc1IDMwTCAwIDMwWiIgaWQ9IlN2Z2pzUGF0aDE3NzQiLz48ZyBpZD0iU3ZnanNHMTc3NSI+PHRleHQgdHJhbnNmb3JtPSJyb3RhdGUoMCkiIHk9IjUuMDUiIG9wYWNpdHk9IjEiIGZvbnQtc3R5bGU9IiIgc2l6ZT0iMTNweCIgYWxpZ249Im1pZGRsZSIgZm9udC13ZWlnaHQ9IjQwMCIgZmlsbD0iIzMyMzIzMiIgd2lkdGg9IjEyNXB4IiBmb250LXNpemU9IjEzcHgiIHRleHQtYW5jaG9yPSJtaWRkbGUiIGZvbnQtZmFtaWx5PSLlvq7ova/pm4Xpu5EiIGlkPSJTdmdqc1RleHQxNzc2Ij48dHNwYW4geD0iNzIuNSIgZHk9IjE2IiBpZD0iU3ZnanNUc3BhbjE3NzciPjx0c3BhbiBzdHlsZT0idGV4dC1kZWNvcmF0aW9uOjsiIGlkPSJTdmdqc1RzcGFuMTc3OCI+5aKe5YeP5Ya757uT6KKr5ouS57udPC90c3Bhbj48L3RzcGFuPjwvdGV4dD48L2c+PC9nPjxnIGlkPSJTdmdqc0cxNzc5Ij48cGF0aCBtYXJrZXItZW5kPSJ1cmwoI1N2Z2pzTWFya2VyMTc4MSkiIGZpbGw9Im5vbmUiIHN0cm9rZS13aWR0aD0iMiIgc3Ryb2tlPSIjMzIzMjMyIiBzdHJva2UtZGFzaGFycmF5PSI4LDUiIGQ9Ik0zNTk4LjI1IDg4OUwzNjI2LjYyNSA4ODlMMzYyNi42MjUgNzk1TDM2NTIuMjUgNzk1IiBpZD0iU3ZnanNQYXRoMTc4MCIvPjxyZWN0IGZpbGw9IiNmZmZmZmYiIHk9IjgzNS4zNzUiIHg9IjM2MjIuNjI1IiBoZWlnaHQ9IjE2IiB3aWR0aD0iOCIgaWQ9IlN2Z2pzUmVjdDE3ODMiLz48dGV4dCB0cmFuc2Zvcm09InJvdGF0ZSgwKSIgeT0iODMzLjQyNSIgb3BhY2l0eT0iMSIgZm9udC1zdHlsZT0iIiBzaXplPSIxM3B4IiBhbGlnbj0idG9wIiBmb250LXdlaWdodD0iNDAwIiBmaWxsPSIjMzIzMjMyIiB3aWR0aD0iOHB4IiBmb250LXNpemU9IjEzcHgiIHRleHQtYW5jaG9yPSJtaWRkbGUiIGZvbnQtZmFtaWx5PSLlvq7ova/pm4Xpu5EiIGlkPSJTdmdqc1RleHQxNzg0Ij48dHNwYW4geD0iMzYyNi42MjUiIGR5PSIxNiIgaWQ9IlN2Z2pzVHNwYW4xNzg1Ij48dHNwYW4gc3R5bGU9InRleHQtZGVjb3JhdGlvbjo7IiBpZD0iU3ZnanNUc3BhbjE3ODYiPjI8L3RzcGFuPjwvdHNwYW4+PC90ZXh0PjwvZz48ZyB0cmFuc2Zvcm09InRyYW5zbGF0ZSgzODM5LjI1LDg3NCkiIGlkPSJTdmdqc0cxNzg3Ij48cGF0aCBmaWxsPSIjZmZmZmZmIiBmaWxsLW9wYWNpdHk9IjEiIHN0cm9rZS13aWR0aD0iMiIgc3Ryb2tlPSJyZ2JhKDUwLDUwLDUwLDEpIiBkPSJNIDAgMEwgOTIgMEwgOTIgMzBMIDAgMzBaIiBpZD0iU3ZnanNQYXRoMTc4OCIvPjxnIGlkPSJTdmdqc0cxNzg5Ij48dGV4dCB0cmFuc2Zvcm09InJvdGF0ZSgwKSIgeT0iNS4wNSIgb3BhY2l0eT0iMSIgZm9udC1zdHlsZT0iIiBzaXplPSIxM3B4IiBhbGlnbj0ibWlkZGxlIiBmb250LXdlaWdodD0iNDAwIiBmaWxsPSIjMzIzMjMyIiB3aWR0aD0iNzJweCIgZm9udC1zaXplPSIxM3B4IiB0ZXh0LWFuY2hvcj0ibWlkZGxlIiBmb250LWZhbWlseT0i5b6u6L2v6ZuF6buRIiBpZD0iU3ZnanNUZXh0MTc5MCI+PHRzcGFuIHg9IjQ2IiBkeT0iMTYiIGlkPSJTdmdqc1RzcGFuMTc5MSI+PHRzcGFuIHN0eWxlPSJ0ZXh0LWRlY29yYXRpb246OyIgaWQ9IlN2Z2pzVHNwYW4xNzkyIj5WMTwvdHNwYW4+PC90c3Bhbj48L3RleHQ+PC9nPjwvZz48ZyBpZD0iU3ZnanNHMTc5MyI+PHBhdGggbWFya2VyLWVuZD0idXJsKCNTdmdqc01hcmtlcjE3OTUpIiBmaWxsPSJub25lIiBzdHJva2Utd2lkdGg9IjIiIHN0cm9rZT0iIzMyMzIzMiIgc3Ryb2tlLWRhc2hhcnJheT0iOCw1IiBkPSJNMzc5NyA3OTVMMzgxOC4xMjUgNzk1TDM4MTguMTI1IDg4OUwzODM5LjI1IDg4OSIgaWQ9IlN2Z2pzUGF0aDE3OTQiLz48cmVjdCBmaWxsPSIjZmZmZmZmIiB5PSI4MzQiIHg9IjM4MTQuMTI1IiBoZWlnaHQ9IjE2IiB3aWR0aD0iOCIgaWQ9IlN2Z2pzUmVjdDE3OTciLz48dGV4dCB0cmFuc2Zvcm09InJvdGF0ZSgwKSIgeT0iODMyLjA1IiBvcGFjaXR5PSIxIiBmb250LXN0eWxlPSIiIHNpemU9IjEzcHgiIGFsaWduPSJ0b3AiIGZvbnQtd2VpZ2h0PSI0MDAiIGZpbGw9IiMzMjMyMzIiIHdpZHRoPSI4cHgiIGZvbnQtc2l6ZT0iMTNweCIgdGV4dC1hbmNob3I9Im1pZGRsZSIgZm9udC1mYW1pbHk9IuW+rui9r+mbhem7kSIgaWQ9IlN2Z2pzVGV4dDE3OTgiPjx0c3BhbiB4PSIzODE4LjEyNSIgZHk9IjE2IiBpZD0iU3ZnanNUc3BhbjE3OTkiPjx0c3BhbiBzdHlsZT0idGV4dC1kZWNvcmF0aW9uOjsiIGlkPSJTdmdqc1RzcGFuMTgwMCI+NDwvdHNwYW4+PC90c3Bhbj48L3RleHQ+PC9nPjxnIHRyYW5zZm9ybT0idHJhbnNsYXRlKDIzNzEuNSwzMDkpIiBpZD0iU3ZnanNHMTgwMSI+PHBhdGggZmlsbD0iI2ZmZmZmZiIgZmlsbC1vcGFjaXR5PSIxIiBzdHJva2Utd2lkdGg9IjIiIHN0cm9rZT0icmdiYSg1MCw1MCw1MCwxKSIgZD0iTSAwIDBMIDE2MSAwTCAxNjEgNThMIDAgNThaIiBpZD0iU3ZnanNQYXRoMTgwMiIvPjxnIGlkPSJTdmdqc0cxODAzIj48dGV4dCB0cmFuc2Zvcm09InJvdGF0ZSgwKSIgeT0iMTkuMDUiIG9wYWNpdHk9IjEiIGZvbnQtc3R5bGU9IiIgc2l6ZT0iMTNweCIgYWxpZ249Im1pZGRsZSIgZm9udC13ZWlnaHQ9IjQwMCIgZmlsbD0iIzMyMzIzMiIgd2lkdGg9IjE0MXB4IiBmb250LXNpemU9IjEzcHgiIHRleHQtYW5jaG9yPSJtaWRkbGUiIGZvbnQtZmFtaWx5PSLlvq7ova/pm4Xpu5EiIGlkPSJTdmdqc1RleHQxODA0Ij48dHNwYW4geD0iODAuNSIgZHk9IjE2IiBpZD0iU3ZnanNUc3BhbjE4MDUiPjx0c3BhbiBzdHlsZT0idGV4dC1kZWNvcmF0aW9uOjsiIGlkPSJTdmdqc1RzcGFuMTgwNiI+Z2V0IGxhc3QgYWNjb3VudF9ob2xkPC90c3Bhbj48L3RzcGFuPjwvdGV4dD48L2c+PC9nPjxnIGlkPSJTdmdqc0cxODA3Ij48cGF0aCBtYXJrZXItZW5kPSJ1cmwoI1N2Z2pzTWFya2VyMTgwOSkiIGZpbGw9Im5vbmUiIHN0cm9rZS13aWR0aD0iMiIgc3Ryb2tlPSIjMzIzMjMyIiBkPSJNMjQ1MS41IDM2N0wyNDUxLjUgMzg4TDI0NTEuNSAzODhMMjQ1MS41IDQwOSIgaWQ9IlN2Z2pzUGF0aDE4MDgiLz48L2c+PGcgdHJhbnNmb3JtPSJ0cmFuc2xhdGUoMjQwNiw0MTEpIiBpZD0iU3ZnanNHMTgxMSI+PHBhdGggZmlsbD0iI2ZmZmZmZiIgZmlsbC1vcGFjaXR5PSIxIiBzdHJva2Utd2lkdGg9IjIiIHN0cm9rZT0icmdiYSg1MCw1MCw1MCwxKSIgZD0iTSAwIDM1TCA0NiAwTCA5MiAzNUwgNDYgNzBMIDAgMzVaIiBpZD0iU3ZnanNQYXRoMTgxMiIvPjxnIGlkPSJTdmdqc0cxODEzIj48dGV4dCB0cmFuc2Zvcm09InJvdGF0ZSgwKSIgeT0iMjUuMDUiIG9wYWNpdHk9IjEiIGZvbnQtc3R5bGU9IiIgc2l6ZT0iMTNweCIgYWxpZ249Im1pZGRsZSIgZm9udC13ZWlnaHQ9IjQwMCIgZmlsbD0iIzMyMzIzMiIgd2lkdGg9IjcycHgiIGZvbnQtc2l6ZT0iMTNweCIgdGV4dC1hbmNob3I9Im1pZGRsZSIgZm9udC1mYW1pbHk9IuW+rui9r+mbhem7kSIgaWQ9IlN2Z2pzVGV4dDE4MTQiPjx0c3BhbiB4PSI0NiIgZHk9IjE2IiBpZD0iU3ZnanNUc3BhbjE4MTUiPjx0c3BhbiBzdHlsZT0idGV4dC1kZWNvcmF0aW9uOjsiIGlkPSJTdmdqc1RzcGFuMTgxNiI+56ys5LiA5p2h5pawPC90c3Bhbj48L3RzcGFuPjwvdGV4dD48L2c+PC9nPjxnIGlkPSJTdmdqc0cxODE3Ij48cGF0aCBtYXJrZXItZW5kPSJ1cmwoI1N2Z2pzTWFya2VyMTgxOSkiIGZpbGw9Im5vbmUiIHN0cm9rZS13aWR0aD0iMiIgc3Ryb2tlPSIjMzIzMjMyIiBkPSJNMjQwNiA0NDZMMjMwNiA0NDZMMjMwNiA0NDZMMjIwNy41IDQ0NiIgaWQ9IlN2Z2pzUGF0aDE4MTgiLz48cmVjdCBmaWxsPSIjZmZmZmZmIiB5PSI0MzgiIHg9IjIyMzcuMjUiIGhlaWdodD0iMTYiIHdpZHRoPSIxMzkiIGlkPSJTdmdqc1JlY3QxODIxIi8+PHRleHQgdHJhbnNmb3JtPSJyb3RhdGUoMCkiIHk9IjQzNi4wNSIgb3BhY2l0eT0iMSIgZm9udC1zdHlsZT0iIiBzaXplPSIxM3B4IiBhbGlnbj0idG9wIiBmb250LXdlaWdodD0iNDAwIiBmaWxsPSIjMzIzMjMyIiB3aWR0aD0iMTM5cHgiIGZvbnQtc2l6ZT0iMTNweCIgdGV4dC1hbmNob3I9Im1pZGRsZSIgZm9udC1mYW1pbHk9IuW+rui9r+mbhem7kSIgaWQ9IlN2Z2pzVGV4dDE4MjIiPjx0c3BhbiB4PSIyMzA2Ljc1IiBkeT0iMTYiIGlkPSJTdmdqc1RzcGFuMTgyMyI+PHRzcGFuIHN0eWxlPSJ0ZXh0LWRlY29yYXRpb246OyIgaWQ9IlN2Z2pzVHNwYW4xODI0Ij7ogIFhY2NvdW504oCUaG9sZOaYr+WQpuaciTwvdHNwYW4+PC90c3Bhbj48L3RleHQ+PC9nPjxnIHRyYW5zZm9ybT0idHJhbnNsYXRlKDIxNDQuNSw0MjkpIiBpZD0iU3ZnanNHMTgyNSI+PHBhdGggZmlsbD0iI2ZmZmZmZiIgZmlsbC1vcGFjaXR5PSIxIiBzdHJva2Utd2lkdGg9IjIiIHN0cm9rZT0icmdiYSg1MCw1MCw1MCwxKSIgZD0iTSAwIDE3TCAzMS41IDBMIDYzIDE3TCAzMS41IDM0TCAwIDE3WiIgaWQ9IlN2Z2pzUGF0aDE4MjYiLz48ZyBpZD0iU3ZnanNHMTgyNyI+PHRleHQgdHJhbnNmb3JtPSJyb3RhdGUoMCkiIHk9IjcuMDUiIG9wYWNpdHk9IjEiIGZvbnQtc3R5bGU9IiIgc2l6ZT0iMTNweCIgYWxpZ249Im1pZGRsZSIgZm9udC13ZWlnaHQ9IjQwMCIgZmlsbD0iIzMyMzIzMiIgd2lkdGg9IjQzcHgiIGZvbnQtc2l6ZT0iMTNweCIgdGV4dC1hbmNob3I9Im1pZGRsZSIgZm9udC1mYW1pbHk9IuW+rui9r+mbhem7kSIgaWQ9IlN2Z2pzVGV4dDE4MjgiLz48L2c+PC9nPjxnIGlkPSJTdmdqc0cxODI5Ij48cGF0aCBtYXJrZXItZW5kPSJ1cmwoI1N2Z2pzTWFya2VyMTgzMSkiIGZpbGw9Im5vbmUiIHN0cm9rZS13aWR0aD0iMiIgc3Ryb2tlPSIjMzIzMjMyIiBkPSJNMjE3NSA0NjNMMjE3NSA0OTNMMjE3NSA0OTNMMjE3NSA1MjMiIGlkPSJTdmdqc1BhdGgxODMwIi8+PHJlY3QgZmlsbD0iI2ZmZmZmZiIgeT0iNDg1IiB4PSIyMTY4LjUiIGhlaWdodD0iMTYiIHdpZHRoPSIxMyIgaWQ9IlN2Z2pzUmVjdDE4MzMiLz48dGV4dCB0cmFuc2Zvcm09InJvdGF0ZSgwKSIgeT0iNDgzLjA1IiBvcGFjaXR5PSIxIiBmb250LXN0eWxlPSIiIHNpemU9IjEzcHgiIGFsaWduPSJ0b3AiIGZvbnQtd2VpZ2h0PSI0MDAiIGZpbGw9IiMzMjMyMzIiIHdpZHRoPSIxM3B4IiBmb250LXNpemU9IjEzcHgiIHRleHQtYW5jaG9yPSJtaWRkbGUiIGZvbnQtZmFtaWx5PSLlvq7ova/pm4Xpu5EiIGlkPSJTdmdqc1RleHQxODM0Ij48dHNwYW4geD0iMjE3NSIgZHk9IjE2IiBpZD0iU3ZnanNUc3BhbjE4MzUiPjx0c3BhbiBzdHlsZT0idGV4dC1kZWNvcmF0aW9uOjsiIGlkPSJTdmdqc1RzcGFuMTgzNiI+5pivPC90c3Bhbj48L3RzcGFuPjwvdGV4dD48L2c+PGcgdHJhbnNmb3JtPSJ0cmFuc2xhdGUoMjEyNiw1MjUpIiBpZD0iU3ZnanNHMTgzNyI+PHBhdGggZmlsbD0iI2ZmZmZmZiIgZmlsbC1vcGFjaXR5PSIxIiBzdHJva2Utd2lkdGg9IjIiIHN0cm9rZT0icmdiYSg1MCw1MCw1MCwxKSIgZD0iTSAwIDBMIDEwMCAwTCAxMDAgNzBMIDAgNzBaIiBpZD0iU3ZnanNQYXRoMTgzOCIvPjxnIGlkPSJTdmdqc0cxODM5Ij48dGV4dCB0cmFuc2Zvcm09InJvdGF0ZSgwKSIgeT0iMjUuMDUiIG9wYWNpdHk9IjEiIGZvbnQtc3R5bGU9IiIgc2l6ZT0iMTNweCIgYWxpZ249Im1pZGRsZSIgZm9udC13ZWlnaHQ9IjQwMCIgZmlsbD0iIzMyMzIzMiIgd2lkdGg9IjgwcHgiIGZvbnQtc2l6ZT0iMTNweCIgdGV4dC1hbmNob3I9Im1pZGRsZSIgZm9udC1mYW1pbHk9IuW+rui9r+mbhem7kSIgaWQ9IlN2Z2pzVGV4dDE4NDAiPjx0c3BhbiB4PSI1MCIgZHk9IjE2IiBpZD0iU3ZnanNUc3BhbjE4NDEiPjx0c3BhbiBzdHlsZT0idGV4dC1kZWNvcmF0aW9uOjsiIGlkPSJTdmdqc1RzcGFuMTg0MiI+5p+l6ICB55qEPC90c3Bhbj48L3RzcGFuPjwvdGV4dD48L2c+PC9nPjxnIGlkPSJTdmdqc0cxODQzIj48cGF0aCBtYXJrZXItZW5kPSJ1cmwoI1N2Z2pzTWFya2VyMTg0NSkiIGZpbGw9Im5vbmUiIHN0cm9rZS13aWR0aD0iMiIgc3Ryb2tlPSIjMzIzMjMyIiBkPSJNMjQ5OCA0NDZMMjU0Ny43NSA0NDZMMjU0Ny43NSA0NDZMMjU5OSA0NDYiIGlkPSJTdmdqc1BhdGgxODQ0Ii8+PC9nPjxnIHRyYW5zZm9ybT0idHJhbnNsYXRlKDI1OTksNDExKSIgaWQ9IlN2Z2pzRzE4NDciPjxwYXRoIGZpbGw9IiNmZmZmZmYiIGZpbGwtb3BhY2l0eT0iMSIgc3Ryb2tlLXdpZHRoPSIyIiBzdHJva2U9InJnYmEoNTAsNTAsNTAsMSkiIGQ9Ik0gMCAwTCAxMDAgMEwgMTAwIDcwTCAwIDcwWiIgaWQ9IlN2Z2pzUGF0aDE4NDgiLz48ZyBpZD0iU3ZnanNHMTg0OSI+PHRleHQgdHJhbnNmb3JtPSJyb3RhdGUoMCkiIHk9IjI1LjA1IiBvcGFjaXR5PSIxIiBmb250LXN0eWxlPSIiIHNpemU9IjEzcHgiIGFsaWduPSJtaWRkbGUiIGZvbnQtd2VpZ2h0PSI0MDAiIGZpbGw9IiMzMjMyMzIiIHdpZHRoPSI4MHB4IiBmb250LXNpemU9IjEzcHgiIHRleHQtYW5jaG9yPSJtaWRkbGUiIGZvbnQtZmFtaWx5PSLlvq7ova/pm4Xpu5EiIGlkPSJTdmdqc1RleHQxODUwIj48dHNwYW4geD0iNTAiIGR5PSIxNiIgaWQ9IlN2Z2pzVHNwYW4xODUxIj48dHNwYW4gc3R5bGU9InRleHQtZGVjb3JhdGlvbjo7IiBpZD0iU3ZnanNUc3BhbjE4NTIiPuafpeS4iuS4gOadoTwvdHNwYW4+PC90c3Bhbj48L3RleHQ+PC9nPjwvZz48ZyBpZD0iU3ZnanNHMTg1MyI+PHBhdGggbWFya2VyLWVuZD0idXJsKCNTdmdqc01hcmtlcjE4NTUpIiBmaWxsPSJub25lIiBzdHJva2Utd2lkdGg9IjIiIHN0cm9rZT0iIzMyMzIzMiIgZD0iTTIyMjYgNTU4TDI0MDguNSA1NThMMjQwOC41IDU1OEwyNTkyIDU1OCIgaWQ9IlN2Z2pzUGF0aDE4NTQiLz48L2c+PGcgdHJhbnNmb3JtPSJ0cmFuc2xhdGUoMjU5Miw1MjUpIiBpZD0iU3ZnanNHMTg1NyI+PHBhdGggZmlsbD0iI2ZmZmZmZiIgZmlsbC1vcGFjaXR5PSIxIiBzdHJva2Utd2lkdGg9IjIiIHN0cm9rZT0icmdiYSg1MCw1MCw1MCwxKSIgZD0iTSAwIDBMIDEwMCAwTCAxMDAgNzBMIDAgNzBaIiBpZD0iU3ZnanNQYXRoMTg1OCIvPjxnIGlkPSJTdmdqc0cxODU5Ij48dGV4dCB0cmFuc2Zvcm09InJvdGF0ZSgwKSIgeT0iMjUuMDUiIG9wYWNpdHk9IjEiIGZvbnQtc3R5bGU9IiIgc2l6ZT0iMTNweCIgYWxpZ249Im1pZGRsZSIgZm9udC13ZWlnaHQ9IjQwMCIgZmlsbD0iIzMyMzIzMiIgd2lkdGg9IjgwcHgiIGZvbnQtc2l6ZT0iMTNweCIgdGV4dC1hbmNob3I9Im1pZGRsZSIgZm9udC1mYW1pbHk9IuW+rui9r+mbhem7kSIgaWQ9IlN2Z2pzVGV4dDE4NjAiPjx0c3BhbiB4PSI1MCIgZHk9IjE2IiBpZD0iU3ZnanNUc3BhbjE4NjEiPjx0c3BhbiBzdHlsZT0idGV4dC1kZWNvcmF0aW9uOjsiIGlkPSJTdmdqc1RzcGFuMTg2MiI+5o+S5YWl5paw5LiA5p2hPC90c3Bhbj48L3RzcGFuPjwvdGV4dD48L2c+PC9nPjxnIGlkPSJTdmdqc0cxODYzIj48cGF0aCBtYXJrZXItZW5kPSJ1cmwoI1N2Z2pzTWFya2VyMTg2NSkiIGZpbGw9Im5vbmUiIHN0cm9rZS13aWR0aD0iMiIgc3Ryb2tlPSIjMzIzMjMyIiBkPSJNMjY0MiA0ODFMMjY0MiA1MDJMMjY0MiA1MDJMMjY0MiA1MjUiIGlkPSJTdmdqc1BhdGgxODY0Ii8+PC9nPjxnIHRyYW5zZm9ybT0idHJhbnNsYXRlKDM5NzUsNzU5KSIgaWQ9IlN2Z2pzRzE4NjciPjxwYXRoIGZpbGw9IiNmZmZmYWEiIGZpbGwtb3BhY2l0eT0iMSIgc3Ryb2tlPSJub25lIiBkPSJNIDAgMEwgNjU3IDBMIDY3MyAxNkwgNjczIDIxNUwgMCAyMTVMIDAgMFoiIGlkPSJTdmdqc1BhdGgxODY4Ii8+PHBhdGggZmlsbD0iI2NkY2RjZCIgZmlsbC1vcGFjaXR5PSIxIiBzdHJva2U9Im5vbmUiIGQ9Ik0gNjU3IDBMIDY1NyAxNkwgNjczIDE2WiIgaWQ9IlN2Z2pzUGF0aDE4NjkiLz48cGF0aCBmaWxsPSJub25lIiBzdHJva2U9Im5vbmUiIGQ9Ik0gMCAwTCA2NTcgMEwgNjczIDE2TCA2NzMgMjE1TCAwIDIxNUwgMCAwWiIgaWQ9IlN2Z2pzUGF0aDE4NzAiLz48ZyBpZD0iU3ZnanNHMTg3MSI+PHRleHQgdHJhbnNmb3JtPSJyb3RhdGUoMCkiIHk9IjczLjU1IiBvcGFjaXR5PSIxIiBmb250LXN0eWxlPSIiIHNpemU9IjEzcHgiIGFsaWduPSJtaWRkbGUiIGZvbnQtd2VpZ2h0PSI0MDAiIGZpbGw9IiMzMjMyMzIiIHdpZHRoPSI2NTNweCIgZm9udC1zaXplPSIxM3B4IiB0ZXh0LWFuY2hvcj0ibWlkZGxlIiBmb250LWZhbWlseT0i5b6u6L2v6ZuF6buRIiBpZD0iU3ZnanNUZXh0MTg3MiI+PHRzcGFuIHg9IjMzNi41IiBkeT0iMTYiIGlkPSJTdmdqc1RzcGFuMTg3MyI+PHRzcGFuIHN0eWxlPSJ0ZXh0LWRlY29yYXRpb246OyIgaWQ9IlN2Z2pzVHNwYW4xODc0Ij7liIfmtYHlvIDlhbNrdW1leC5hY2NvdW50LmhvbGQuc3dpdGNo55Sx4oCcVjLigJ3liIfkuLrigJxST0xMQkFDS+KAneadpeiHqueZveWQjeWNlWt1bWV4LmFjY291bnQuaG9sZC53aGl0ZWxpc3RWNOeUqOaItzwvdHNwYW4+PC90c3Bhbj48dHNwYW4geD0iMzM2LjUiIGR5PSIxNiIgaWQ9IlN2Z2pzVHNwYW4xODc1Ij48dHNwYW4gc3R5bGU9InRleHQtZGVjb3JhdGlvbjo7IiBpZD0iU3ZnanNUc3BhbjE4NzYiPueahOWinuWKoO+8jOWHj+WwkeWGu+e7k+eahOivt+axguiiq+aLkue7ne+8jOaWsOWinumUmeivr+eggSBBQ0NPVU5UX1NZU1RFTV9ST0xMQkFDS0lORygiMjMwMDI2OCIsICJhY2NvdW50IGhvbGQ8L3RzcGFuPjwvdHNwYW4+PHRzcGFuIHg9IjMzNi41IiBkeT0iMTYiIGlkPSJTdmdqc1RzcGFuMTg3NyI+PHRzcGFuIHN0eWxlPSJ0ZXh0LWRlY29yYXRpb246OyIgaWQ9IlN2Z2pzVHNwYW4xODc4Ij7mlrnmoYjlm57mu5rkuK0iKSznmb3lkI3ljZVrdW1leC5hY2NvdW50LmhvbGQud2hpdGVsaXN0VjTvvIzmiYDmnInmlrDooajmnIDmlrDkuIDmnaHmlbDmja7lm57liId1cGRhdGXvvIjmiJZpbnNlcnTvvInliLDogIHnmoTooag8L3RzcGFuPjwvdHNwYW4+PHRzcGFuIHg9IjMzNi41IiBkeT0iMTYiIGlkPSJTdmdqc1RzcGFuMTg3OSI+PHRzcGFuIHN0eWxlPSJ0ZXh0LWRlY29yYXRpb246OyIgaWQ9IlN2Z2pzVHNwYW4xODgwIj7kuK3liIfmtYHlvIDlhbNrdW1leC5hY2NvdW50LmhvbGQuc3dpdGNo55Sx4oCcUk9MTEJBQ0vigJ3mm7TmlrDkuLrigJxWMeKAneaJi+WKqOa4heeQhuaWsOihqOaVsOaNrjwvdHNwYW4+PC90c3Bhbj48L3RleHQ+PC9nPjwvZz48ZyB0cmFuc2Zvcm09InRyYW5zbGF0ZSg1NDg3LDY1OSkiIGlkPSJTdmdqc0cxODgxIj48cGF0aCBmaWxsPSIjZmZmZmZmIiBmaWxsLW9wYWNpdHk9IjEiIHN0cm9rZS13aWR0aD0iMiIgc3Ryb2tlPSJyZ2JhKDUwLDUwLDUwLDEpIiBkPSJNIDAgMEwgMTk2IDBMIDE5NiA3MEwgMCA3MFoiIGlkPSJTdmdqc1BhdGgxODgyIi8+PGcgaWQ9IlN2Z2pzRzE4ODMiPjx0ZXh0IHRyYW5zZm9ybT0icm90YXRlKDApIiB5PSIyNS4wNSIgb3BhY2l0eT0iMSIgZm9udC1zdHlsZT0iIiBzaXplPSIxM3B4IiBhbGlnbj0ibWlkZGxlIiBmb250LXdlaWdodD0iNDAwIiBmaWxsPSIjMzIzMjMyIiB3aWR0aD0iMTc2cHgiIGZvbnQtc2l6ZT0iMTNweCIgdGV4dC1hbmNob3I9Im1pZGRsZSIgZm9udC1mYW1pbHk9IuW+rui9r+mbhem7kSIgaWQ9IlN2Z2pzVGV4dDE4ODQiPjx0c3BhbiB4PSI5OCIgZHk9IjE2IiBpZD0iU3ZnanNUc3BhbjE4ODUiPjx0c3BhbiBzdHlsZT0idGV4dC1kZWNvcmF0aW9uOjsiIGlkPSJTdmdqc1RzcGFuMTg4NiI+YWNjb3VudF9ob2xkX3YyPC90c3Bhbj48L3RzcGFuPjwvdGV4dD48L2c+PC9nPjxnIHRyYW5zZm9ybT0idHJhbnNsYXRlKDUxMTcsNjU5KSIgaWQ9IlN2Z2pzRzE4ODciPjxwYXRoIGZpbGw9IiNmZmZmZmYiIGZpbGwtb3BhY2l0eT0iMSIgc3Ryb2tlLXdpZHRoPSIyIiBzdHJva2U9InJnYmEoNTAsNTAsNTAsMSkiIGQ9Ik0gMCAwTCAxOTYgMEwgMTk2IDcwTCAwIDcwWiIgaWQ9IlN2Z2pzUGF0aDE4ODgiLz48ZyBpZD0iU3ZnanNHMTg4OSI+PHRleHQgdHJhbnNmb3JtPSJyb3RhdGUoMCkiIHk9IjI1LjA1IiBvcGFjaXR5PSIxIiBmb250LXN0eWxlPSIiIHNpemU9IjEzcHgiIGFsaWduPSJtaWRkbGUiIGZvbnQtd2VpZ2h0PSI0MDAiIGZpbGw9IiMzMjMyMzIiIHdpZHRoPSIxNzZweCIgZm9udC1zaXplPSIxM3B4IiB0ZXh0LWFuY2hvcj0ibWlkZGxlIiBmb250LWZhbWlseT0i5b6u6L2v6ZuF6buRIiBpZD0iU3ZnanNUZXh0MTg5MCI+PHRzcGFuIHg9Ijk4IiBkeT0iMTYiIGlkPSJTdmdqc1RzcGFuMTg5MSI+PHRzcGFuIHN0eWxlPSJ0ZXh0LWRlY29yYXRpb246OyIgaWQ9IlN2Z2pzVHNwYW4xODkyIj5hY2NvdW50X2hvbGQ8L3RzcGFuPjwvdHNwYW4+PC90ZXh0PjwvZz48L2c+PGcgaWQ9IlN2Z2pzRzE4OTMiPjxwYXRoIG1hcmtlci1lbmQ9InVybCgjU3ZnanNNYXJrZXIxODk1KSIgZmlsbD0ibm9uZSIgc3Ryb2tlLXdpZHRoPSIyIiBzdHJva2U9IiMzMjMyMzIiIGQ9Ik01NDE4IDQ2M0w1NDE4IDU2OEw1MjE1IDU2OEw1MjE1IDY1OSIgaWQ9IlN2Z2pzUGF0aDE4OTQiLz48cmVjdCBmaWxsPSIjZmZmZmZmIiB5PSI1NjAiIHg9IjUyNzQuNSIgaGVpZ2h0PSIxNiIgd2lkdGg9Ijk4IiBpZD0iU3ZnanNSZWN0MTg5NyIvPjx0ZXh0IHRyYW5zZm9ybT0icm90YXRlKDApIiB5PSI1NTguMDUiIG9wYWNpdHk9IjEiIGZvbnQtc3R5bGU9IiIgc2l6ZT0iMTNweCIgYWxpZ249InRvcCIgZm9udC13ZWlnaHQ9IjQwMCIgZmlsbD0iIzMyMzIzMiIgd2lkdGg9Ijk4cHgiIGZvbnQtc2l6ZT0iMTNweCIgdGV4dC1hbmNob3I9Im1pZGRsZSIgZm9udC1mYW1pbHk9IuW+rui9r+mbhem7kSIgaWQ9IlN2Z2pzVGV4dDE4OTgiPjx0c3BhbiB4PSI1MzIzLjUiIGR5PSIxNiIgaWQ9IlN2Z2pzVHNwYW4xODk5Ij48dHNwYW4gc3R5bGU9InRleHQtZGVjb3JhdGlvbjo7IiBpZD0iU3ZnanNUc3BhbjE5MDAiPuS4i+WNlS/ov73liqDkv53or4Hph5E8L3RzcGFuPjwvdHNwYW4+PC90ZXh0PjwvZz48ZyBpZD0iU3ZnanNHMTkwMSI+PHBhdGggbWFya2VyLWVuZD0idXJsKCNTdmdqc01hcmtlcjE5MDMpIiBmaWxsPSJub25lIiBzdHJva2Utd2lkdGg9IjIiIHN0cm9rZT0iIzMyMzIzMiIgZD0iTTU0MTggNDYzTDU0MTggNTY4TDU1ODUgNTY4TDU1ODUgNjU5IiBpZD0iU3ZnanNQYXRoMTkwMiIvPjxyZWN0IGZpbGw9IiNmZmZmZmYiIHk9IjU2MCIgeD0iNTQ0OSIgaGVpZ2h0PSIxNiIgd2lkdGg9IjkxIiBpZD0iU3ZnanNSZWN0MTkwNSIvPjx0ZXh0IHRyYW5zZm9ybT0icm90YXRlKDApIiB5PSI1NTguMDUiIG9wYWNpdHk9IjEiIGZvbnQtc3R5bGU9IiIgc2l6ZT0iMTNweCIgYWxpZ249InRvcCIgZm9udC13ZWlnaHQ9IjQwMCIgZmlsbD0iIzMyMzIzMiIgd2lkdGg9IjkxcHgiIGZvbnQtc2l6ZT0iMTNweCIgdGV4dC1hbmNob3I9Im1pZGRsZSIgZm9udC1mYW1pbHk9IuW+rui9r+mbhem7kSIgaWQ9IlN2Z2pzVGV4dDE5MDYiPjx0c3BhbiB4PSI1NDk0LjUiIGR5PSIxNiIgaWQ9IlN2Z2pzVHNwYW4xOTA3Ij48dHNwYW4gc3R5bGU9InRleHQtZGVjb3JhdGlvbjo7IiBpZD0iU3ZnanNUc3BhbjE5MDgiPuaSpOWNlS/miJDku5Mv5bmz5LuTPC90c3Bhbj48L3RzcGFuPjwvdGV4dD48L2c+PGcgdHJhbnNmb3JtPSJ0cmFuc2xhdGUoNTUyNSw3NzQpIiBpZD0iU3ZnanNHMTkwOSI+PHBhdGggZmlsbD0iI2ZmZmZmZiIgZmlsbC1vcGFjaXR5PSIxIiBzdHJva2Utd2lkdGg9IjIiIHN0cm9rZT0icmdiYSg1MCw1MCw1MCwxKSIgZD0iTSAwIDQwTCA2MCAwTCAxMjAgNDBMIDYwIDgwWiIgaWQ9IlN2Z2pzUGF0aDE5MTAiLz48ZyBpZD0iU3ZnanNHMTkxMSI+PHRleHQgdHJhbnNmb3JtPSJyb3RhdGUoMCkiIHk9IjMwLjQ1IiBvcGFjaXR5PSIxIiBmb250LXN0eWxlPSIiIHNpemU9IjEzcHgiIGFsaWduPSJtaWRkbGUiIGZvbnQtd2VpZ2h0PSI0MDAiIGZpbGw9IiMzMjMyMzIiIHdpZHRoPSIxMDBweCIgZm9udC1zaXplPSIxM3B4IiB0ZXh0LWFuY2hvcj0ibWlkZGxlIiBmb250LWZhbWlseT0i5b6u6L2v6ZuF6buRIiBpZD0iU3ZnanNUZXh0MTkxMiI+PHRzcGFuIHg9IjYwIiBkeT0iMTYiIGlkPSJTdmdqc1RzcGFuMTkxMyI+PHRzcGFuIHN0eWxlPSJ0ZXh0LWRlY29yYXRpb246OyIgaWQ9IlN2Z2pzVHNwYW4xOTE0Ij7mlrDooajkuK3mmK/lkKbmnIk8L3RzcGFuPjwvdHNwYW4+PC90ZXh0PjwvZz48L2c+PGcgaWQ9IlN2Z2pzRzE5MTUiPjxwYXRoIG1hcmtlci1lbmQ9InVybCgjU3ZnanNNYXJrZXIxOTE3KSIgZmlsbD0ibm9uZSIgc3Ryb2tlLXdpZHRoPSIyIiBzdHJva2U9IiMzMjMyMzIiIGQ9Ik01NTg1IDcyOUw1NTg1IDc1MS41TDU1ODUgNzUxLjVMNTU4NSA3NzQiIGlkPSJTdmdqc1BhdGgxOTE2Ii8+PC9nPjxnIGlkPSJTdmdqc0cxOTE5Ij48cGF0aCBtYXJrZXItZW5kPSJ1cmwoI1N2Z2pzTWFya2VyMTkyMSkiIGZpbGw9Im5vbmUiIHN0cm9rZS13aWR0aD0iMiIgc3Ryb2tlPSIjMzIzMjMyIiBkPSJNNTUyNSA4MTRMNTIxNSA4MTRMNTIxNSA3MjkiIGlkPSJTdmdqc1BhdGgxOTIwIi8+PHJlY3QgZmlsbD0iI2ZmZmZmZiIgeT0iODA2IiB4PSI1MzIwIiBoZWlnaHQ9IjE2IiB3aWR0aD0iMTUiIGlkPSJTdmdqc1JlY3QxOTIzIi8+PHRleHQgdHJhbnNmb3JtPSJyb3RhdGUoMCkiIHk9IjgwNC4wNSIgb3BhY2l0eT0iMSIgZm9udC1zdHlsZT0iIiBzaXplPSIxM3B4IiBhbGlnbj0idG9wIiBmb250LXdlaWdodD0iNDAwIiBmaWxsPSIjMzIzMjMyIiB3aWR0aD0iMTVweCIgZm9udC1zaXplPSIxM3B4IiB0ZXh0LWFuY2hvcj0ibWlkZGxlIiBmb250LWZhbWlseT0i5b6u6L2v6ZuF6buRIiBpZD0iU3ZnanNUZXh0MTkyNCI+PHRzcGFuIHg9IjUzMjcuNSIgZHk9IjE2IiBpZD0iU3ZnanNUc3BhbjE5MjUiPjx0c3BhbiBzdHlsZT0idGV4dC1kZWNvcmF0aW9uOjsiIGlkPSJTdmdqc1RzcGFuMTkyNiI+bm88L3RzcGFuPjwvdHNwYW4+PC90ZXh0PjwvZz48ZyB0cmFuc2Zvcm09InRyYW5zbGF0ZSg0ODg4LDE3NDkpIiBpZD0iU3ZnanNHMTkyNyI+PHBhdGggZmlsbD0iI2ZmZmZmZiIgZmlsbC1vcGFjaXR5PSIxIiBzdHJva2Utd2lkdGg9IjIiIHN0cm9rZT0icmdiYSg1MCw1MCw1MCwxKSIgZD0iTSAwIDBMIDE5NiAwTCAxOTYgNzBMIDAgNzBaIiBpZD0iU3ZnanNQYXRoMTkyOCIvPjxnIGlkPSJTdmdqc0cxOTI5Ij48dGV4dCB0cmFuc2Zvcm09InJvdGF0ZSgwKSIgeT0iMjUuMDUiIG9wYWNpdHk9IjEiIGZvbnQtc3R5bGU9IiIgc2l6ZT0iMTNweCIgYWxpZ249Im1pZGRsZSIgZm9udC13ZWlnaHQ9IjQwMCIgZmlsbD0iIzMyMzIzMiIgd2lkdGg9IjE3NnB4IiBmb250LXNpemU9IjEzcHgiIHRleHQtYW5jaG9yPSJtaWRkbGUiIGZvbnQtZmFtaWx5PSLlvq7ova/pm4Xpu5EiIGlkPSJTdmdqc1RleHQxOTMwIj48dHNwYW4geD0iOTgiIGR5PSIxNiIgaWQ9IlN2Z2pzVHNwYW4xOTMxIj48dHNwYW4gc3R5bGU9InRleHQtZGVjb3JhdGlvbjo7IiBpZD0iU3ZnanNUc3BhbjE5MzIiPuaWsO+8mmFjY291bnRfaG9sZF88L3RzcGFuPjwvdHNwYW4+PC90ZXh0PjwvZz48L2c+PGcgdHJhbnNmb3JtPSJ0cmFuc2xhdGUoNDUxOCwxNzQ5KSIgaWQ9IlN2Z2pzRzE5MzMiPjxwYXRoIGZpbGw9IiNmZmZmZmYiIGZpbGwtb3BhY2l0eT0iMSIgc3Ryb2tlLXdpZHRoPSIyIiBzdHJva2U9InJnYmEoNTAsNTAsNTAsMSkiIGQ9Ik0gMCAwTCAxOTYgMEwgMTk2IDcwTCAwIDcwWiIgaWQ9IlN2Z2pzUGF0aDE5MzQiLz48ZyBpZD0iU3ZnanNHMTkzNSI+PHRleHQgdHJhbnNmb3JtPSJyb3RhdGUoMCkiIHk9IjI1LjA1IiBvcGFjaXR5PSIxIiBmb250LXN0eWxlPSIiIHNpemU9IjEzcHgiIGFsaWduPSJtaWRkbGUiIGZvbnQtd2VpZ2h0PSI0MDAiIGZpbGw9IiMzMjMyMzIiIHdpZHRoPSIxNzZweCIgZm9udC1zaXplPSIxM3B4IiB0ZXh0LWFuY2hvcj0ibWlkZGxlIiBmb250LWZhbWlseT0i5b6u6L2v6ZuF6buRIiBpZD0iU3ZnanNUZXh0MTkzNiI+PHRzcGFuIHg9Ijk4IiBkeT0iMTYiIGlkPSJTdmdqc1RzcGFuMTkzNyI+PHRzcGFuIHN0eWxlPSJ0ZXh0LWRlY29yYXRpb246OyIgaWQ9IlN2Z2pzVHNwYW4xOTM4Ij7ogIHvvJphY2NvdW50X2hvbGQ8L3RzcGFuPjwvdHNwYW4+PC90ZXh0PjwvZz48L2c+PGcgaWQ9IlN2Z2pzRzE5MzkiPjxwYXRoIG1hcmtlci1lbmQ9InVybCgjU3ZnanNNYXJrZXIxOTQxKSIgZmlsbD0ibm9uZSIgc3Ryb2tlLXdpZHRoPSIyIiBzdHJva2U9IiMzMjMyMzIiIGQ9Ik00ODE5IDE1NTNMNDgxOSAxNjU4TDQ2MTYgMTY1OEw0NjE2IDE3NDkiIGlkPSJTdmdqc1BhdGgxOTQwIi8+PHJlY3QgZmlsbD0iI2ZmZmZmZiIgeT0iMTY1MCIgeD0iNDY3NS41IiBoZWlnaHQ9IjE2IiB3aWR0aD0iOTgiIGlkPSJTdmdqc1JlY3QxOTQzIi8+PHRleHQgdHJhbnNmb3JtPSJyb3RhdGUoMCkiIHk9IjE2NDguMDUiIG9wYWNpdHk9IjEiIGZvbnQtc3R5bGU9IiIgc2l6ZT0iMTNweCIgYWxpZ249InRvcCIgZm9udC13ZWlnaHQ9IjQwMCIgZmlsbD0iIzMyMzIzMiIgd2lkdGg9Ijk4cHgiIGZvbnQtc2l6ZT0iMTNweCIgdGV4dC1hbmNob3I9Im1pZGRsZSIgZm9udC1mYW1pbHk9IuW+rui9r+mbhem7kSIgaWQ9IlN2Z2pzVGV4dDE5NDQiPjx0c3BhbiB4PSI0NzI0LjUiIGR5PSIxNiIgaWQ9IlN2Z2pzVHNwYW4xOTQ1Ij48dHNwYW4gc3R5bGU9InRleHQtZGVjb3JhdGlvbjo7IiBpZD0iU3ZnanNUc3BhbjE5NDYiPuS4i+WNlS/ov73liqDkv53or4Hph5E8L3RzcGFuPjwvdHNwYW4+PC90ZXh0PjwvZz48ZyBpZD0iU3ZnanNHMTk0NyI+PHBhdGggbWFya2VyLWVuZD0idXJsKCNTdmdqc01hcmtlcjE5NDkpIiBmaWxsPSJub25lIiBzdHJva2Utd2lkdGg9IjIiIHN0cm9rZT0iIzMyMzIzMiIgZD0iTTQ4MTkgMTU1M0w0ODE5IDE2NThMNDk4NiAxNjU4TDQ5ODYgMTc0OSIgaWQ9IlN2Z2pzUGF0aDE5NDgiLz48cmVjdCBmaWxsPSIjZmZmZmZmIiB5PSIxNjUwIiB4PSI0ODUwIiBoZWlnaHQ9IjE2IiB3aWR0aD0iOTEiIGlkPSJTdmdqc1JlY3QxOTUxIi8+PHRleHQgdHJhbnNmb3JtPSJyb3RhdGUoMCkiIHk9IjE2NDguMDUiIG9wYWNpdHk9IjEiIGZvbnQtc3R5bGU9IiIgc2l6ZT0iMTNweCIgYWxpZ249InRvcCIgZm9udC13ZWlnaHQ9IjQwMCIgZmlsbD0iIzMyMzIzMiIgd2lkdGg9IjkxcHgiIGZvbnQtc2l6ZT0iMTNweCIgdGV4dC1hbmNob3I9Im1pZGRsZSIgZm9udC1mYW1pbHk9IuW+rui9r+mbhem7kSIgaWQ9IlN2Z2pzVGV4dDE5NTIiPjx0c3BhbiB4PSI0ODk1LjUiIGR5PSIxNiIgaWQ9IlN2Z2pzVHNwYW4xOTUzIj48dHNwYW4gc3R5bGU9InRleHQtZGVjb3JhdGlvbjo7IiBpZD0iU3ZnanNUc3BhbjE5NTQiPuaSpOWNlS/miJDku5Mv5bmz5LuTPC90c3Bhbj48L3RzcGFuPjwvdGV4dD48L2c+PGcgdHJhbnNmb3JtPSJ0cmFuc2xhdGUoNDkyNiwxODY0KSIgaWQ9IlN2Z2pzRzE5NTUiPjxwYXRoIGZpbGw9IiNmZmZmZmYiIGZpbGwtb3BhY2l0eT0iMSIgc3Ryb2tlLXdpZHRoPSIyIiBzdHJva2U9InJnYmEoNTAsNTAsNTAsMSkiIGQ9Ik0gMCA0MEwgNjAgMEwgMTIwIDQwTCA2MCA4MFoiIGlkPSJTdmdqc1BhdGgxOTU2Ii8+PGcgaWQ9IlN2Z2pzRzE5NTciPjx0ZXh0IHRyYW5zZm9ybT0icm90YXRlKDApIiB5PSIzMC40NSIgb3BhY2l0eT0iMSIgZm9udC1zdHlsZT0iIiBzaXplPSIxM3B4IiBhbGlnbj0ibWlkZGxlIiBmb250LXdlaWdodD0iNDAwIiBmaWxsPSIjMzIzMjMyIiB3aWR0aD0iMTAwcHgiIGZvbnQtc2l6ZT0iMTNweCIgdGV4dC1hbmNob3I9Im1pZGRsZSIgZm9udC1mYW1pbHk9IuW+rui9r+mbhem7kSIgaWQ9IlN2Z2pzVGV4dDE5NTgiPjx0c3BhbiB4PSI2MCIgZHk9IjE2IiBpZD0iU3ZnanNUc3BhbjE5NTkiPjx0c3BhbiBzdHlsZT0idGV4dC1kZWNvcmF0aW9uOjsiIGlkPSJTdmdqc1RzcGFuMTk2MCI+5paw5pWw5o2u5Lit5piv5ZCm5pyJPC90c3Bhbj48L3RzcGFuPjwvdGV4dD48L2c+PC9nPjxnIGlkPSJTdmdqc0cxOTYxIj48cGF0aCBtYXJrZXItZW5kPSJ1cmwoI1N2Z2pzTWFya2VyMTk2MykiIGZpbGw9Im5vbmUiIHN0cm9rZS13aWR0aD0iMiIgc3Ryb2tlPSIjMzIzMjMyIiBkPSJNNDk4NiAxODE5TDQ5ODYgMTg0MS41TDQ5ODYgMTg0MS41TDQ5ODYgMTg2NCIgaWQ9IlN2Z2pzUGF0aDE5NjIiLz48L2c+PGcgaWQ9IlN2Z2pzRzE5NjUiPjxwYXRoIG1hcmtlci1lbmQ9InVybCgjU3ZnanNNYXJrZXIxOTY3KSIgZmlsbD0ibm9uZSIgc3Ryb2tlLXdpZHRoPSIyIiBzdHJva2U9IiMzMjMyMzIiIGQ9Ik00OTI2IDE5MDRMNDYxNiAxOTA0TDQ2MTYgMTgxOSIgaWQ9IlN2Z2pzUGF0aDE5NjYiLz48cmVjdCBmaWxsPSIjZmZmZmZmIiB5PSIxODk2IiB4PSI0NzIxIiBoZWlnaHQ9IjE2IiB3aWR0aD0iMTUiIGlkPSJTdmdqc1JlY3QxOTY5Ii8+PHRleHQgdHJhbnNmb3JtPSJyb3RhdGUoMCkiIHk9IjE4OTQuMDUiIG9wYWNpdHk9IjEiIGZvbnQtc3R5bGU9IiIgc2l6ZT0iMTNweCIgYWxpZ249InRvcCIgZm9udC13ZWlnaHQ9IjQwMCIgZmlsbD0iIzMyMzIzMiIgd2lkdGg9IjE1cHgiIGZvbnQtc2l6ZT0iMTNweCIgdGV4dC1hbmNob3I9Im1pZGRsZSIgZm9udC1mYW1pbHk9IuW+rui9r+mbhem7kSIgaWQ9IlN2Z2pzVGV4dDE5NzAiPjx0c3BhbiB4PSI0NzI4LjUiIGR5PSIxNiIgaWQ9IlN2Z2pzVHNwYW4xOTcxIj48dHNwYW4gc3R5bGU9InRleHQtZGVjb3JhdGlvbjo7IiBpZD0iU3ZnanNUc3BhbjE5NzIiPm5vPC90c3Bhbj48L3RzcGFuPjwvdGV4dD48L2c+PGcgdHJhbnNmb3JtPSJ0cmFuc2xhdGUoMTEwNywxOTA5KSIgaWQ9IlN2Z2pzRzE5NzMiPjxwYXRoIGZpbGw9IiNmZmZmZmYiIGZpbGwtb3BhY2l0eT0iMSIgc3Ryb2tlLXdpZHRoPSIyIiBzdHJva2U9InJnYmEoNTAsNTAsNTAsMSkiIGQ9Ik0gMCA0MEwgNjAgMEwgMTIwIDQwTCA2MCA4MFoiIGlkPSJTdmdqc1BhdGgxOTc0Ii8+PGcgaWQ9IlN2Z2pzRzE5NzUiPjx0ZXh0IHRyYW5zZm9ybT0icm90YXRlKDApIiB5PSIyMi40NSIgb3BhY2l0eT0iMSIgZm9udC1zdHlsZT0iIiBzaXplPSIxM3B4IiBhbGlnbj0ibWlkZGxlIiBmb250LXdlaWdodD0iNDAwIiBmaWxsPSIjMzIzMjMyIiB3aWR0aD0iMTAwcHgiIGZvbnQtc2l6ZT0iMTNweCIgdGV4dC1hbmNob3I9Im1pZGRsZSIgZm9udC1mYW1pbHk9IuW+rui9r+mbhem7kSIgaWQ9IlN2Z2pzVGV4dDE5NzYiPjx0c3BhbiB4PSI2MCIgZHk9IjE2IiBpZD0iU3ZnanNUc3BhbjE5NzciPjx0c3BhbiBzdHlsZT0idGV4dC1kZWNvcmF0aW9uOjsiIGlkPSJTdmdqc1RzcGFuMTk3OCI+5piv5ZCmcm9sbGJhY2smYW1wOyZhbXA7PC90c3Bhbj48L3RzcGFuPjx0c3BhbiB4PSI2MCIgZHk9IjE2IiBpZD0iU3ZnanNUc3BhbjE5NzkiPjx0c3BhbiBzdHlsZT0idGV4dC1kZWNvcmF0aW9uOjsiIGlkPSJTdmdqc1RzcGFuMTk4MCI+5Zyo55m95ZCN5Y2VPC90c3Bhbj48L3RzcGFuPjwvdGV4dD48L2c+PC9nPjxnIGlkPSJTdmdqc0cxOTgxIj48cGF0aCBtYXJrZXItZW5kPSJ1cmwoI1N2Z2pzTWFya2VyMTk4MykiIGZpbGw9Im5vbmUiIHN0cm9rZS13aWR0aD0iMiIgc3Ryb2tlPSIjMzIzMjMyIiBkPSJNMTEwNyAxOTQ5TDEwNjYuMjUgMTk0OUwxMDY2LjI1IDE5NDlMMTAyNS41IDE5NDkiIGlkPSJTdmdqc1BhdGgxOTgyIi8+PHJlY3QgZmlsbD0iI2ZmZmZmZiIgeT0iMTk0MSIgeD0iMTA1OC43NSIgaGVpZ2h0PSIxNiIgd2lkdGg9IjE1IiBpZD0iU3ZnanNSZWN0MTk4NSIvPjx0ZXh0IHRyYW5zZm9ybT0icm90YXRlKDApIiB5PSIxOTM5LjA1IiBvcGFjaXR5PSIxIiBmb250LXN0eWxlPSIiIHNpemU9IjEzcHgiIGFsaWduPSJ0b3AiIGZvbnQtd2VpZ2h0PSI0MDAiIGZpbGw9IiMzMjMyMzIiIHdpZHRoPSIxNXB4IiBmb250LXNpemU9IjEzcHgiIHRleHQtYW5jaG9yPSJtaWRkbGUiIGZvbnQtZmFtaWx5PSLlvq7ova/pm4Xpu5EiIGlkPSJTdmdqc1RleHQxOTg2Ij48dHNwYW4geD0iMTA2Ni4yNSIgZHk9IjE2IiBpZD0iU3ZnanNUc3BhbjE5ODciPjx0c3BhbiBzdHlsZT0idGV4dC1kZWNvcmF0aW9uOjsiIGlkPSJTdmdqc1RzcGFuMTk4OCI+bm88L3RzcGFuPjwvdHNwYW4+PC90ZXh0PjwvZz48ZyBpZD0iU3ZnanNHMTk4OSI+PHBhdGggbWFya2VyLWVuZD0idXJsKCNTdmdqc01hcmtlcjE5OTEpIiBmaWxsPSJub25lIiBzdHJva2Utd2lkdGg9IjIiIHN0cm9rZT0iIzMyMzIzMiIgZD0iTTExNjcgMTkwOUwxMTY3IDE1OTlMMTY5MyAxNTk5TDE2OTMgMTkxNCIgaWQ9IlN2Z2pzUGF0aDE5OTAiLz48cmVjdCBmaWxsPSIjZmZmZmZmIiB5PSIxNzYxIiB4PSIxMTU3IiBoZWlnaHQ9IjE2IiB3aWR0aD0iMjAiIGlkPSJTdmdqc1JlY3QxOTkzIi8+PHRleHQgdHJhbnNmb3JtPSJyb3RhdGUoMCkiIHk9IjE3NTkuMDUiIG9wYWNpdHk9IjEiIGZvbnQtc3R5bGU9IiIgc2l6ZT0iMTNweCIgYWxpZ249InRvcCIgZm9udC13ZWlnaHQ9IjQwMCIgZmlsbD0iIzMyMzIzMiIgd2lkdGg9IjIwcHgiIGZvbnQtc2l6ZT0iMTNweCIgdGV4dC1hbmNob3I9Im1pZGRsZSIgZm9udC1mYW1pbHk9IuW+rui9r+mbhem7kSIgaWQ9IlN2Z2pzVGV4dDE5OTQiPjx0c3BhbiB4PSIxMTY3IiBkeT0iMTYiIGlkPSJTdmdqc1RzcGFuMTk5NSI+PHRzcGFuIHN0eWxlPSJ0ZXh0LWRlY29yYXRpb246OyIgaWQ9IlN2Z2pzVHNwYW4xOTk2Ij55ZXM8L3RzcGFuPjwvdHNwYW4+PC90ZXh0PjwvZz48ZyB0cmFuc2Zvcm09InRyYW5zbGF0ZSgyNTQ1LDE5NzApIiBpZD0iU3ZnanNHMTk5NyI+PHBhdGggZmlsbD0iI2ZmZmZmZiIgZmlsbC1vcGFjaXR5PSIxIiBzdHJva2Utd2lkdGg9IjIiIHN0cm9rZT0icmdiYSg1MCw1MCw1MCwxKSIgZD0iTSAwIDQwTCA2MCAwTCAxMjAgNDBMIDYwIDgwWiIgaWQ9IlN2Z2pzUGF0aDE5OTgiLz48ZyBpZD0iU3ZnanNHMTk5OSI+PHRleHQgdHJhbnNmb3JtPSJyb3RhdGUoMCkiIHk9IjIyLjQ1IiBvcGFjaXR5PSIxIiBmb250LXN0eWxlPSIiIHNpemU9IjEzcHgiIGFsaWduPSJtaWRkbGUiIGZvbnQtd2VpZ2h0PSI0MDAiIGZpbGw9IiMzMjMyMzIiIHdpZHRoPSIxMDBweCIgZm9udC1zaXplPSIxM3B4IiB0ZXh0LWFuY2hvcj0ibWlkZGxlIiBmb250LWZhbWlseT0i5b6u6L2v6ZuF6buRIiBpZD0iU3ZnanNUZXh0MjAwMCI+PHRzcGFuIHg9IjYwIiBkeT0iMTYiIGlkPSJTdmdqc1RzcGFuMjAwMSI+PHRzcGFuIHN0eWxlPSJ0ZXh0LWRlY29yYXRpb246OyIgaWQ9IlN2Z2pzVHNwYW4yMDAyIj7mmK/lkKZyb2xsYmFjayZhbXA7JmFtcDs8L3RzcGFuPjwvdHNwYW4+PHRzcGFuIHg9IjYwIiBkeT0iMTYiIGlkPSJTdmdqc1RzcGFuMjAwMyI+PHRzcGFuIHN0eWxlPSJ0ZXh0LWRlY29yYXRpb246OyIgaWQ9IlN2Z2pzVHNwYW4yMDA0Ij7lnKjnmb3lkI3ljZU8L3RzcGFuPjwvdHNwYW4+PC90ZXh0PjwvZz48L2c+PGcgaWQ9IlN2Z2pzRzIwMDUiPjxwYXRoIG1hcmtlci1lbmQ9InVybCgjU3ZnanNNYXJrZXIyMDA3KSIgZmlsbD0ibm9uZSIgc3Ryb2tlLXdpZHRoPSIyIiBzdHJva2U9IiMzMjMyMzIiIGQ9Ik0yNTQ1IDIwMTBMMjUwMCAyMDEwTDI1MDAgMjAxMEwyNDU1LjUgMjAxMCIgaWQ9IlN2Z2pzUGF0aDIwMDYiLz48cmVjdCBmaWxsPSIjZmZmZmZmIiB5PSIyMDAyIiB4PSIyNDkyLjc1IiBoZWlnaHQ9IjE2IiB3aWR0aD0iMTUiIGlkPSJTdmdqc1JlY3QyMDA5Ii8+PHRleHQgdHJhbnNmb3JtPSJyb3RhdGUoMCkiIHk9IjIwMDAuMDUiIG9wYWNpdHk9IjEiIGZvbnQtc3R5bGU9IiIgc2l6ZT0iMTNweCIgYWxpZ249InRvcCIgZm9udC13ZWlnaHQ9IjQwMCIgZmlsbD0iIzMyMzIzMiIgd2lkdGg9IjE1cHgiIGZvbnQtc2l6ZT0iMTNweCIgdGV4dC1hbmNob3I9Im1pZGRsZSIgZm9udC1mYW1pbHk9IuW+rui9r+mbhem7kSIgaWQ9IlN2Z2pzVGV4dDIwMTAiPjx0c3BhbiB4PSIyNTAwLjI1IiBkeT0iMTYiIGlkPSJTdmdqc1RzcGFuMjAxMSI+PHRzcGFuIHN0eWxlPSJ0ZXh0LWRlY29yYXRpb246OyIgaWQ9IlN2Z2pzVHNwYW4yMDEyIj5ubzwvdHNwYW4+PC90c3Bhbj48L3RleHQ+PC9nPjxnIGlkPSJTdmdqc0cyMDEzIj48cGF0aCBtYXJrZXItZW5kPSJ1cmwoI1N2Z2pzTWFya2VyMjAxNSkiIGZpbGw9Im5vbmUiIHN0cm9rZS13aWR0aD0iMiIgc3Ryb2tlPSIjMzIzMjMyIiBkPSJNMjYwNSAxOTcwTDI2MDUgMTY1NUwzMDg4IDE2NTVMMzA4OCAxOTc1IiBpZD0iU3ZnanNQYXRoMjAxNCIvPjxyZWN0IGZpbGw9IiNmZmZmZmYiIHk9IjE5MjYiIHg9IjI1OTUiIGhlaWdodD0iMTYiIHdpZHRoPSIyMCIgaWQ9IlN2Z2pzUmVjdDIwMTciLz48dGV4dCB0cmFuc2Zvcm09InJvdGF0ZSgwKSIgeT0iMTkyNC4wNSIgb3BhY2l0eT0iMSIgZm9udC1zdHlsZT0iIiBzaXplPSIxM3B4IiBhbGlnbj0idG9wIiBmb250LXdlaWdodD0iNDAwIiBmaWxsPSIjMzIzMjMyIiB3aWR0aD0iMjBweCIgZm9udC1zaXplPSIxM3B4IiB0ZXh0LWFuY2hvcj0ibWlkZGxlIiBmb250LWZhbWlseT0i5b6u6L2v6ZuF6buRIiBpZD0iU3ZnanNUZXh0MjAxOCI+PHRzcGFuIHg9IjI2MDUiIGR5PSIxNiIgaWQ9IlN2Z2pzVHNwYW4yMDE5Ij48dHNwYW4gc3R5bGU9InRleHQtZGVjb3JhdGlvbjo7IiBpZD0iU3ZnanNUc3BhbjIwMjAiPnllczwvdHNwYW4+PC90c3Bhbj48L3RleHQ+PC9nPjwvc3ZnPg==;" vertex="1" parent="WIyWlLk6GJQsqaUBKTNV-1">
          <mxGeometry y="10" width="1312.88" height="510" as="geometry" />
        </mxCell>
      </root>
    </mxGraphModel>
  </diagram>
</mxfile>
